<?xml version="1.0" encoding="utf-8"?>
<!-- Generator: Adobe Illustrator 22.1.0, SVG Export Plug-In . SVG Version: 6.00 Build 0)  -->
<svg version="1.1" id="Layer_1" xmlns="http://www.w3.org/2000/svg" xmlns:xlink="http://www.w3.org/1999/xlink" x="0px" y="0px"
	 width="1555px" height="105px" viewBox="0 0 1555 105" enable-background="new 0 0 1555 105" xml:space="preserve">
<g>
	<path fill="#FFFFFF" d="M65.8292,97.4508c-0.6132,1.5891-2.3301,2.6929-4.0418,2.6929H43.4125
		c-1.7118,0-3.4287-1.1037-4.0418-2.6929L2.9992,7.309C2.5087,6.0827,3.3671,4.611,4.8336,4.611H25.656
		c1.7169,0,3.306,1.1037,3.9192,2.698l22.1663,59.156c0.2453,0.8533,1.4716,0.8533,1.7169,0L75.7473,7.309
		c0.6132-1.5943,2.2074-2.698,3.9192-2.698h20.8224c1.4665,0,2.325,1.4716,1.8344,2.698L65.8292,97.4508z"/>
	<path fill="#FFFFFF" d="M115.1386,7.5543c0-1.5943,1.349-2.9432,2.9381-2.9432h18.6201c1.5891,0,2.9381,1.349,2.9381,2.9432
		v89.6513c0,1.5891-1.349,2.9381-2.9381,2.9381h-18.6201c-1.5891,0-2.9381-1.349-2.9381-2.9381V7.5543z"/>
	<path fill="#FFFFFF" d="M156.6557,74.9115c-0.1226-1.7118,1.4716-3.4287,3.1834-3.4287h16.5353
		c2.8155,0,3.4287,0.6132,4.9003,3.1885c1.7118,3.1834,6.7347,6.1215,15.3089,6.1215c9.1874,0,12.1255-3.0608,12.1255-5.8814
		c0-4.0418-4.7777-6.4894-16.29-10.4086c-15.1863-5.0229-35.1502-12.3708-35.1502-32.0895
		c0-18.2471,15.5542-29.6368,37.3526-29.6368c22.294,0,37.8482,11.635,39.0694,28.7783c0.1226,1.7169-1.4665,3.4338-3.1834,3.4338
		h-17.0207c-2.3301,0-3.4338-1.1037-4.1645-3.3111c-1.4716-4.0367-6.1266-7.7158-14.2103-7.7158
		c-8.329,0-11.635,3.3111-11.635,6.4945c0,3.7966,4.4097,5.7536,15.7995,9.6728c13.2292,4.655,35.7634,12.4934,35.7634,33.4385
		c0,18.615-16.1674,28.4155-37.9657,28.4155C175.3933,101.9832,158.3726,92.4279,156.6557,74.9115z"/>
	<path fill="#FFFFFF" d="M252.3723,7.5543c0-1.5943,1.349-2.9432,2.9381-2.9432h18.6201c1.5891,0,2.9381,1.349,2.9381,2.9432
		v89.6513c0,1.5891-1.349,2.9381-2.9381,2.9381h-18.6201c-1.5891,0-2.9381-1.349-2.9381-2.9381V7.5543z"/>
	<path fill="#FFFFFF" d="M292.4688,28.3716c-1.5943,0-2.9381-1.3439-2.9381-2.9381V7.5543c0-1.5943,1.3439-2.9432,2.9381-2.9432
		h78.1389c1.5942,0,2.9381,1.349,2.9381,2.9432v17.8792c0,1.5943-1.3439,2.9381-2.9381,2.9381H346.234
		c-1.349,0-2.4476,1.1037-2.4476,2.4527v66.3813c0,1.5891-1.349,2.9381-2.9381,2.9381h-18.6201
		c-1.5891,0-2.9381-1.349-2.9381-2.9381V30.8243c0-1.349-1.1037-2.4527-2.4476-2.4527H292.4688z"/>
	<path fill="#FFFFFF" d="M384.164,74.9115c-0.1227-1.7118,1.4716-3.4287,3.1834-3.4287h16.5353
		c2.8155,0,3.4286,0.6132,4.9003,3.1885c1.7118,3.1834,6.7347,6.1215,15.3089,6.1215c9.1874,0,12.1255-3.0608,12.1255-5.8814
		c0-4.0418-4.7776-6.4894-16.29-10.4086c-15.1863-5.0229-35.1503-12.3708-35.1503-32.0895
		c0-18.2471,15.5542-29.6368,37.3526-29.6368c22.294,0,37.8482,11.635,39.0695,28.7783c0.1227,1.7169-1.4665,3.4338-3.1834,3.4338
		h-17.0207c-2.3301,0-3.4338-1.1037-4.1645-3.3111c-1.4716-4.0367-6.1266-7.7158-14.2103-7.7158
		c-8.3289,0-11.635,3.3111-11.635,6.4945c0,3.7966,4.4098,5.7536,15.7995,9.6728c13.2292,4.655,35.7634,12.4934,35.7634,33.4385
		c0,18.615-16.1674,28.4155-37.9658,28.4155C402.9016,101.9832,385.8809,92.4279,384.164,74.9115z"/>
	<path fill="#FFFFFF" d="M546.3436,67.3184c0.9811-1.5891,2.6929-2.0797,4.2871-1.3439l17.0207,7.4705
		c1.349,0.4905,1.9622,2.4476,1.1038,3.6739c-8.6969,14.941-25.2271,24.8642-43.8471,24.8642
		c-27.5571,0-50.7045-22.294-50.7045-49.6058S497.351,2.7766,524.9081,2.7766c18.6201,0,34.905,9.9181,43.7244,24.619
		c0.7358,1.2212,0.2453,3.1834-1.1037,3.7966l-16.8981,7.4705c-1.5942,0.8533-3.306,0.3679-4.2871-1.2264
		c-4.655-6.6121-12.4934-11.0218-21.4355-11.0218c-14.3279,0-25.9629,11.5124-25.9629,25.9628
		c0,14.4556,11.635,25.968,25.9629,25.968C533.9728,78.3453,541.6886,73.9356,546.3436,67.3184z"/>
	<path fill="#FFFFFF" d="M578.5302,52.3774c0-27.3118,23.1473-49.6007,50.7044-49.6007c27.925,0,50.7045,22.2889,50.7045,49.6007
		s-22.7794,49.6058-50.7045,49.6058C601.6776,101.9832,578.5302,79.6892,578.5302,52.3774z M603.2718,52.3774
		c0,14.4556,11.635,25.968,25.9628,25.968c14.7009,0,25.968-11.5124,25.968-25.968c0-14.4505-11.2671-25.9628-25.968-25.9628
		C614.9068,26.4145,603.2718,37.9269,603.2718,52.3774z"/>
	<path fill="#FFFFFF" d="M690.4653,28.3716c-1.5942,0-2.9381-1.3439-2.9381-2.9381V7.5543c0-1.5943,1.3439-2.9432,2.9381-2.9432
		h78.1389c1.5942,0,2.9381,1.349,2.9381,2.9432v17.8792c0,1.5943-1.3439,2.9381-2.9381,2.9381h-24.3737
		c-1.3439,0-2.4476,1.1037-2.4476,2.4527v66.3813c0,1.5891-1.349,2.9381-2.9381,2.9381h-18.6201
		c-1.5891,0-2.9381-1.349-2.9381-2.9381V30.8243c0-1.349-1.1037-2.4527-2.4476-2.4527H690.4653z"/>
	<path fill="#FFFFFF" d="M787.3418,100.1437c-1.5892,0-2.9382-1.349-2.9382-2.9381V7.5543c0-1.5943,1.349-2.9432,2.9382-2.9432
		h18.4974c1.5891,0,2.9381,1.349,2.9381,2.9432v66.5039c0,1.3439,1.1037,2.4476,2.4476,2.4476h40.4185
		c1.5942,0,2.9381,1.349,2.9381,2.9381v17.7616c0,1.5891-1.3439,2.9381-2.9381,2.9381H787.3418z"/>
	<path fill="#FFFFFF" d="M901.0602,7.309c0.6132-1.5943,2.33-2.698,4.0418-2.698h18.3748c1.7118,0,3.4286,1.1037,4.0419,2.698
		l36.3715,90.1418c0.4905,1.2212-0.3679,2.6929-1.8344,2.6929h-20.8224c-1.7118,0-3.306-1.1037-3.9192-2.6929l-3.4287-8.9421
		c-0.4905-1.349-1.8344-2.325-3.306-2.325h-32.7026c-1.4665,0-2.8155,0.976-3.306,2.325l-3.4287,8.9421
		c-0.6132,1.5891-2.2074,2.6929-3.9192,2.6929h-20.8224c-1.4665,0-2.325-1.4716-1.8344-2.6929L901.0602,7.309z M922.2505,64.0124
		c1.2263,0,1.9622-1.2212,1.5942-2.325l-8.6969-23.3926c-0.2452-0.8584-1.4716-0.8584-1.7169,0l-8.8195,23.3926
		c-0.3628,1.1037,0.3679,2.325,1.5942,2.325H922.2505z"/>
	<path fill="#FFFFFF" d="M1001.0792,97.2056c0,1.5891-1.349,2.9381-2.9382,2.9381h-18.4974c-1.5891,0-2.9381-1.349-2.9381-2.9381
		V7.5543c0-1.5943,1.349-2.9432,2.9381-2.9432h14.8235c1.8344,0,3.674,0.8584,4.7726,2.3301l39.3148,49.1102
		c0.4905,0.7358,1.4716,0.3679,1.4716-0.4905V7.5543c0-1.5943,1.349-2.9432,2.9381-2.9432h18.4974
		c1.5892,0,2.9381,1.349,2.9381,2.9432v89.6513c0,1.5891-1.3489,2.9381-2.9381,2.9381h-14.8235c-1.8344,0-3.674-0.8584-4.7776-2.325
		l-39.3096-48.9927c-0.4905-0.7358-1.4716-0.3679-1.4716,0.4905V97.2056z"/>
	<path fill="#FFFFFF" d="M1088.3901,100.1437c-1.5891,0-2.9381-1.349-2.9381-2.9381V7.5543c0-1.5943,1.349-2.9432,2.9381-2.9432
		h41.3995c29.8821,0,45.191,21.8035,45.191,47.7663c0,26.0906-15.309,47.7663-45.191,47.7663H1088.3901z M1127.9502,28.3716
		h-15.5542c-1.3439,0-2.4476,1.1037-2.4476,2.4527v43.2339c0,1.3439,1.1038,2.4476,2.4476,2.4476h15.5542
		c14.5782,0,22.2939-9.7955,22.2939-24.1284C1150.2441,38.0495,1142.5284,28.3716,1127.9502,28.3716z"/>
	<path fill="#FFFFFF" d="M1185.6908,86.7918c0-8.4465,6.98-15.4316,15.4315-15.4316c8.4517,0,15.4316,6.9851,15.4316,15.4316
		c0,8.4516-6.98,15.4316-15.4316,15.4316C1192.6708,102.2234,1185.6908,95.2434,1185.6908,86.7918z"/>
	<path fill="#FFFFFF" d="M1297.6667,67.3184c0.9811-1.5891,2.6929-2.0797,4.2871-1.3439l17.0208,7.4705
		c1.349,0.4905,1.9622,2.4476,1.1036,3.6739c-8.6968,14.941-25.2271,24.8642-43.847,24.8642
		c-27.5571,0-50.7045-22.294-50.7045-49.6058s23.1473-49.6007,50.7045-49.6007c18.62,0,34.9049,9.9181,43.7245,24.619
		c0.7357,1.2212,0.2452,3.1834-1.1038,3.7966l-16.8981,7.4705c-1.5942,0.8533-3.306,0.3679-4.2871-1.2264
		c-4.655-6.6121-12.4934-11.0218-21.4355-11.0218c-14.3279,0-25.9629,11.5124-25.9629,25.9628
		c0,14.4556,11.635,25.968,25.9629,25.968C1285.2959,78.3453,1293.0117,73.9356,1297.6667,67.3184z"/>
	<path fill="#FFFFFF" d="M1329.8533,52.3774c0-27.3118,23.1473-49.6007,50.7045-49.6007c27.925,0,50.7045,22.2889,50.7045,49.6007
		s-22.7794,49.6058-50.7045,49.6058C1353.0006,101.9832,1329.8533,79.6892,1329.8533,52.3774z M1354.595,52.3774
		c0,14.4556,11.6349,25.968,25.9628,25.968c14.7009,0,25.968-11.5124,25.968-25.968c0-14.4505-11.2671-25.9628-25.968-25.9628
		C1366.2299,26.4145,1354.595,37.9269,1354.595,52.3774z"/>
	<path fill="#FFFFFF" d="M1472.0435,97.2056c0,1.5891-1.349,2.9381-2.9381,2.9381h-18.4974c-1.5892,0-2.9381-1.349-2.9381-2.9381
		V7.5543c0-1.5943,1.3489-2.9432,2.9381-2.9432h18.7427c1.7118,0,3.4287,1.1037,4.2871,2.5753l25.1044,49.9686
		c0.4906,0.9811,1.7169,0.9811,2.2075,0l25.2269-49.9686c0.8585-1.4716,2.5703-2.5753,4.2872-2.5753h18.7375
		c1.5942,0,2.9381,1.349,2.9381,2.9432v89.6513c0,1.5891-1.3439,2.9381-2.9381,2.9381h-18.4923
		c-1.5942,0-2.9381-1.349-2.9381-2.9381V53.6037c0-0.6132-0.8585-0.8584-1.1038-0.2453l-17.3937,34.905
		c-0.8534,1.4716-2.5703,2.5702-4.2821,2.5702h-10.1685c-1.7118,0-3.4286-1.0986-4.2871-2.5702l-17.3885-34.905
		c-0.2454-0.6132-1.1038-0.3679-1.1038,0.2453V97.2056z"/>
</g>
</svg>
