<?xml version="1.0" encoding="utf-8"?>
<!-- Generator: Adobe Illustrator 22.1.0, SVG Export Plug-In . SVG Version: 6.00 Build 0)  -->
<svg version="1.1" id="Layer_1" xmlns="http://www.w3.org/2000/svg" xmlns:xlink="http://www.w3.org/1999/xlink" x="0px" y="0px"
	 width="763.8109px" height="56.2927px" viewBox="0 0 763.8109 56.2927" enable-background="new 0 0 763.8109 56.2927"
	 xml:space="preserve">
<g>
	<path fill="#FFFFFF" d="M58.7637,40.9043c-0.0701-0.973,0.8329-1.945,1.8059-1.945h9.375c1.597,0,1.9441,0.347,2.7781,1.806
		c0.9729,1.805,3.819,3.472,8.6809,3.472c5.208,0,6.875-1.735,6.875-3.333c0-2.292-2.709-3.681-9.236-5.903
		c-8.6119-2.848-19.932-7.014-19.932-18.195c0-10.348,8.8201-16.806,21.181-16.806c12.64,0,21.46,6.597,22.1539,16.32
		c0.0691,0.972-0.8329,1.944-1.8059,1.944h-9.6531c-1.319,0-1.944-0.625-2.361-1.875c-0.833-2.291-3.472-4.375-8.0551-4.375
		c-4.7229,0-6.5979,1.875-6.5979,3.68c0,2.154,2.5,3.264,8.959,5.487c7.5,2.639,20.278,7.083,20.278,18.959
		c0,10.556-9.167,16.112-21.5289,16.112C69.3887,56.2523,59.7356,50.8343,58.7637,40.9043"/>
	<path fill="#FFFFFF" d="M147.7239,36.5985c0.5559-0.903,1.527-1.18,2.4309-0.764l9.6531,4.237c0.7629,0.277,1.11,1.388,0.625,2.083
		c-4.931,8.472-14.306,14.097-24.8621,14.097c-15.626,0-28.751-12.639-28.751-28.126c0-15.486,13.125-28.125,28.751-28.125
		c10.556,0,19.792,5.625,24.792,13.958c0.417,0.695,0.139,1.806-0.625,2.153l-9.583,4.236c-0.9039,0.487-1.875,0.209-2.4309-0.694
		c-2.639-3.75-7.0841-6.25-12.1531-6.25c-8.126,0-14.723,6.528-14.723,14.722c0,8.195,6.597,14.723,14.723,14.723
		C140.7089,42.8485,145.0848,40.3485,147.7239,36.5985"/>
	<path fill="#FFFFFF" d="M163.4178,28.126c0-15.487,13.125-28.126,28.75-28.126c15.834,0,28.751,12.639,28.751,28.126
		s-12.917,28.126-28.751,28.126C176.5428,56.252,163.4178,43.613,163.4178,28.126 M177.4459,28.126
		c0,8.194,6.5979,14.722,14.7219,14.722c8.334,0,14.723-6.528,14.723-14.722c0-8.195-6.389-14.722-14.723-14.722
		C184.0438,13.404,177.4459,19.931,177.4459,28.126"/>
	<path fill="#FFFFFF" d="M224.8076,14.5143c-0.9031,0-1.6671-0.764-1.6671-1.667V2.7093c0-0.904,0.764-1.667,1.6671-1.667h44.3069
		c0.9021,0,1.666,0.763,1.666,1.667v10.138c0,0.903-0.7639,1.667-1.666,1.667h-13.8199c-0.764,0-1.389,0.625-1.389,1.389v37.64
		c0,0.903-0.7639,1.667-1.667,1.667h-10.5559c-0.9021,0-1.6671-0.764-1.6671-1.667v-37.64c0-0.764-0.625-1.389-1.3889-1.389
		H224.8076z"/>
	<path fill="#FFFFFF" d="M278.4884,55.2102c-0.9031,0-1.6671-0.764-1.6671-1.667V2.7082c0-0.902,0.764-1.667,1.6671-1.667h10.4869
		c0.902,0,1.666,0.765,1.666,1.667v37.71c0,0.764,0.625,1.388,1.389,1.388h22.918c0.902,0,1.666,0.764,1.666,1.668v10.069
		c0,0.903-0.764,1.667-1.666,1.667H278.4884z"/>
	<path fill="#FFFFFF" d="M343.2117,2.5692c0.3479-0.902,1.3199-1.527,2.293-1.527h10.417c0.972,0,1.944,0.625,2.291,1.527
		l20.625,51.113c0.2789,0.694-0.208,1.528-1.041,1.528h-11.806c-0.9719,0-1.875-0.625-2.2219-1.528l-1.9451-5.07
		c-0.277-0.764-1.041-1.319-1.875-1.319h-18.542c-0.833,0-1.597,0.555-1.875,1.319l-1.9449,5.07
		c-0.347,0.903-1.25,1.528-2.222,1.528h-11.8051c-0.834,0-1.3199-0.834-1.042-1.528L343.2117,2.5692z M355.2267,34.7232
		c0.6949,0,1.111-0.694,0.903-1.319l-4.931-13.265c-0.139-0.485-0.833-0.485-0.9719,0l-5,13.265
		c-0.208,0.625,0.2069,1.319,0.902,1.319H355.2267z"/>
	<path fill="#FFFFFF" d="M397.8662,53.5433c0,0.903-0.764,1.667-1.6671,1.667h-10.5559c-0.902,0-1.667-0.764-1.667-1.667V2.7083
		c0-0.903,0.765-1.667,1.667-1.667h8.4719c1.042,0,2.084,0.487,2.709,1.32l22.2921,27.848c0.278,0.416,0.8329,0.208,0.8329-0.277
		V2.7083c0-0.903,0.765-1.667,1.6671-1.667h10.4869c0.903,0,1.667,0.764,1.667,1.667v50.835c0,0.903-0.764,1.667-1.667,1.667h-8.403
		c-1.042,0-2.084-0.487-2.709-1.32l-22.2921-27.778c-0.277-0.417-0.8329-0.209-0.8329,0.277V53.5433z"/>
	<path fill="#FFFFFF" d="M442.3801,55.2103c-0.9031,0-1.667-0.764-1.667-1.667V2.7093c0-0.904,0.7639-1.667,1.667-1.667h23.473
		c16.9449,0,25.625,12.361,25.625,27.084c0,14.792-8.6801,27.084-25.625,27.084H442.3801z M464.8112,14.5143h-8.8201
		c-0.7629,0-1.3879,0.625-1.3879,1.389v24.515c0,0.763,0.625,1.389,1.3879,1.389h8.8201c8.2639,0,12.6399-5.556,12.6399-13.681
		C477.451,20.0003,473.0751,14.5143,464.8112,14.5143"/>
	<path fill="#FFFFFF" d="M5.0701,24.2781c-0.9031,0-1.667-0.764-1.667-1.667v-8.611c0-0.903,0.7639-1.667,1.667-1.667h5.903
		c0.764,0,1.458-0.556,1.597-1.389l1.458-8.194c0.1389-0.973,0.973-1.667,1.9449-1.667h8.125c0.834,0,1.5281,0.764,1.389,1.667
		l-1.458,8.194c-0.0701,0.695,0.486,1.389,1.181,1.389h3.611c0.7629,0,2.153-0.556,2.291-1.389l1.459-8.194
		c0.1379-0.973,0.972-1.667,1.944-1.667h8.125c0.834,0,1.5281,0.764,1.389,1.667l-1.458,8.194
		c-0.069,0.695,0.4869,1.389,1.181,1.389h3.75c0.902,0,1.666,0.764,1.666,1.667v8.611c0,0.903-0.764,1.667-1.666,1.667h-5.833
		c-0.765,0-1.5281,0.556-1.668,1.389l-0.833,5.069c-0.139,0.695,0.417,1.389,1.111,1.389h3.8199c0.9031,0,1.667,0.764,1.667,1.667
		v8.542c0,0.903-0.7639,1.667-1.667,1.667h-5.903c-0.764,0-1.458,0.556-1.597,1.389l-1.459,8.194
		c-0.1379,0.972-0.9719,1.667-1.944,1.667h-8.125c-0.834,0-1.528-0.763-1.389-1.667l1.458-8.194
		c0.0701-0.695-0.486-1.389-1.181-1.389h-4.3049c-0.764,0-1.458,0.556-1.597,1.389l-1.459,8.194
		c-0.139,0.972-0.9719,1.667-1.9449,1.667h-8.124c-0.834,0-1.528-0.763-1.39-1.667l1.459-8.194c0.069-0.695-0.486-1.389-1.181-1.389
		h-3.75c-0.903,0-1.667-0.764-1.667-1.667v-8.542c0-0.903,0.764-1.667,1.667-1.667H7.5c0.765,0,1.5281-0.555,1.667-1.389
		l0.8341-5.069c0.1389-0.695-0.4171-1.389-1.1121-1.389H5.0701z M23.1261,24.2781c-0.764,0-1.5281,0.556-1.6671,1.389l-0.8329,5.069
		c-0.139,0.695,0.417,1.389,1.111,1.389h4.306c0.7639,0,1.528-0.555,1.6659-1.389l0.8341-5.069
		c0.1389-0.695-0.417-1.389-1.1111-1.389H23.1261z"/>
	<path fill="#FFFFFF" d="M502.3335,2.3327c0-0.694,0.5559-1.25,1.25-1.25h1.5969c0.6951,0,1.25,0.556,1.25,1.25v51.668
		c0,0.695-0.5549,1.25-1.25,1.25h-1.5969c-0.6941,0-1.25-0.555-1.25-1.25V2.3327z"/>
	<path fill="#FFFFFF" d="M518.3057,43.2366c-0.0691-0.764,0.625-1.598,1.3899-1.528h1.1801c0.834,0.07,1.389,0.625,1.458,1.389
		c0.834,5.487,7.153,9.376,16.9449,9.376c10.0701,0,15.4871-4.237,15.4871-10.07c0-7.084-7.639-9.584-16.807-12.362
		c-8.819-2.708-19.3051-6.042-19.3051-15.834c0-8.472,7.5-14.167,19.2361-14.167c11.3199,0,19.653,5.348,20.209,13.126
		c0.069,0.625-0.4861,1.528-1.1111,1.528h-1.528c-0.764,0-1.319-0.626-1.389-1.389c-0.7639-5.556-6.8049-9.445-16.1809-9.445
		c-9.6531,0-14.931,4.236-14.931,10.069c0,6.945,7.3619,9.376,16.181,12.154c8.6809,2.639,20.001,5.972,20.001,16.111
		c0,8.542-7.848,14.098-19.8621,14.098C527.5426,56.2926,518.9307,51.0146,518.3057,43.2366"/>
	<path fill="#FFFFFF" d="M582.9343,53.584c0,0.903-0.764,1.667-1.6671,1.667h-10.5559c-0.902,0-1.667-0.764-1.667-1.667V2.749
		c0-0.902,0.765-1.667,1.667-1.667h8.4719c1.042,0,2.084,0.487,2.709,1.32l22.2921,27.848c0.278,0.417,0.8329,0.208,0.8329-0.277
		V2.749c0-0.902,0.765-1.667,1.6671-1.667h10.4869c0.903,0,1.667,0.765,1.667,1.667v50.835c0,0.903-0.764,1.667-1.667,1.667h-8.403
		c-1.042,0-2.084-0.486-2.709-1.32l-22.2921-27.778c-0.277-0.417-0.8329-0.209-0.8329,0.277V53.584z"/>
	<path fill="#FFFFFF" d="M625.6428,28.1667c0-15.487,13.125-28.126,28.75-28.126c15.834,0,28.751,12.639,28.751,28.126
		s-12.917,28.126-28.751,28.126C638.7678,56.2927,625.6428,43.6537,625.6428,28.1667 M639.6709,28.1667
		c0,8.195,6.5969,14.722,14.7219,14.722c8.334,0,14.723-6.527,14.723-14.722s-6.389-14.722-14.723-14.722
		C646.2678,13.4447,639.6709,19.9717,639.6709,28.1667"/>
	<path fill="#FFFFFF" d="M714.4636,53.6536c-0.2781,0.972-1.1801,1.598-2.1531,1.598h-11.041c-0.973,0-1.875-0.695-2.084-1.598
		l-14.376-50.974c-0.208-0.764,0.417-1.597,1.251-1.597h11.458c0.973,0,1.876,0.694,2.084,1.597l7.9871,29.376
		c0.069,0.347,0.624,0.417,0.7629,0l9.2361-29.376c0.2789-0.972,1.1809-1.597,2.153-1.597h9.028c0.973,0,1.875,0.625,2.1531,1.597
		l9.236,29.307c0.14,0.416,0.6949,0.347,0.764,0l7.9869-29.307c0.208-0.903,1.111-1.597,2.084-1.597h11.527
		c0.8341,0,1.458,0.833,1.25,1.597l-14.375,50.974c-0.2079,0.903-1.111,1.598-2.084,1.598h-11.041
		c-0.9729,0-1.875-0.626-2.1539-1.598l-9.444-28.542c-0.139-0.418-0.6951-0.418-0.834,0L714.4636,53.6536z"/>
</g>
</svg>
