<?xml version="1.0" standalone="no"?>
<!DOCTYPE svg PUBLIC "-//W3C//DTD SVG 1.1//EN" "http://www.w3.org/Graphics/SVG/1.1/DTD/svg11.dtd" >
<svg xmlns="http://www.w3.org/2000/svg" xmlns:xlink="http://www.w3.org/1999/xlink" version="1.1">
<metadata>
Created by FontForge 20161003 at Wed Feb 13 11:45:50 2019
 By www-data
Copyright \(c\) 2014 by Yellow Design Studio. All rights reserved.
</metadata>
<defs>
<font id="EvelethCleanThin" horiz-adv-x="925" >
  <font-face 
    font-family="Eveleth Clean Thin"
    font-weight="900"
    font-stretch="normal"
    units-per-em="1000"
    panose-1="2 1 3 4 2 2 0 0 0 3"
    ascent="800"
    descent="-200"
    x-height="780"
    cap-height="780"
    bbox="-48.0848 -314 1415 1071.25"
    underline-thickness="50"
    underline-position="-100"
    stemh="47"
    stemv="47"
    unicode-range="U+0020-F8FF"
  />
<missing-glyph horiz-adv-x="346" 
 />
    <glyph glyph-name=".notdef" horiz-adv-x="346" 
 />
    <glyph glyph-name="space" unicode=" " horiz-adv-x="346" 
 />
    <glyph glyph-name="exclam" unicode="!" horiz-adv-x="258" 
d="M106 219l-9 543c0 10 8 18 18 18h28c10 0 18 -8 18 -18l-9 -543c0 -10 -8 -18 -18 -18h-10c-10 0 -18 8 -18 18zM129 -12c-28 0 -52 22 -52 51c0 28 24 51 52 51s52 -23 52 -51c0 -29 -24 -51 -52 -51z" />
    <glyph glyph-name="numbersign" unicode="#" horiz-adv-x="747" 
d="M215 502h-97c-10 0 -18 8 -18 18v21c0 10 8 18 18 18h107c8 0 15 6 16 14l34 189c2 10 11 18 21 18h26c9 0 16 -9 15 -18l-34 -189c-1 -7 5 -14 12 -14h176c8 0 15 6 16 14l34 189c2 10 11 18 21 18h25c9 0 16 -9 15 -18l-34 -189c-1 -7 5 -14 12 -14h98
c10 0 18 -8 18 -18v-21c0 -10 -8 -18 -18 -18h-108c-8 0 -15 -6 -16 -14l-35 -197c-1 -7 5 -14 12 -14h98c10 0 18 -8 18 -18v-20c0 -10 -8 -18 -18 -18h-108c-8 0 -15 -6 -16 -14l-33 -189c-2 -10 -11 -18 -21 -18h-25c-9 0 -17 9 -15 18l33 189c1 7 -5 14 -12 14h-176
c-8 0 -15 -6 -16 -14l-33 -189c-2 -10 -11 -18 -21 -18h-26c-9 0 -17 9 -15 18l33 189c1 7 -5 14 -12 14h-97c-10 0 -18 8 -18 18v20c0 10 8 18 18 18h107c8 0 15 6 16 14l35 197c1 7 -5 14 -12 14zM481 502h-176c-8 0 -15 -6 -16 -14l-35 -197c-1 -7 5 -14 12 -14h176
c8 0 15 6 16 14l35 197c1 7 -5 14 -12 14z" />
    <glyph glyph-name="dollar" unicode="$" horiz-adv-x="603" 
d="M260 62c-110 14 -187 71 -197 152c-2 13 9 23 20 23h17c12 -1 18 -8 21 -20c11 -59 82 -104 188 -104c112 0 172 49 172 113c0 81 -90 107 -188 137c-108 35 -225 77 -225 190c0 90 74 155 192 165c8 1 14 7 14 15v54c0 10 8 18 18 18h21c10 0 18 -8 18 -18v-55
c0 -8 6 -14 14 -16c104 -13 178 -71 187 -153c1 -8 -8 -18 -17 -18h-21c-12 0 -19 6 -21 18c-10 62 -78 104 -178 104c-108 0 -165 -48 -165 -112c0 -76 77 -105 179 -136c100 -30 234 -67 234 -190c0 -92 -77 -157 -198 -168c-8 -1 -14 -7 -14 -15v-53
c0 -10 -8 -18 -18 -18h-21c-10 0 -18 8 -18 18v54c0 8 -6 14 -14 15z" />
    <glyph glyph-name="percent" unicode="%" horiz-adv-x="996" 
d="M227 427c-103 0 -183 83 -183 184c0 102 80 183 183 183s183 -81 183 -183c0 -101 -80 -184 -183 -184zM227 741c-70 0 -130 -60 -130 -130c0 -71 60 -130 130 -130c71 0 129 59 129 130c0 70 -58 130 -129 130zM769 -11c-103 0 -183 81 -183 184s80 183 183 183
s184 -80 184 -183s-81 -184 -184 -184zM769 303c-70 0 -130 -60 -130 -130c0 -71 60 -129 130 -129c71 0 130 58 130 129c0 70 -59 130 -130 130zM801 765l-540 -750c-7 -9 -18 -15 -29 -15h-33c-8 0 -12 8 -7 15l540 750c7 9 18 15 29 15h33c8 0 12 -8 7 -15z" />
    <glyph glyph-name="ampersand" unicode="&#x26;" horiz-adv-x="770" 
d="M596 148l125 -135c4 -5 1 -13 -6 -13h-45c-11 0 -23 5 -30 13l-87 94c-6 5 -15 6 -20 1c-81 -71 -174 -123 -274 -123c-137 0 -210 85 -210 174c0 121 112 182 211 240c6 3 7 12 2 17c-60 62 -103 118 -103 197c0 104 84 182 192 182c105 0 188 -80 188 -177
c0 -100 -80 -155 -168 -210c-6 -3 -7 -12 -2 -17l168 -180c5 -5 14 -5 19 0c41 44 78 91 108 134c5 8 17 10 24 3l17 -14c8 -6 9 -18 4 -26c-32 -45 -70 -94 -113 -140c-6 -6 -6 -15 0 -20zM109 163c0 -62 54 -121 150 -121c80 0 161 46 233 109c6 5 7 14 2 19l-177 190
c-6 6 -15 7 -22 3c-98 -56 -186 -111 -186 -200zM351 742c-76 0 -135 -55 -135 -129c0 -60 38 -104 97 -165c6 -6 15 -7 22 -2c88 57 148 98 148 172c0 68 -59 124 -132 124z" />
    <glyph glyph-name="quotesingle" unicode="'" horiz-adv-x="233" 
d="M145 762l-6 -281c0 -10 -8 -18 -18 -18h-10c-10 0 -18 8 -18 18l-6 281c0 10 8 18 18 18h22c10 0 18 -8 18 -18z" />
    <glyph glyph-name="parenleft" unicode="(" horiz-adv-x="371" 
d="M58 390c0 262 114 464 238 573c7 7 19 6 25 -2l14 -18c7 -8 6 -19 -2 -26c-115 -100 -216 -283 -216 -527c0 -243 101 -426 216 -526c8 -7 9 -18 2 -26l-14 -18c-6 -8 -18 -9 -25 -2c-124 109 -238 311 -238 572z" />
    <glyph glyph-name="parenright" unicode=")" horiz-adv-x="372" 
d="M313 391c0 -262 -114 -464 -238 -573c-7 -7 -19 -6 -25 2l-14 18c-7 8 -6 19 2 26c115 100 216 283 216 527c0 243 -101 426 -216 526c-8 7 -9 18 -2 26l14 18c6 8 18 9 25 2c124 -109 238 -311 238 -572z" />
    <glyph glyph-name="asterisk" unicode="*" horiz-adv-x="527" 
d="M254 780h22c10 0 18 -8 17 -18l-6 -141c-1 -7 6 -11 12 -9l131 49c9 3 20 -2 23 -11l6 -21c3 -9 -2 -19 -11 -22l-137 -37c-6 -2 -8 -10 -4 -15l87 -109c6 -7 4 -19 -4 -25l-17 -12c-8 -6 -20 -4 -25 4l-77 118c-4 6 -12 6 -16 0l-76 -116c-5 -8 -17 -10 -25 -4l-17 12
c-8 6 -10 18 -4 25l87 110c4 5 2 13 -5 15l-134 36c-9 3 -14 13 -11 22l7 21c3 9 14 14 23 11l130 -49c6 -2 13 2 12 9l-5 139c-1 10 7 18 17 18z" />
    <glyph glyph-name="plus" unicode="+" horiz-adv-x="568" 
d="M256 407v158c0 10 8 18 18 18h20c10 0 18 -8 18 -18v-158c0 -8 6 -14 14 -14h158c10 0 18 -8 18 -18v-20c0 -10 -8 -18 -18 -18h-158c-8 0 -14 -6 -14 -14v-157c0 -10 -8 -18 -18 -18h-20c-10 0 -18 8 -18 18v157c0 8 -6 14 -14 14h-158c-10 0 -18 8 -18 18v20
c0 10 8 18 18 18h158c8 0 14 6 14 14z" />
    <glyph glyph-name="comma" unicode="," horiz-adv-x="244" 
d="M174 31c0 -71 -61 -140 -109 -182c-7 -7 -18 -6 -25 1l-1 2c-7 7 -6 18 1 25c23 23 56 58 71 99c3 8 0 14 -9 17c-18 4 -34 23 -34 46c0 28 24 51 52 51s54 -22 54 -59z" />
    <glyph glyph-name="hyphen" unicode="-" horiz-adv-x="443" 
d="M104 353h236c10 0 18 -8 18 -18v-20c0 -10 -8 -18 -18 -18h-236c-10 0 -18 8 -18 18v20c0 10 8 18 18 18z" />
    <glyph glyph-name="period" unicode="." horiz-adv-x="242" 
d="M121 -12c-28 0 -52 22 -52 51c0 28 24 51 52 51s51 -23 51 -51c0 -29 -23 -51 -51 -51z" />
    <glyph glyph-name="slash" unicode="/" horiz-adv-x="674" 
d="M39 -132l532 1044c5 10 15 16 26 16h29c8 0 14 -9 10 -16l-532 -1044c-5 -10 -15 -16 -26 -16h-29c-8 0 -14 9 -10 16z" />
    <glyph glyph-name="zero" unicode="0" horiz-adv-x="728" 
d="M363 -15c-192 0 -296 186 -296 405s104 405 296 405c193 0 298 -186 298 -405s-105 -405 -298 -405zM363 737c-148 0 -237 -153 -237 -347s89 -347 237 -347c149 0 239 153 239 347s-90 347 -239 347z" />
    <glyph glyph-name="one" unicode="1" horiz-adv-x="344" 
d="M181 706l-123 -41c-8 -3 -17 3 -17 12v26c0 11 7 20 17 24l137 47c10 4 25 6 35 6h5c10 0 18 -8 18 -18v-744c0 -10 -8 -18 -18 -18h-23c-10 0 -18 8 -18 18v679c0 7 -7 12 -13 9z" />
    <glyph glyph-name="two" unicode="2" horiz-adv-x="642" 
d="M172 59h386c10 0 18 -8 18 -18v-23c0 -10 -8 -18 -18 -18h-480c-10 0 -18 8 -18 18v9c0 11 5 23 13 31l296 287c77 75 141 134 141 220c0 107 -82 172 -183 172c-102 0 -199 -57 -199 -191c0 -10 -5 -13 -10 -13h-37c-6 0 -11 3 -11 13c0 174 133 249 257 249
c129 0 242 -87 242 -230c0 -112 -84 -189 -161 -264l-240 -232c-4 -4 -1 -10 4 -10z" />
    <glyph glyph-name="three" unicode="3" horiz-adv-x="630" 
d="M301 -15c-69 0 -147 19 -226 65c-8 4 -11 16 -5 24l11 19c6 8 17 11 25 6c72 -41 135 -56 194 -56c120 0 205 72 205 164c0 99 -99 168 -261 173c-10 0 -18 8 -18 18v16c0 10 8 18 18 18c166 6 236 94 236 167c0 85 -77 140 -172 140c-86 0 -156 -46 -167 -111
c-2 -11 -10 -20 -22 -19h-20c-9 1 -17 13 -16 22c11 91 106 164 225 164c121 0 230 -72 230 -191c0 -71 -47 -149 -149 -191c-4 -2 -4 -8 0 -9c109 -35 176 -106 176 -200c0 -126 -117 -219 -264 -219z" />
    <glyph glyph-name="four" unicode="4" horiz-adv-x="678" 
d="M524 151v-133c0 -10 -8 -18 -18 -18h-22c-10 0 -18 8 -18 18v133c0 8 -6 14 -14 14h-396c-10 0 -18 8 -18 18v8c0 11 4 24 9 34l301 539c6 10 16 16 27 16h31c8 0 13 -9 9 -16l-297 -530c-3 -5 1 -12 7 -12h327c8 0 14 6 14 14v183c0 10 8 18 18 18h22c10 0 18 -8 18 -18
v-183c0 -8 6 -14 14 -14h81c10 0 18 -8 18 -18v-21c0 -10 -8 -18 -18 -18h-81c-8 0 -14 -6 -14 -14z" />
    <glyph glyph-name="five" unicode="5" horiz-adv-x="662" 
d="M183 780h353c10 0 18 -8 18 -18v-23c0 -10 -8 -18 -18 -18h-311c-8 0 -15 -6 -16 -14l-46 -279c-1 -5 5 -8 9 -5c31 24 94 60 179 60c156 0 257 -111 257 -243c0 -144 -120 -255 -278 -255c-118 0 -217 62 -273 149c-5 7 -2 19 6 24l20 11c9 5 20 2 26 -6
c48 -72 125 -120 220 -120c127 0 220 86 220 198c0 99 -75 188 -204 188c-61 0 -124 -20 -188 -79c-8 -8 -20 -10 -30 -5l-18 8c-9 4 -15 14 -13 25l66 384c2 10 11 18 21 18z" />
    <glyph glyph-name="six" unicode="6" horiz-adv-x="653" 
d="M395 780h37c8 0 12 -8 7 -15l-183 -250c-2 -3 1 -8 5 -6c24 7 49 11 75 11c148 0 267 -115 267 -265c0 -149 -122 -270 -273 -270c-150 0 -270 121 -270 269c0 62 19 119 54 168l252 343c7 9 18 15 29 15zM330 470c-71 0 -132 -34 -171 -87c-27 -37 -41 -78 -41 -127
c0 -119 94 -213 212 -213c120 0 215 94 215 212c0 120 -95 215 -215 215z" />
    <glyph glyph-name="seven" unicode="7" horiz-adv-x="597" 
d="M490 721h-425c-10 0 -18 8 -18 18v23c0 10 8 18 18 18h490c10 0 18 -8 18 -18v-11c0 -11 -3 -25 -8 -34l-346 -701c-5 -10 -15 -16 -26 -16h-31c-8 0 -14 9 -10 16l346 692c3 6 -1 13 -8 13z" />
    <glyph glyph-name="eight" unicode="8" horiz-adv-x="680" 
d="M339 -15c-149 0 -275 95 -275 226c0 93 61 165 148 200c5 2 5 8 0 11c-69 32 -117 92 -117 170c0 117 113 203 244 203c132 0 246 -86 246 -203c0 -78 -49 -138 -119 -170c-5 -3 -5 -9 0 -11c87 -35 149 -107 149 -200c0 -131 -127 -226 -276 -226zM339 390
c-121 0 -215 -76 -215 -176c0 -99 94 -175 215 -175s216 76 216 175c0 100 -95 176 -216 176zM339 742c-104 0 -185 -67 -185 -151c0 -86 81 -152 185 -152c105 0 187 66 187 152c0 84 -82 151 -187 151z" />
    <glyph glyph-name="nine" unicode="9" horiz-adv-x="653" 
d="M258 0h-37c-8 0 -12 8 -7 15l183 250c2 3 -1 8 -5 6c-24 -7 -49 -11 -75 -11c-148 0 -267 115 -267 265c0 149 122 270 273 270c150 0 270 -121 270 -269c0 -62 -19 -119 -54 -168l-252 -343c-7 -9 -18 -15 -29 -15zM323 310c71 0 132 34 171 87c27 37 41 78 41 127
c0 119 -94 213 -212 213c-120 0 -215 -94 -215 -212c0 -120 95 -215 215 -215z" />
    <glyph glyph-name="colon" unicode=":" horiz-adv-x="280" 
d="M140 -12c-28 0 -52 22 -52 51c0 28 24 51 52 51s51 -23 51 -51c0 -29 -23 -51 -51 -51zM140 345c-28 0 -52 22 -52 51c0 28 24 51 52 51s51 -23 51 -51c0 -29 -23 -51 -51 -51z" />
    <glyph glyph-name="semicolon" unicode=";" horiz-adv-x="341" 
d="M232 31c0 -71 -61 -140 -109 -182c-7 -7 -18 -6 -25 1l-1 2c-7 7 -6 18 1 25c23 23 56 58 71 99c3 8 0 14 -9 17c-18 4 -34 23 -34 46c0 28 24 51 52 51s54 -22 54 -59zM181 345c-28 0 -52 22 -52 51c0 28 24 51 52 51s51 -23 51 -51c0 -29 -23 -51 -51 -51z" />
    <glyph glyph-name="less" unicode="&#x3c;" horiz-adv-x="601" 
d="M489 128l-419 205c-10 5 -16 15 -16 26v14c0 11 6 21 16 26l419 205c7 4 16 -2 16 -10v-28c0 -11 -6 -21 -16 -26l-349 -168c-6 -2 -6 -10 0 -12l349 -168c10 -5 16 -15 16 -26v-28c0 -8 -9 -14 -16 -10z" />
    <glyph glyph-name="equal" unicode="=" horiz-adv-x="618" 
d="M508 466h-399c-10 0 -18 8 -18 18v20c0 10 8 18 18 18h399c10 0 18 -8 18 -18v-20c0 -10 -8 -18 -18 -18zM508 211h-399c-10 0 -18 8 -18 18v19c0 10 8 18 18 18h399c10 0 18 -8 18 -18v-19c0 -10 -8 -18 -18 -18z" />
    <glyph glyph-name="greater" unicode="&#x3e;" horiz-adv-x="601" 
d="M112 604l419 -205c10 -5 16 -15 16 -26v-14c0 -11 -6 -21 -16 -26l-419 -205c-7 -4 -16 2 -16 10v28c0 11 6 21 16 26l349 168c6 2 6 10 0 12l-349 168c-10 5 -16 15 -16 26v28c0 8 9 14 16 10z" />
    <glyph glyph-name="question" unicode="?" horiz-adv-x="532" 
d="M260 293v-16c0 -8 -6 -14 -14 -14h-22c-9 0 -17 8 -17 17v19c0 80 59 121 114 159c54 38 99 73 99 144c0 81 -62 136 -150 136c-79 0 -159 -47 -159 -135v-11c0 -6 -4 -10 -9 -10h-37c-7 0 -12 5 -12 12v13c0 123 115 187 218 187c114 0 208 -73 208 -191
c0 -95 -62 -144 -120 -184c-52 -37 -99 -67 -99 -126zM234 -12c-28 0 -52 22 -52 51c0 28 24 51 52 51s51 -23 51 -51c0 -29 -23 -51 -51 -51z" />
    <glyph glyph-name="at" unicode="@" horiz-adv-x="994" 
d="M486 185c-106 0 -186 84 -186 188c0 119 104 218 222 218c106 0 186 -84 186 -188c0 -43 -13 -82 -36 -116c-4 -6 -5 -16 -1 -23c15 -29 46 -50 85 -50c57 0 140 51 140 202c0 203 -154 364 -359 364c-229 0 -426 -189 -426 -421c0 -200 153 -362 358 -362
c58 0 118 13 173 38c9 5 20 1 25 -8l6 -9c5 -8 1 -19 -7 -23c-62 -29 -130 -45 -201 -45c-231 0 -403 180 -403 406c0 260 221 474 479 474c231 0 405 -182 405 -410c0 -185 -107 -254 -189 -254c-52 0 -95 24 -120 61c-4 7 -12 8 -18 3c-38 -28 -84 -45 -133 -45zM517 542
c-90 0 -168 -75 -168 -165c0 -80 60 -143 141 -143c90 0 169 75 169 165c0 80 -61 143 -142 143z" />
    <glyph glyph-name="A" unicode="A" horiz-adv-x="808" 
d="M22 16l342 748c5 9 15 16 26 16h28c11 0 21 -7 26 -16l342 -748c4 -7 -1 -16 -10 -16h-29c-11 0 -21 7 -25 16l-67 147c-4 8 -12 13 -20 13h-462c-8 0 -16 -5 -20 -13l-66 -147c-4 -9 -14 -16 -25 -16h-30c-9 0 -14 9 -10 16zM617 245l-207 458c-3 5 -9 5 -12 0
l-207 -458c-3 -6 1 -13 8 -13h410c7 0 11 7 8 13z" />
    <glyph glyph-name="B" unicode="B" horiz-adv-x="788" 
d="M498 0h-368c-10 0 -18 8 -18 18v744c0 10 8 18 18 18h334c151 0 229 -94 229 -201c0 -76 -41 -141 -105 -174c-5 -3 -5 -9 0 -10c85 -31 137 -102 137 -187c0 -112 -89 -208 -227 -208zM665 214c0 82 -65 156 -172 156h-308c-8 0 -14 -6 -14 -14v-287c0 -8 6 -14 14 -14
h308c107 0 172 76 172 159zM633 573c0 79 -58 151 -172 151h-276c-8 0 -14 -6 -14 -14v-276c0 -8 6 -14 14 -14h292c95 0 156 73 156 153z" />
    <glyph glyph-name="C" unicode="C" horiz-adv-x="859" 
d="M463 44c119 0 224 60 286 153c6 8 17 11 26 6l21 -12c9 -4 11 -16 6 -23c-72 -110 -197 -183 -339 -183c-225 0 -407 181 -407 405c0 223 182 405 407 405c141 0 266 -73 338 -183c5 -7 3 -19 -6 -23l-20 -11c-9 -5 -20 -3 -26 6c-63 92 -167 152 -286 152
c-191 0 -347 -156 -347 -346c0 -191 156 -346 347 -346z" />
    <glyph glyph-name="D" unicode="D" horiz-adv-x="841" 
d="M417 0h-287c-10 0 -18 8 -18 18v744c0 10 8 18 18 18h287c237 0 363 -172 363 -390c0 -219 -126 -390 -363 -390zM721 390c0 189 -110 332 -307 332h-229c-8 0 -14 -6 -14 -14v-636c0 -8 6 -14 14 -14h229c197 0 307 143 307 332z" />
    <glyph glyph-name="E" unicode="E" horiz-adv-x="710" 
d="M630 0h-500c-10 0 -18 8 -18 18v744c0 10 8 18 18 18h500c10 0 18 -8 18 -18v-22c0 -10 -8 -18 -18 -18h-445c-8 0 -14 -6 -14 -14v-283c0 -8 6 -14 14 -14h374c10 0 18 -8 18 -18v-20c0 -10 -8 -18 -18 -18h-374c-8 0 -14 -6 -14 -14v-269c0 -8 6 -14 14 -14h445
c10 0 18 -8 18 -18v-22c0 -10 -8 -18 -18 -18z" />
    <glyph glyph-name="F" unicode="F" horiz-adv-x="685" 
d="M153 0h-23c-10 0 -18 8 -18 18v744c0 10 8 18 18 18h480c10 0 18 -8 18 -18v-22c0 -10 -8 -18 -18 -18h-425c-8 0 -14 -6 -14 -14v-309c0 -8 6 -14 14 -14h364c10 0 18 -8 18 -18v-20c0 -10 -8 -18 -18 -18h-364c-8 0 -14 -6 -14 -14v-297c0 -10 -8 -18 -18 -18z" />
    <glyph glyph-name="G" unicode="G" horiz-adv-x="884" 
d="M743 349h-253c-10 0 -18 8 -18 18v16c0 10 8 18 18 18h305c10 0 18 -8 18 -18v-365c0 -10 -8 -18 -18 -18h-14c-10 0 -18 8 -18 18v78c0 6 -1 18 -1 24l-1 2c0 4 -5 6 -8 2c-65 -86 -172 -139 -290 -139c-225 0 -407 181 -407 405c0 223 182 405 407 405
c127 0 240 -59 315 -151c6 -7 4 -19 -4 -24l-19 -13c-8 -6 -19 -5 -26 3c-64 77 -160 126 -266 126c-191 0 -347 -156 -347 -346c0 -191 156 -346 347 -346c119 0 224 61 287 155c4 7 7 17 7 25v111c0 8 -6 14 -14 14z" />
    <glyph glyph-name="H" unicode="H" horiz-adv-x="878" 
d="M707 425v337c0 10 8 18 18 18h23c10 0 18 -8 18 -18v-744c0 -10 -8 -18 -18 -18h-23c-10 0 -18 8 -18 18v323c0 8 -6 14 -14 14h-508c-8 0 -14 -6 -14 -14v-323c0 -10 -8 -18 -18 -18h-23c-10 0 -18 8 -18 18v744c0 10 8 18 18 18h23c10 0 18 -8 18 -18v-337
c0 -8 6 -14 14 -14h508c8 0 14 6 14 14z" />
    <glyph glyph-name="I" unicode="I" horiz-adv-x="282" 
d="M112 18v744c0 10 8 18 18 18h23c10 0 18 -8 18 -18v-744c0 -10 -8 -18 -18 -18h-23c-10 0 -18 8 -18 18z" />
    <glyph glyph-name="J" unicode="J" horiz-adv-x="681" 
d="M519 260v502c0 10 8 18 18 18h23c10 0 18 -8 18 -18v-502c0 -180 -123 -275 -266 -275s-268 95 -268 275v48c0 10 8 18 18 18h24c10 0 18 -8 18 -18v-48c0 -147 97 -217 208 -217c109 0 207 70 207 217z" />
    <glyph glyph-name="K" unicode="K" horiz-adv-x="778" 
d="M153 0h-23c-10 0 -18 8 -18 18v744c0 10 8 18 18 18h23c10 0 18 -8 18 -18v-444c0 -5 6 -8 10 -4l480 454c8 7 20 12 31 12h44c7 0 10 -8 5 -12l-316 -300c-5 -6 -6 -15 -1 -21l333 -433c5 -6 0 -14 -7 -14h-39c-11 0 -22 6 -29 14l-302 391c-5 6 -14 6 -19 1l-180 -170
c-6 -6 -10 -15 -10 -24v-194c0 -10 -8 -18 -18 -18z" />
    <glyph glyph-name="L" unicode="L" horiz-adv-x="655" 
d="M604 0h-474c-10 0 -18 8 -18 18v744c0 10 8 18 18 18h23c10 0 18 -8 18 -18v-690c0 -8 6 -14 14 -14h419c10 0 18 -8 18 -18v-22c0 -10 -8 -18 -18 -18z" />
    <glyph glyph-name="M" unicode="M" horiz-adv-x="1015" 
d="M171 651v-633c0 -10 -8 -18 -18 -18h-23c-10 0 -18 8 -18 18v744c0 10 8 18 18 18h20c11 0 22 -6 27 -16l324 -549c3 -5 11 -5 14 0l324 549c5 10 16 16 27 16h20c10 0 18 -8 18 -18v-744c0 -10 -8 -18 -18 -18h-23c-10 0 -18 8 -18 18v635c0 4 -5 5 -7 2l-301 -509
c-5 -9 -16 -15 -27 -15h-5c-11 0 -22 6 -27 15l-300 507c-2 3 -7 2 -7 -2z" />
    <glyph glyph-name="N" unicode="N" horiz-adv-x="875" 
d="M171 664v-646c0 -10 -8 -18 -18 -18h-23c-10 0 -18 8 -18 18v744c0 10 8 18 18 18h17c11 0 22 -6 29 -14l520 -654c3 -4 9 -2 9 3v647c0 10 8 18 18 18h23c10 0 18 -8 18 -18v-744c0 -10 -8 -18 -18 -18h-17c-11 0 -22 5 -29 14l-520 653c-3 4 -9 2 -9 -3z" />
    <glyph glyph-name="O" unicode="O" 
d="M463 -15c-225 0 -407 181 -407 405c0 223 182 405 407 405c224 0 406 -182 406 -405c0 -224 -182 -405 -406 -405zM463 736c-191 0 -347 -156 -347 -346c0 -191 156 -346 347 -346c190 0 346 155 346 346c0 190 -156 346 -346 346z" />
    <glyph glyph-name="P" unicode="P" horiz-adv-x="742" 
d="M153 0h-23c-10 0 -18 8 -18 18v744c0 10 8 18 18 18h283c182 0 286 -124 286 -269c0 -142 -104 -268 -286 -268h-228c-8 0 -14 -6 -14 -14v-211c0 -10 -8 -18 -18 -18zM639 511c0 115 -83 213 -228 213h-226c-8 0 -14 -6 -14 -14v-397c0 -8 6 -14 14 -14h226
c145 0 228 102 228 212z" />
    <glyph glyph-name="Q" unicode="Q" horiz-adv-x="922" 
d="M413 -12c-201 23 -357 194 -357 402c0 223 181 405 405 405c223 0 405 -182 405 -405c0 -183 -121 -337 -287 -387c-5 -2 -5 -8 -1 -10c99 -51 199 -119 281 -119c38 0 71 11 98 40c7 8 17 9 26 2l18 -15c7 -6 8 -18 2 -25c-43 -47 -98 -60 -143 -60
c-154 0 -315 164 -447 172zM461 736c-190 0 -345 -156 -345 -346c0 -191 155 -346 345 -346c189 0 344 155 344 346c0 190 -155 346 -344 346z" />
    <glyph glyph-name="R" unicode="R" horiz-adv-x="794" 
d="M112 18v744c0 10 8 18 18 18h326c169 0 266 -116 266 -251c0 -106 -59 -199 -165 -237c-6 -2 -9 -10 -5 -16l187 -261c4 -7 0 -15 -8 -15h-36c-11 0 -22 6 -28 15l-180 253c-5 5 -10 8 -18 8h-13h-271c-8 0 -14 -6 -14 -14v-244c0 -10 -8 -18 -18 -18h-23
c-10 0 -18 8 -18 18zM664 528c0 103 -74 196 -210 196h-269c-8 0 -14 -6 -14 -14v-364c0 -8 6 -14 14 -14h269c136 0 210 92 210 196z" />
    <glyph glyph-name="S" unicode="S" horiz-adv-x="704" 
d="M362 -15c-169 0 -293 76 -302 188c-1 11 9 23 20 22h17c12 -1 20 -9 21 -20c12 -79 103 -135 244 -135c145 0 223 61 223 145c0 102 -110 138 -242 178c-127 39 -278 87 -278 228c0 122 108 204 277 204c163 0 283 -77 291 -189c1 -9 -7 -22 -16 -22h-22
c-11 0 -19 9 -20 20c-11 80 -98 136 -233 136c-139 0 -215 -61 -215 -145c0 -100 106 -135 233 -175c125 -38 288 -86 288 -232c0 -123 -113 -203 -286 -203z" />
    <glyph glyph-name="T" unicode="T" horiz-adv-x="676" 
d="M294 722h-249c-10 0 -18 8 -18 18v22c0 10 8 18 18 18h586c10 0 18 -8 18 -18v-22c0 -10 -8 -18 -18 -18h-250c-8 0 -14 -6 -14 -14v-690c0 -10 -8 -18 -18 -18h-23c-10 0 -18 8 -18 18v690c0 8 -6 14 -14 14z" />
    <glyph glyph-name="U" unicode="U" horiz-adv-x="856" 
d="M696 297v465c0 10 8 18 18 18h23c10 0 18 -8 18 -18v-467c0 -175 -114 -310 -327 -310s-327 135 -327 310v467c0 10 8 18 18 18h23c10 0 18 -8 18 -18v-465c0 -147 94 -254 268 -254c175 0 268 107 268 254z" />
    <glyph glyph-name="V" unicode="V" horiz-adv-x="808" 
d="M786 764l-342 -748c-5 -9 -15 -16 -26 -16h-27c-11 0 -21 7 -26 16l-343 748c-4 7 1 16 10 16h30c11 0 21 -7 25 -16l311 -688c3 -5 9 -5 12 0l312 688c4 9 14 16 25 16h29c9 0 14 -9 10 -16z" />
    <glyph glyph-name="W" unicode="W" horiz-adv-x="1133" 
d="M562 672l-216 -655c-4 -10 -13 -17 -24 -17h-29c-11 0 -20 7 -24 17l-239 746c-3 8 3 17 12 17h28c11 0 20 -7 23 -17l211 -662c1 -4 7 -4 8 0l219 662c4 10 13 17 24 17h22c11 0 20 -7 24 -17l219 -662c1 -4 7 -4 8 0l212 662c3 10 12 17 23 17h28c9 0 15 -9 12 -17
l-239 -746c-4 -10 -13 -17 -24 -17h-29c-11 0 -20 7 -24 17l-217 655c-1 4 -7 4 -8 0z" />
    <glyph glyph-name="X" unicode="X" horiz-adv-x="751" 
d="M384 448l261 318c7 9 18 14 29 14h36c7 0 11 -8 7 -14l-296 -362c-5 -6 -5 -16 0 -22l302 -368c4 -6 0 -14 -7 -14h-37c-11 0 -22 5 -29 14l-265 324c-5 6 -13 6 -18 0l-265 -324c-7 -9 -18 -14 -29 -14h-38c-7 0 -11 8 -7 14l302 368c5 6 5 16 0 22l-296 362
c-4 6 0 14 7 14h36c11 0 22 -5 29 -14l260 -318c5 -6 13 -6 18 0z" />
    <glyph glyph-name="Y" unicode="Y" horiz-adv-x="793" 
d="M32 780h35c11 0 22 -6 28 -15l293 -409c4 -5 12 -5 16 0l294 409c6 9 17 15 28 15h35c8 0 12 -8 8 -15l-335 -468c-5 -7 -8 -17 -8 -25v-254c0 -10 -8 -18 -18 -18h-23c-10 0 -18 8 -18 18v253c0 8 -3 18 -8 25l-335 469c-4 7 0 15 8 15z" />
    <glyph glyph-name="Z" unicode="Z" horiz-adv-x="680" 
d="M541 722h-473c-10 0 -18 8 -18 18v22c0 10 8 18 18 18h554c10 0 18 -8 18 -18v-9c0 -11 -4 -24 -11 -32l-503 -652c-4 -5 -1 -11 5 -11h489c10 0 18 -8 18 -18v-22c0 -10 -8 -18 -18 -18h-569c-10 0 -18 8 -18 18v9c0 11 4 24 11 32l502 652c4 5 1 11 -5 11z" />
    <glyph glyph-name="bracketleft" unicode="[" horiz-adv-x="366" 
d="M163 -129h150c10 0 18 -8 18 -18v-21c0 -10 -8 -18 -18 -18h-205c-10 0 -18 8 -18 18v1117c0 10 8 18 18 18h205c10 0 18 -8 18 -18v-21c0 -10 -8 -18 -18 -18h-150c-8 0 -14 -6 -14 -14v-1011c0 -8 6 -14 14 -14z" />
    <glyph glyph-name="backslash" unicode="\" horiz-adv-x="674" 
d="M104 911l532 -1044c4 -7 -2 -16 -10 -16h-29c-11 0 -21 6 -26 16l-532 1044c-4 7 2 16 10 16h29c11 0 21 -6 26 -16z" />
    <glyph glyph-name="bracketright" unicode="]" horiz-adv-x="366" 
d="M203 910h-150c-10 0 -18 8 -18 18v21c0 10 8 18 18 18h205c10 0 18 -8 18 -18v-1117c0 -10 -8 -18 -18 -18h-205c-10 0 -18 8 -18 18v21c0 10 8 18 18 18h150c8 0 14 6 14 14v1011c0 8 -6 14 -14 14z" />
    <glyph glyph-name="underscore" unicode="_" horiz-adv-x="627" 
d="M57 -80h513c10 0 18 -8 18 -18v-18c0 -10 -8 -18 -18 -18h-513c-10 0 -18 8 -18 18v18c0 10 8 18 18 18z" />
    <glyph glyph-name="a" unicode="a" horiz-adv-x="808" 
d="M22 16l342 748c5 9 15 16 26 16h28c11 0 21 -7 26 -16l342 -748c4 -7 -1 -16 -10 -16h-29c-11 0 -21 7 -25 16l-67 147c-4 8 -12 13 -20 13h-462c-8 0 -16 -5 -20 -13l-66 -147c-4 -9 -14 -16 -25 -16h-30c-9 0 -14 9 -10 16zM617 245l-207 458c-3 5 -9 5 -12 0
l-207 -458c-3 -6 1 -13 8 -13h410c7 0 11 7 8 13z" />
    <glyph glyph-name="b" unicode="b" horiz-adv-x="788" 
d="M498 0h-368c-10 0 -18 8 -18 18v744c0 10 8 18 18 18h334c151 0 229 -94 229 -201c0 -76 -41 -141 -105 -174c-5 -3 -5 -9 0 -10c85 -31 137 -102 137 -187c0 -112 -89 -208 -227 -208zM665 214c0 82 -65 156 -172 156h-308c-8 0 -14 -6 -14 -14v-287c0 -8 6 -14 14 -14
h308c107 0 172 76 172 159zM633 573c0 79 -58 151 -172 151h-276c-8 0 -14 -6 -14 -14v-276c0 -8 6 -14 14 -14h292c95 0 156 73 156 153z" />
    <glyph glyph-name="c" unicode="c" horiz-adv-x="859" 
d="M463 44c119 0 224 60 286 153c6 8 17 11 26 6l21 -12c9 -4 11 -16 6 -23c-72 -110 -197 -183 -339 -183c-225 0 -407 181 -407 405c0 223 182 405 407 405c141 0 266 -73 338 -183c5 -7 3 -19 -6 -23l-20 -11c-9 -5 -20 -3 -26 6c-63 92 -167 152 -286 152
c-191 0 -347 -156 -347 -346c0 -191 156 -346 347 -346z" />
    <glyph glyph-name="d" unicode="d" horiz-adv-x="841" 
d="M417 0h-287c-10 0 -18 8 -18 18v744c0 10 8 18 18 18h287c237 0 363 -172 363 -390c0 -219 -126 -390 -363 -390zM721 390c0 189 -110 332 -307 332h-229c-8 0 -14 -6 -14 -14v-636c0 -8 6 -14 14 -14h229c197 0 307 143 307 332z" />
    <glyph glyph-name="e" unicode="e" horiz-adv-x="710" 
d="M630 0h-500c-10 0 -18 8 -18 18v744c0 10 8 18 18 18h500c10 0 18 -8 18 -18v-22c0 -10 -8 -18 -18 -18h-445c-8 0 -14 -6 -14 -14v-283c0 -8 6 -14 14 -14h374c10 0 18 -8 18 -18v-20c0 -10 -8 -18 -18 -18h-374c-8 0 -14 -6 -14 -14v-269c0 -8 6 -14 14 -14h445
c10 0 18 -8 18 -18v-22c0 -10 -8 -18 -18 -18z" />
    <glyph glyph-name="f" unicode="f" horiz-adv-x="685" 
d="M153 0h-23c-10 0 -18 8 -18 18v744c0 10 8 18 18 18h480c10 0 18 -8 18 -18v-22c0 -10 -8 -18 -18 -18h-425c-8 0 -14 -6 -14 -14v-309c0 -8 6 -14 14 -14h364c10 0 18 -8 18 -18v-20c0 -10 -8 -18 -18 -18h-364c-8 0 -14 -6 -14 -14v-297c0 -10 -8 -18 -18 -18z" />
    <glyph glyph-name="g" unicode="g" horiz-adv-x="884" 
d="M743 349h-253c-10 0 -18 8 -18 18v16c0 10 8 18 18 18h305c10 0 18 -8 18 -18v-365c0 -10 -8 -18 -18 -18h-14c-10 0 -18 8 -18 18v78c0 6 -1 18 -1 24l-1 2c0 4 -5 6 -8 2c-65 -86 -172 -139 -290 -139c-225 0 -407 181 -407 405c0 223 182 405 407 405
c127 0 240 -59 315 -151c6 -7 4 -19 -4 -24l-19 -13c-8 -6 -19 -5 -26 3c-64 77 -160 126 -266 126c-191 0 -347 -156 -347 -346c0 -191 156 -346 347 -346c119 0 224 61 287 155c4 7 7 17 7 25v111c0 8 -6 14 -14 14z" />
    <glyph glyph-name="h" unicode="h" horiz-adv-x="878" 
d="M707 425v337c0 10 8 18 18 18h23c10 0 18 -8 18 -18v-744c0 -10 -8 -18 -18 -18h-23c-10 0 -18 8 -18 18v323c0 8 -6 14 -14 14h-508c-8 0 -14 -6 -14 -14v-323c0 -10 -8 -18 -18 -18h-23c-10 0 -18 8 -18 18v744c0 10 8 18 18 18h23c10 0 18 -8 18 -18v-337
c0 -8 6 -14 14 -14h508c8 0 14 6 14 14z" />
    <glyph glyph-name="i" unicode="i" horiz-adv-x="282" 
d="M112 18v744c0 10 8 18 18 18h23c10 0 18 -8 18 -18v-744c0 -10 -8 -18 -18 -18h-23c-10 0 -18 8 -18 18z" />
    <glyph glyph-name="j" unicode="j" horiz-adv-x="681" 
d="M519 260v502c0 10 8 18 18 18h23c10 0 18 -8 18 -18v-502c0 -180 -123 -275 -266 -275s-268 95 -268 275v48c0 10 8 18 18 18h24c10 0 18 -8 18 -18v-48c0 -147 97 -217 208 -217c109 0 207 70 207 217z" />
    <glyph glyph-name="k" unicode="k" horiz-adv-x="778" 
d="M153 0h-23c-10 0 -18 8 -18 18v744c0 10 8 18 18 18h23c10 0 18 -8 18 -18v-444c0 -5 6 -8 10 -4l480 454c8 7 20 12 31 12h44c7 0 10 -8 5 -12l-316 -300c-5 -6 -6 -15 -1 -21l333 -433c5 -6 0 -14 -7 -14h-39c-11 0 -22 6 -29 14l-302 391c-5 6 -14 6 -19 1l-180 -170
c-6 -6 -10 -15 -10 -24v-194c0 -10 -8 -18 -18 -18z" />
    <glyph glyph-name="l" unicode="l" horiz-adv-x="655" 
d="M604 0h-474c-10 0 -18 8 -18 18v744c0 10 8 18 18 18h23c10 0 18 -8 18 -18v-690c0 -8 6 -14 14 -14h419c10 0 18 -8 18 -18v-22c0 -10 -8 -18 -18 -18z" />
    <glyph glyph-name="m" unicode="m" horiz-adv-x="1015" 
d="M171 651v-633c0 -10 -8 -18 -18 -18h-23c-10 0 -18 8 -18 18v744c0 10 8 18 18 18h20c11 0 22 -6 27 -16l324 -549c3 -5 11 -5 14 0l324 549c5 10 16 16 27 16h20c10 0 18 -8 18 -18v-744c0 -10 -8 -18 -18 -18h-23c-10 0 -18 8 -18 18v635c0 4 -5 5 -7 2l-301 -509
c-5 -9 -16 -15 -27 -15h-5c-11 0 -22 6 -27 15l-300 507c-2 3 -7 2 -7 -2z" />
    <glyph glyph-name="n" unicode="n" horiz-adv-x="877" 
d="M171 665v-647c0 -10 -8 -18 -18 -18h-23c-10 0 -18 8 -18 18v744c0 10 8 18 18 18h17c11 0 22 -5 29 -14l520 -653c3 -4 9 -2 9 3v646c0 10 8 18 18 18h24c10 0 18 -8 18 -18v-744c0 -10 -8 -18 -18 -18h-18c-11 0 -22 6 -29 14l-520 654c-3 4 -9 2 -9 -3z" />
    <glyph glyph-name="o" unicode="o" 
d="M463 -15c-225 0 -407 181 -407 405c0 223 182 405 407 405c224 0 406 -182 406 -405c0 -224 -182 -405 -406 -405zM463 736c-191 0 -347 -156 -347 -346c0 -191 156 -346 347 -346c190 0 346 155 346 346c0 190 -156 346 -346 346z" />
    <glyph glyph-name="p" unicode="p" horiz-adv-x="742" 
d="M153 0h-23c-10 0 -18 8 -18 18v744c0 10 8 18 18 18h283c182 0 286 -124 286 -269c0 -142 -104 -268 -286 -268h-228c-8 0 -14 -6 -14 -14v-211c0 -10 -8 -18 -18 -18zM639 511c0 115 -83 213 -228 213h-226c-8 0 -14 -6 -14 -14v-397c0 -8 6 -14 14 -14h226
c145 0 228 102 228 212z" />
    <glyph glyph-name="q" unicode="q" horiz-adv-x="922" 
d="M413 -12c-201 23 -357 194 -357 402c0 223 181 405 405 405c223 0 405 -182 405 -405c0 -183 -121 -337 -287 -387c-5 -2 -5 -8 -1 -10c99 -51 199 -119 281 -119c38 0 71 11 98 40c7 8 17 9 26 2l18 -15c7 -6 8 -18 2 -25c-43 -47 -98 -60 -143 -60
c-154 0 -315 164 -447 172zM461 736c-190 0 -345 -156 -345 -346c0 -191 155 -346 345 -346c189 0 344 155 344 346c0 190 -155 346 -344 346z" />
    <glyph glyph-name="r" unicode="r" horiz-adv-x="794" 
d="M112 18v744c0 10 8 18 18 18h326c169 0 266 -116 266 -251c0 -106 -59 -199 -165 -237c-6 -2 -9 -10 -5 -16l187 -261c4 -7 0 -15 -8 -15h-36c-11 0 -22 6 -28 15l-180 253c-5 5 -10 8 -18 8h-13h-271c-8 0 -14 -6 -14 -14v-244c0 -10 -8 -18 -18 -18h-23
c-10 0 -18 8 -18 18zM664 528c0 103 -74 196 -210 196h-269c-8 0 -14 -6 -14 -14v-364c0 -8 6 -14 14 -14h269c136 0 210 92 210 196z" />
    <glyph glyph-name="s" unicode="s" horiz-adv-x="704" 
d="M362 -15c-169 0 -293 76 -302 188c-1 11 9 23 20 22h17c12 -1 20 -9 21 -20c12 -79 103 -135 244 -135c145 0 223 61 223 145c0 102 -110 138 -242 178c-127 39 -278 87 -278 228c0 122 108 204 277 204c163 0 283 -77 291 -189c1 -9 -7 -22 -16 -22h-22
c-11 0 -19 9 -20 20c-11 80 -98 136 -233 136c-139 0 -215 -61 -215 -145c0 -100 106 -135 233 -175c125 -38 288 -86 288 -232c0 -123 -113 -203 -286 -203z" />
    <glyph glyph-name="t" unicode="t" horiz-adv-x="676" 
d="M294 722h-249c-10 0 -18 8 -18 18v22c0 10 8 18 18 18h586c10 0 18 -8 18 -18v-22c0 -10 -8 -18 -18 -18h-250c-8 0 -14 -6 -14 -14v-690c0 -10 -8 -18 -18 -18h-23c-10 0 -18 8 -18 18v690c0 8 -6 14 -14 14z" />
    <glyph glyph-name="u" unicode="u" horiz-adv-x="856" 
d="M696 297v465c0 10 8 18 18 18h23c10 0 18 -8 18 -18v-467c0 -175 -114 -310 -327 -310s-327 135 -327 310v467c0 10 8 18 18 18h23c10 0 18 -8 18 -18v-465c0 -147 94 -254 268 -254c175 0 268 107 268 254z" />
    <glyph glyph-name="v" unicode="v" horiz-adv-x="808" 
d="M786 764l-342 -748c-5 -9 -15 -16 -26 -16h-27c-11 0 -21 7 -26 16l-343 748c-4 7 1 16 10 16h30c11 0 21 -7 25 -16l311 -688c3 -5 9 -5 12 0l312 688c4 9 14 16 25 16h29c9 0 14 -9 10 -16z" />
    <glyph glyph-name="w" unicode="w" horiz-adv-x="1133" 
d="M562 672l-216 -655c-4 -10 -13 -17 -24 -17h-29c-11 0 -20 7 -24 17l-239 746c-3 8 3 17 12 17h28c11 0 20 -7 23 -17l211 -662c1 -4 7 -4 8 0l219 662c4 10 13 17 24 17h22c11 0 20 -7 24 -17l219 -662c1 -4 7 -4 8 0l212 662c3 10 12 17 23 17h28c9 0 15 -9 12 -17
l-239 -746c-4 -10 -13 -17 -24 -17h-29c-11 0 -20 7 -24 17l-217 655c-1 4 -7 4 -8 0z" />
    <glyph glyph-name="x" unicode="x" horiz-adv-x="751" 
d="M384 448l261 318c7 9 18 14 29 14h36c7 0 11 -8 7 -14l-296 -362c-5 -6 -5 -16 0 -22l302 -368c4 -6 0 -14 -7 -14h-37c-11 0 -22 5 -29 14l-265 324c-5 6 -13 6 -18 0l-265 -324c-7 -9 -18 -14 -29 -14h-38c-7 0 -11 8 -7 14l302 368c5 6 5 16 0 22l-296 362
c-4 6 0 14 7 14h36c11 0 22 -5 29 -14l260 -318c5 -6 13 -6 18 0z" />
    <glyph glyph-name="y" unicode="y" horiz-adv-x="793" 
d="M32 780h35c11 0 22 -6 28 -15l293 -409c4 -5 12 -5 16 0l294 409c6 9 17 15 28 15h35c8 0 12 -8 8 -15l-335 -468c-5 -7 -8 -17 -8 -25v-254c0 -10 -8 -18 -18 -18h-23c-10 0 -18 8 -18 18v253c0 8 -3 18 -8 25l-335 469c-4 7 0 15 8 15z" />
    <glyph glyph-name="z" unicode="z" horiz-adv-x="680" 
d="M541 722h-473c-10 0 -18 8 -18 18v22c0 10 8 18 18 18h554c10 0 18 -8 18 -18v-9c0 -11 -4 -24 -11 -32l-503 -652c-4 -5 -1 -11 5 -11h489c10 0 18 -8 18 -18v-22c0 -10 -8 -18 -18 -18h-569c-10 0 -18 8 -18 18v9c0 11 4 24 11 32l502 652c4 5 1 11 -5 11z" />
    <glyph glyph-name="braceleft" unicode="{" horiz-adv-x="337" 
d="M166 261c0 47 -32 96 -95 102c-12 1 -22 11 -21 24v10c1 11 10 19 21 20c63 6 95 55 95 102c0 81 -75 176 -75 283c0 84 49 165 175 165h12c5 0 9 -4 9 -9v-36c0 -6 -4 -10 -9 -10h-12c-96 0 -119 -62 -119 -113c0 -93 77 -190 77 -280c0 -48 -22 -94 -65 -122
c-5 -4 -6 -10 0 -14c43 -28 65 -75 65 -122c0 -89 -77 -187 -77 -279c0 -52 23 -113 119 -113h12c5 0 9 -4 9 -10v-36c0 -5 -4 -9 -9 -9h-12c-126 0 -175 80 -175 165c0 107 75 201 75 282z" />
    <glyph glyph-name="bar" unicode="|" horiz-adv-x="237" 
d="M90 -167v1115c0 10 8 18 18 18h22c10 0 18 -8 18 -18v-1115c0 -10 -8 -18 -18 -18h-22c-10 0 -18 8 -18 18z" />
    <glyph glyph-name="braceright" unicode="}" horiz-adv-x="337" 
d="M171 519c0 -47 32 -96 95 -102c12 -1 22 -11 21 -24v-10c-1 -11 -10 -19 -21 -20c-63 -6 -95 -55 -95 -102c0 -81 75 -176 75 -283c0 -84 -49 -165 -175 -165h-12c-5 0 -9 4 -9 9v36c0 6 4 10 9 10h12c96 0 119 62 119 113c0 93 -77 190 -77 280c0 48 22 94 65 122
c5 4 6 10 0 14c-43 28 -65 75 -65 122c0 89 77 187 77 279c0 52 -23 113 -119 113h-12c-5 0 -9 4 -9 10v36c0 5 4 9 9 9h12c126 0 175 -80 175 -165c0 -107 -75 -201 -75 -282z" />
    <glyph glyph-name="dagger" unicode="&#x2020;" horiz-adv-x="460" 
d="M190 709c-8 9 -13 21 -13 34c0 28 24 52 52 52s51 -24 51 -52c0 -13 -5 -25 -12 -34c-9 -10 -11 -15 -11 -28v-149c0 -8 6 -14 14 -14h117c10 0 18 -8 18 -18v-16c0 -10 -8 -18 -18 -18h-117c-8 0 -14 -6 -14 -14v-581c0 -10 -8 -18 -18 -18h-20c-10 0 -18 8 -18 18v581
c0 8 -6 14 -14 14h-115c-10 0 -18 8 -18 18v16c0 10 8 18 18 18h115c8 0 14 6 14 14v149c0 13 -2 18 -11 28z" />
    <glyph glyph-name="degree" unicode="&#xb0;" horiz-adv-x="480" 
d="M239 440c-98 0 -177 79 -177 177s79 178 177 178c99 0 179 -80 179 -178s-80 -177 -179 -177zM239 749c-73 0 -131 -59 -131 -132s58 -132 131 -132c74 0 133 59 133 132s-59 132 -133 132z" />
    <glyph glyph-name="cent" unicode="&#xa2;" horiz-adv-x="644" 
d="M341 118c71 0 133 33 173 84c6 9 17 11 26 6l21 -11c8 -5 10 -17 5 -24c-46 -60 -115 -102 -193 -112c-8 -1 -14 -7 -14 -15v-53c0 -10 -8 -18 -18 -18h-21c-10 0 -18 8 -18 18v55c0 8 -6 15 -14 16c-128 25 -225 138 -225 270s97 244 225 269c8 1 14 8 14 16v56
c0 10 8 18 18 18h21c10 0 18 -8 18 -18v-54c0 -8 6 -14 14 -15c78 -10 147 -52 192 -111c5 -7 3 -19 -5 -24l-20 -11c-9 -5 -20 -3 -26 6c-40 51 -103 84 -173 84c-121 0 -219 -97 -219 -216s98 -216 219 -216z" />
    <glyph glyph-name="section" unicode="&#xa7;" horiz-adv-x="548" 
d="M300 537c72 -26 179 -64 179 -159c0 -55 -36 -101 -101 -125c-5 -2 -5 -8 -1 -11c48 -26 82 -62 82 -119c0 -82 -70 -138 -184 -138c-105 0 -186 50 -192 150c-1 9 7 19 16 19h20c11 0 19 -7 20 -18c8 -74 66 -102 136 -102c84 0 128 41 128 92c0 60 -66 84 -155 117
c-73 26 -179 64 -179 158c0 55 36 102 101 126c5 2 6 8 1 11c-49 27 -83 62 -83 119c0 82 70 138 184 138c105 0 188 -51 193 -152c0 -9 -7 -18 -16 -18h-21c-11 0 -19 7 -20 18c-7 74 -66 103 -135 103c-85 0 -128 -41 -128 -91c0 -62 69 -87 155 -118zM421 380
c0 60 -61 83 -149 114c-5 2 -15 3 -18 3c-71 -4 -127 -41 -127 -97c0 -59 60 -83 144 -113c7 -2 19 -4 26 -3c74 6 124 43 124 96z" />
    <glyph glyph-name="bullet" unicode="&#x2022;" horiz-adv-x="453" 
d="M227 197c-72 0 -129 56 -129 128s57 128 129 128s128 -56 128 -128s-56 -128 -128 -128z" />
    <glyph glyph-name="paragraph" unicode="&#xb6;" horiz-adv-x="711" 
d="M620 762v-744c0 -10 -8 -18 -18 -18h-23c-10 0 -18 8 -18 18v692c0 8 -6 14 -14 14h-122c-8 0 -14 -6 -14 -14v-692c0 -10 -8 -18 -18 -18h-22c-10 0 -18 8 -18 18v251c0 8 -6 14 -14 14h-45c-138 0 -248 110 -248 248s110 249 248 249h308c10 0 18 -8 18 -18zM294 724
c-104 0 -190 -87 -190 -193c0 -105 86 -192 190 -192h45c8 0 14 6 14 14v357c0 8 -6 14 -14 14h-45z" />
    <glyph glyph-name="uni1E9E" unicode="&#x1e9e;" horiz-adv-x="910" 
d="M597 -16c-92 0 -181 33 -257 119c-6 7 -5 19 3 24l18 12c8 6 20 4 27 -4c65 -72 136 -96 206 -96c124 0 206 78 206 180c0 107 -107 200 -275 167c-11 -2 -22 2 -29 11l-8 12c-6 9 -4 20 3 27l237 218c5 4 3 12 -3 14c-44 18 -157 61 -283 61c-207 0 -284 -120 -284 -259
v-452c0 -10 -8 -18 -18 -18h-21c-10 0 -18 8 -18 18v455c0 164 95 312 343 312c129 0 263 -41 343 -76c9 -4 16 -14 16 -25v-13c0 -11 -5 -23 -13 -30l-211 -194c-3 -4 -1 -9 4 -9c159 14 275 -86 275 -219c0 -134 -104 -235 -261 -235z" />
    <glyph glyph-name="germandbls" unicode="&#xdf;" horiz-adv-x="910" 
d="M597 -16c-92 0 -181 33 -257 119c-6 7 -5 19 3 24l18 12c8 6 20 4 27 -4c65 -72 136 -96 206 -96c124 0 206 78 206 180c0 107 -107 200 -275 167c-11 -2 -22 2 -29 11l-8 12c-6 9 -4 20 3 27l237 218c5 4 3 12 -3 14c-44 18 -157 61 -283 61c-207 0 -284 -120 -284 -259
v-452c0 -10 -8 -18 -18 -18h-21c-10 0 -18 8 -18 18v455c0 164 95 312 343 312c129 0 263 -41 343 -76c9 -4 16 -14 16 -25v-13c0 -11 -5 -23 -13 -30l-211 -194c-3 -4 -1 -9 4 -9c159 14 275 -86 275 -219c0 -134 -104 -235 -261 -235z" />
    <glyph glyph-name="registered" unicode="&#xae;" horiz-adv-x="608" 
d="M304 309c-134 0 -243 109 -243 243s109 243 243 243s243 -109 243 -243s-109 -243 -243 -243zM304 763c-117 0 -211 -94 -211 -211s94 -211 211 -211s211 94 211 211s-94 211 -211 211zM366 516l36 -62c4 -6 -1 -14 -8 -14h-2c-10 0 -19 5 -24 14l-34 57
c-5 7 -13 12 -21 12h-52c-8 0 -14 -6 -14 -14v-55c0 -8 -6 -14 -14 -14h-2c-8 0 -14 6 -14 14v203c0 10 8 18 18 18h90c51 0 80 -35 80 -76c0 -26 -12 -51 -34 -64c-8 -4 -10 -12 -5 -19zM375 599c0 23 -19 46 -51 46h-63c-8 0 -14 -6 -14 -14v-64c0 -8 6 -14 14 -14h63
c32 0 51 23 51 46z" />
    <glyph glyph-name="copyright" unicode="&#xa9;" horiz-adv-x="935" 
d="M467 -15c-225 0 -404 179 -404 405c0 225 179 405 404 405c226 0 405 -180 405 -405c0 -226 -179 -405 -405 -405zM467 747c-196 0 -356 -161 -356 -357c0 -197 160 -356 356 -356c197 0 357 160 357 356s-160 357 -357 357zM467 238c49 0 92 23 120 58c7 9 17 11 26 5
l11 -6c8 -5 10 -17 5 -24c-36 -49 -96 -82 -162 -82c-111 0 -202 91 -202 202c0 110 91 202 202 202c66 0 126 -33 162 -82c5 -7 3 -19 -5 -24l-11 -7c-9 -6 -19 -4 -26 5c-28 35 -71 58 -120 58c-84 0 -153 -68 -153 -152c0 -85 69 -153 153 -153z" />
    <glyph glyph-name="trademark" unicode="&#x2122;" horiz-adv-x="826" 
d="M732 762v-265c0 -10 -8 -18 -18 -18h-11c-10 0 -18 8 -18 18v194c0 4 -5 6 -7 2l-99 -164c-5 -7 -14 -12 -22 -12h-2c-9 0 -18 5 -23 12l-99 164c-2 4 -7 2 -7 -2v-194c0 -10 -8 -18 -18 -18h-11c-10 0 -18 8 -18 18v265c0 10 8 18 18 18h14c11 0 22 -6 27 -15l110 -182
c3 -6 11 -6 14 0l111 182c5 9 16 15 27 15h14c10 0 18 -8 18 -18zM152 733h-79c-10 0 -18 8 -18 18v11c0 10 8 18 18 18h233c10 0 18 -8 18 -18v-11c0 -10 -8 -18 -18 -18h-79c-8 0 -14 -6 -14 -14v-222c0 -10 -8 -18 -18 -18h-11c-10 0 -18 8 -18 18v222c0 8 -6 14 -14 14z
" />
    <glyph glyph-name="dieresis" unicode="&#xa8;" horiz-adv-x="310" 
d="M46 878c-25 0 -46 20 -46 45s21 46 46 46s45 -21 45 -46s-20 -45 -45 -45zM264 878c-25 0 -46 20 -46 45s21 46 46 46s46 -21 46 -46s-21 -45 -46 -45z" />
    <glyph glyph-name="AE" unicode="&#xc6;" horiz-adv-x="1249" 
d="M1168 0h-500c-10 0 -18 8 -18 18v144c0 8 -6 14 -14 14h-395c-9 0 -17 -4 -23 -11l-122 -151c-7 -9 -18 -14 -29 -14h-41c-7 0 -11 8 -7 14l610 752c7 9 18 14 29 14h510c10 0 18 -8 18 -18v-22c0 -10 -8 -18 -18 -18h-445c-8 0 -14 -6 -14 -14v-283c0 -8 6 -14 14 -14
h374c10 0 18 -8 18 -18v-20c0 -10 -8 -18 -18 -18h-374c-8 0 -14 -6 -14 -14v-269c0 -8 6 -14 14 -14h445c10 0 18 -8 18 -18v-22c0 -10 -8 -18 -18 -18zM641 688l-360 -445c-4 -5 -1 -11 5 -11h350c8 0 14 6 14 14v439c0 5 -6 7 -9 3z" />
    <glyph glyph-name="plusminus" unicode="&#xb1;" horiz-adv-x="616" 
d="M280 416v158c0 10 8 18 18 18h20c10 0 18 -8 18 -18v-158c0 -8 6 -14 14 -14h158c10 0 18 -8 18 -18v-20c0 -10 -8 -18 -18 -18h-158c-8 0 -14 -6 -14 -14v-157c0 -10 -8 -18 -18 -18h-20c-10 0 -18 8 -18 18v157c0 8 -6 14 -14 14h-158c-10 0 -18 8 -18 18v20
c0 10 8 18 18 18h158c8 0 14 6 14 14zM108 103h400c10 0 18 -8 18 -18v-20c0 -10 -8 -18 -18 -18h-400c-10 0 -18 8 -18 18v20c0 10 8 18 18 18z" />
    <glyph glyph-name="ae" unicode="&#xe6;" horiz-adv-x="1248" 
d="M1168 0h-500c-10 0 -18 8 -18 18v144c0 8 -6 14 -14 14h-395c-9 0 -17 -4 -23 -11l-122 -151c-7 -9 -18 -14 -29 -14h-41c-7 0 -11 8 -7 14l610 752c7 9 18 14 29 14h510c10 0 18 -8 18 -18v-22c0 -10 -8 -18 -18 -18h-445c-8 0 -14 -6 -14 -14v-283c0 -8 6 -14 14 -14
h374c10 0 18 -8 18 -18v-20c0 -10 -8 -18 -18 -18h-374c-8 0 -14 -6 -14 -14v-269c0 -8 6 -14 14 -14h445c10 0 18 -8 18 -18v-22c0 -10 -8 -18 -18 -18zM641 688l-360 -445c-4 -5 -1 -11 5 -11h350c8 0 14 6 14 14v439c0 5 -6 7 -9 3z" />
    <glyph glyph-name="questiondown" unicode="&#xbf;" horiz-adv-x="532" 
d="M272 486v16c0 8 6 14 14 14h22c9 0 17 -8 17 -17v-19c0 -80 -59 -121 -114 -159c-54 -38 -99 -73 -99 -144c0 -81 62 -136 150 -136c79 0 159 47 159 135v11c0 6 4 10 9 10h37c7 0 12 -5 12 -12v-13c0 -123 -115 -187 -218 -187c-114 0 -208 73 -208 191
c0 95 62 144 120 184c52 37 99 67 99 126zM298 791c28 0 52 -22 52 -51c0 -28 -24 -51 -52 -51s-51 23 -51 51c0 29 23 51 51 51z" />
    <glyph glyph-name="exclamdown" unicode="&#xa1;" horiz-adv-x="258" 
d="M152 561l9 -543c0 -10 -8 -18 -18 -18h-28c-10 0 -18 8 -18 18l9 543c0 10 8 18 18 18h10c10 0 18 -8 18 -18zM129 792c28 0 52 -22 52 -51c0 -28 -24 -51 -52 -51s-52 23 -52 51c0 29 24 51 52 51z" />
    <glyph glyph-name="guillemotleft" unicode="&#xab;" horiz-adv-x="674" 
d="M299 129l-226 201c-8 7 -13 19 -13 30v11c0 11 5 23 13 30l226 202c5 5 13 1 13 -6v-38c0 -11 -5 -23 -13 -30l-172 -154c-5 -5 -5 -13 0 -18l172 -154c8 -7 13 -19 13 -30v-38c0 -7 -8 -11 -13 -6zM564 129l-226 201c-8 7 -13 19 -13 30v11c0 11 5 23 13 30l226 202
c5 5 13 1 13 -6v-38c0 -11 -5 -23 -13 -30l-172 -154c-5 -5 -5 -13 0 -18l172 -154c8 -7 13 -19 13 -30v-38c0 -7 -8 -11 -13 -6z" />
    <glyph glyph-name="guillemotright" unicode="&#xbb;" horiz-adv-x="675" 
d="M110 603l226 -201c8 -7 13 -19 13 -30v-11c0 -11 -5 -23 -13 -30l-226 -202c-5 -5 -13 -1 -13 6v38c0 11 5 23 13 30l172 154c5 5 5 13 0 18l-172 154c-8 7 -13 19 -13 30v38c0 7 8 11 13 6zM376 603l226 -201c8 -7 13 -19 13 -30v-11c0 -11 -5 -23 -13 -30l-226 -202
c-5 -5 -13 -1 -13 6v38c0 11 5 23 13 30l172 154c5 5 5 13 0 18l-172 154c-8 7 -13 19 -13 30v38c0 7 8 11 13 6z" />
    <glyph glyph-name="ellipsis" unicode="&#x2026;" horiz-adv-x="590" 
d="M121 -12c-28 0 -52 22 -52 51c0 28 24 51 52 51s51 -23 51 -51c0 -29 -23 -51 -51 -51zM296 -12c-28 0 -52 22 -52 51c0 28 24 51 52 51s51 -23 51 -51c0 -29 -23 -51 -51 -51zM470 -12c-28 0 -52 22 -52 51c0 28 24 51 52 51s51 -23 51 -51c0 -29 -23 -51 -51 -51z" />
    <glyph glyph-name="OE" unicode="&#x152;" horiz-adv-x="1172" 
d="M1091 0h-602c-272 0 -431 174 -431 390c0 215 159 390 431 390h602c10 0 18 -8 18 -18v-22c0 -10 -8 -18 -18 -18h-445c-8 0 -14 -6 -14 -14v-283c0 -8 6 -14 14 -14h374c10 0 18 -8 18 -18v-20c0 -10 -8 -18 -18 -18h-374c-8 0 -14 -6 -14 -14v-269c0 -8 6 -14 14 -14
h445c10 0 18 -8 18 -18v-22c0 -10 -8 -18 -18 -18zM489 722c-235 0 -371 -148 -371 -332s136 -332 371 -332h70c8 0 14 6 14 14v636c0 8 -6 14 -14 14h-70z" />
    <glyph glyph-name="oe" unicode="&#x153;" horiz-adv-x="1171" 
d="M1091 0h-602c-272 0 -431 174 -431 390c0 215 159 390 431 390h602c10 0 18 -8 18 -18v-22c0 -10 -8 -18 -18 -18h-445c-8 0 -14 -6 -14 -14v-283c0 -8 6 -14 14 -14h374c10 0 18 -8 18 -18v-20c0 -10 -8 -18 -18 -18h-374c-8 0 -14 -6 -14 -14v-269c0 -8 6 -14 14 -14
h445c10 0 18 -8 18 -18v-22c0 -10 -8 -18 -18 -18zM489 722c-235 0 -371 -148 -371 -332s136 -332 371 -332h70c8 0 14 6 14 14v636c0 8 -6 14 -14 14h-70z" />
    <glyph glyph-name="endash" unicode="&#x2013;" horiz-adv-x="629" 
d="M104 353h421c10 0 18 -8 18 -18v-20c0 -10 -8 -18 -18 -18h-421c-10 0 -18 8 -18 18v20c0 10 8 18 18 18z" />
    <glyph glyph-name="emdash" unicode="&#x2014;" horiz-adv-x="790" 
d="M105 353h580c10 0 18 -8 18 -18v-20c0 -10 -8 -18 -18 -18h-580c-10 0 -18 8 -18 18v20c0 10 8 18 18 18z" />
    <glyph glyph-name="quotedblleft" unicode="&#x201c;" horiz-adv-x="456" 
d="M70 612c0 71 61 140 109 182c7 7 18 6 25 -1l1 -2c7 -7 6 -18 -1 -25c-23 -23 -56 -58 -71 -99c-3 -8 0 -14 9 -17c18 -4 34 -23 34 -46c0 -28 -24 -51 -52 -51s-54 22 -54 59zM251 612c0 71 61 140 109 182c7 7 18 6 25 -1l1 -2c7 -7 6 -18 -1 -25
c-23 -23 -56 -58 -71 -99c-3 -8 0 -14 9 -17c18 -4 34 -23 34 -46c0 -28 -24 -51 -52 -51s-54 22 -54 59z" />
    <glyph glyph-name="quotedblright" unicode="&#x201d;" horiz-adv-x="459" 
d="M218 736c0 -71 -61 -140 -109 -182c-7 -7 -18 -6 -25 1l-1 2c-7 7 -6 18 1 25c23 23 56 58 71 99c3 8 0 14 -9 17c-18 4 -34 23 -34 46c0 28 24 51 52 51s54 -22 54 -59zM399 736c0 -71 -61 -140 -109 -182c-7 -7 -18 -6 -25 1l-1 2c-7 7 -6 18 1 25c23 23 56 58 71 99
c3 8 0 14 -9 17c-18 4 -34 23 -34 46c0 28 24 51 52 51s54 -22 54 -59z" />
    <glyph glyph-name="quoteleft" unicode="&#x2018;" horiz-adv-x="275" 
d="M70 612c0 71 61 140 109 182c7 7 18 6 25 -1l1 -2c7 -7 6 -18 -1 -25c-23 -23 -56 -58 -71 -99c-3 -8 0 -14 9 -17c18 -4 34 -23 34 -46c0 -28 -24 -51 -52 -51s-54 22 -54 59z" />
    <glyph glyph-name="quoteright" unicode="&#x2019;" horiz-adv-x="278" 
d="M218 736c0 -71 -61 -140 -109 -182c-7 -7 -18 -6 -25 1l-1 2c-7 7 -6 18 1 25c23 23 56 58 71 99c3 8 0 14 -9 17c-18 4 -34 23 -34 46c0 28 24 51 52 51s54 -22 54 -59z" />
    <glyph glyph-name="divide" unicode="&#xf7;" horiz-adv-x="608" 
d="M104 393h400c10 0 18 -8 18 -18v-20c0 -10 -8 -18 -18 -18h-400c-10 0 -18 8 -18 18v20c0 10 8 18 18 18zM304 508c-28 0 -52 22 -52 51c0 28 24 51 52 51s51 -23 51 -51c0 -29 -23 -51 -51 -51zM304 119c-28 0 -52 22 -52 51c0 28 24 51 52 51s51 -23 51 -51
c0 -29 -23 -51 -51 -51z" />
    <glyph glyph-name="fraction" unicode="&#x2044;" horiz-adv-x="545" 
d="M527 765l-444 -750c-5 -9 -16 -15 -27 -15h-29c-8 0 -13 9 -9 15l444 750c5 9 16 15 27 15h29c8 0 13 -9 9 -15z" />
    <glyph glyph-name="sterling" unicode="&#xa3;" horiz-adv-x="600" 
d="M506 0h-421c-10 0 -18 8 -18 18v8c0 12 5 22 15 29c70 49 84 107 84 173c0 25 -3 49 -7 72c-1 8 -8 14 -16 14h-55c-10 0 -18 8 -18 18v19c0 10 8 18 18 18h43c7 0 12 7 10 13c-19 65 -41 125 -41 192c0 143 100 221 218 221c116 0 207 -77 214 -190
c1 -10 -8 -21 -17 -21h-22c-11 -1 -19 9 -20 20c-8 83 -72 133 -153 133c-87 0 -162 -57 -162 -163c0 -61 25 -121 44 -191c2 -8 9 -14 17 -14h189c10 0 18 -8 18 -18v-19c0 -10 -8 -18 -18 -18h-177c-7 0 -13 -7 -12 -14c3 -22 5 -45 5 -70c0 -50 -8 -108 -47 -160
c-4 -5 -1 -11 5 -11h324c10 0 18 -8 18 -18v-23c0 -10 -8 -18 -18 -18z" />
    <glyph glyph-name="yen" unicode="&#xa5;" horiz-adv-x="839" 
d="M463 231h193c10 0 18 -8 18 -18v-16c0 -10 -8 -18 -18 -18h-193c-8 0 -14 -6 -14 -14v-147c0 -10 -8 -18 -18 -18h-23c-10 0 -18 8 -18 18v147c0 8 -6 14 -14 14h-192c-10 0 -18 8 -18 18v16c0 10 8 18 18 18h192c8 0 14 6 14 14v27c0 8 -3 19 -8 25l-38 54
c-5 7 -13 11 -22 11h-138c-10 0 -18 8 -18 18v16c0 10 8 18 18 18h101c6 0 9 7 6 11l-244 340c-4 7 0 15 8 15h35c11 0 22 -6 28 -15l293 -409c4 -5 12 -5 16 0l294 409c6 9 17 15 28 15h35c8 0 12 -8 8 -15l-244 -340c-3 -4 0 -11 6 -11h102c10 0 18 -8 18 -18v-16
c0 -10 -8 -18 -18 -18h-139c-9 0 -17 -4 -22 -11l-38 -54c-5 -6 -8 -17 -8 -25v-27c0 -8 6 -14 14 -14z" />
    <glyph glyph-name="Euro" unicode="&#x20ac;" horiz-adv-x="959" 
d="M543 44c120 0 224 60 286 153c6 8 17 11 26 6l21 -12c9 -4 11 -16 6 -23c-72 -110 -197 -183 -339 -183c-179 0 -331 115 -386 275c-2 8 -10 13 -18 13h-65c-10 0 -18 8 -18 18v9c0 10 8 18 18 18h54c7 0 13 7 12 14c-3 19 -4 38 -4 58c0 18 1 36 4 54c1 8 -5 14 -12 14
h-54c-10 0 -18 8 -18 18v9c0 10 8 18 18 18h64c8 0 16 5 18 13c53 162 207 279 387 279c141 0 266 -73 338 -183c5 -7 3 -19 -6 -23l-20 -11c-9 -5 -20 -3 -26 6c-63 92 -167 152 -286 152c-147 0 -272 -92 -323 -220c-3 -6 2 -13 9 -13h294c10 0 18 -8 18 -18v-9
c0 -10 -8 -18 -18 -18h-307c-8 0 -15 -6 -16 -14c-3 -18 -4 -36 -4 -54c0 -20 1 -39 4 -58c2 -8 9 -14 17 -14h264c10 0 18 -8 18 -18v-9c0 -10 -8 -18 -18 -18h-251c-7 0 -12 -7 -9 -13c52 -127 177 -216 322 -216z" />
    <glyph glyph-name="guilsinglleft" unicode="&#x2039;" horiz-adv-x="409" 
d="M299 129l-226 201c-8 7 -13 19 -13 30v11c0 11 5 23 13 30l226 202c5 5 13 1 13 -6v-38c0 -11 -5 -23 -13 -30l-172 -154c-5 -5 -5 -13 0 -18l172 -154c8 -7 13 -19 13 -30v-38c0 -7 -8 -11 -13 -6z" />
    <glyph glyph-name="guilsinglright" unicode="&#x203a;" horiz-adv-x="409" 
d="M110 603l226 -201c8 -7 13 -19 13 -30v-11c0 -11 -5 -23 -13 -30l-226 -202c-5 -5 -13 -1 -13 6v38c0 11 5 23 13 30l172 154c5 5 5 13 0 18l-172 154c-8 7 -13 19 -13 30v38c0 7 8 11 13 6z" />
    <glyph glyph-name="daggerdbl" unicode="&#x2021;" horiz-adv-x="469" 
d="M195 708c-8 9 -13 22 -13 35c0 28 23 52 51 52s52 -24 52 -52c0 -13 -5 -25 -13 -34c-9 -9 -11 -15 -11 -28v-149c0 -8 6 -14 14 -14h118c10 0 18 -8 18 -18v-16c0 -10 -8 -18 -18 -18h-118c-8 0 -14 -6 -14 -14v-130c0 -8 6 -14 14 -14h118c10 0 18 -8 18 -18v-16
c0 -10 -8 -18 -18 -18h-118c-8 0 -14 -6 -14 -14v-371c0 -10 -8 -18 -18 -18h-19c-10 0 -18 8 -18 18v371c0 8 -6 14 -14 14h-116c-10 0 -18 8 -18 18v16c0 10 8 18 18 18h116c8 0 14 6 14 14v130c0 8 -6 14 -14 14h-116c-10 0 -18 8 -18 18v16c0 10 8 18 18 18h116
c8 0 14 6 14 14v148c0 13 -2 18 -11 28z" />
    <glyph glyph-name="periodcentered" unicode="&#xb7;" horiz-adv-x="277" 
d="M139 315c-28 0 -52 22 -52 51c0 28 24 51 52 51s51 -23 51 -51c0 -29 -23 -51 -51 -51z" />
    <glyph glyph-name="quotesinglbase" unicode="&#x201a;" horiz-adv-x="244" 
d="M174 31c0 -71 -61 -140 -109 -182c-7 -7 -18 -6 -25 1l-1 2c-7 7 -6 18 1 25c23 23 56 58 71 99c3 8 0 14 -9 17c-18 4 -34 23 -34 46c0 28 24 51 52 51s54 -22 54 -59z" />
    <glyph glyph-name="quotedblbase" unicode="&#x201e;" horiz-adv-x="428" 
d="M174 31c0 -71 -61 -140 -109 -182c-7 -7 -18 -6 -25 1l-1 2c-7 7 -6 18 1 25c23 23 56 58 71 99c3 8 0 14 -9 17c-18 4 -34 23 -34 46c0 28 24 51 52 51s54 -22 54 -59zM355 31c0 -71 -61 -140 -109 -182c-7 -7 -18 -6 -25 1l-1 2c-7 7 -6 18 1 25c23 23 56 58 71 99
c3 8 0 14 -9 17c-18 4 -34 23 -34 46c0 28 24 51 52 51s54 -22 54 -59z" />
    <glyph glyph-name="perthousand" unicode="&#x2030;" horiz-adv-x="1456" 
d="M227 427c-102 0 -183 83 -183 184c0 102 81 183 183 183c103 0 183 -81 183 -183c0 -101 -80 -184 -183 -184zM227 741c-70 0 -129 -60 -129 -130c0 -71 59 -130 129 -130c71 0 130 59 130 130c0 70 -59 130 -130 130zM769 -11c-102 0 -183 81 -183 184s81 183 183 183
c103 0 184 -80 184 -183s-81 -184 -184 -184zM769 303c-70 0 -129 -60 -129 -130c0 -71 59 -129 129 -129c71 0 130 58 130 129c0 70 -59 130 -130 130zM801 765l-540 -750c-7 -9 -18 -15 -29 -15h-32c-8 0 -12 8 -7 15l540 750c7 9 18 15 29 15h32c8 0 12 -8 7 -15z
M1231 -11c-102 0 -183 81 -183 184s81 183 183 183c103 0 184 -80 184 -183s-81 -184 -184 -184zM1231 303c-70 0 -129 -60 -129 -130c0 -71 59 -129 129 -129c71 0 130 58 130 129c0 70 -59 130 -130 130z" />
    <glyph glyph-name="ring" unicode="&#x2da;" horiz-adv-x="229" 
d="M115 841c-65 0 -115 50 -115 115c0 63 50 114 115 114c63 0 114 -50 114 -114c0 -65 -51 -115 -114 -115zM115 1027c-40 0 -72 -33 -72 -71c0 -40 32 -72 72 -72c38 0 71 32 71 72c0 38 -33 71 -71 71z" />
    <glyph glyph-name="hungarumlaut" unicode="&#x2dd;" horiz-adv-x="432" 
d="M196 1026l-150 -144c-7 -6 -19 -6 -26 1l-7 7c-7 7 -7 19 -1 26l144 150c6 7 18 7 25 0l15 -15c7 -7 7 -19 0 -25zM419 1026l-150 -144c-7 -6 -19 -6 -26 1l-6 7c-7 7 -7 19 -1 26l143 150c6 7 18 7 25 0l15 -15c7 -7 7 -19 0 -25z" />
    <glyph glyph-name="Eth" unicode="&#xd0;" horiz-adv-x="842" 
d="M418 0h-287c-10 0 -18 8 -18 18v330c0 8 -6 14 -14 14h-56c-10 0 -18 8 -18 18v17c0 10 8 18 18 18h56c8 0 14 6 14 14v333c0 10 8 18 18 18h287c237 0 363 -172 363 -390c0 -219 -126 -390 -363 -390zM186 415h248c10 0 18 -8 18 -18v-17c0 -10 -8 -18 -18 -18h-248
c-8 0 -14 -6 -14 -14v-276c0 -8 6 -14 14 -14h229c197 0 307 143 307 332s-110 332 -307 332h-229c-8 0 -14 -6 -14 -14v-279c0 -8 6 -14 14 -14z" />
    <glyph glyph-name="multiply" unicode="&#xd7;" horiz-adv-x="595" 
d="M287 316l-148 -148c-7 -7 -19 -7 -26 0l-13 13c-7 7 -7 19 0 26l148 148c5 5 5 15 0 20l-148 149c-7 7 -7 19 0 26l13 13c7 7 19 7 26 0l148 -149c5 -5 15 -5 20 0l149 149c7 7 19 7 26 0l13 -13c7 -7 7 -19 0 -26l-149 -149c-5 -5 -5 -15 0 -20l149 -148
c7 -7 7 -19 0 -26l-13 -13c-7 -7 -19 -7 -26 0l-149 148c-5 5 -15 5 -20 0z" />
    <glyph glyph-name="Thorn" unicode="&#xde;" horiz-adv-x="743" 
d="M153 0h-23c-10 0 -18 8 -18 18v744c0 10 8 18 18 18h23c10 0 18 -8 18 -18v-89c0 -8 6 -14 14 -14h228c182 0 286 -124 286 -269c0 -142 -104 -268 -286 -268h-228c-8 0 -14 -6 -14 -14v-90c0 -10 -8 -18 -18 -18zM639 390c0 115 -83 213 -228 213h-226
c-8 0 -14 -6 -14 -14v-397c0 -8 6 -14 14 -14h226c145 0 228 101 228 212z" />
    <glyph glyph-name="eth" unicode="&#xf0;" horiz-adv-x="842" 
d="M418 0h-287c-10 0 -18 8 -18 18v330c0 8 -6 14 -14 14h-56c-10 0 -18 8 -18 18v17c0 10 8 18 18 18h56c8 0 14 6 14 14v333c0 10 8 18 18 18h287c237 0 363 -172 363 -390c0 -219 -126 -390 -363 -390zM186 415h248c10 0 18 -8 18 -18v-17c0 -10 -8 -18 -18 -18h-248
c-8 0 -14 -6 -14 -14v-276c0 -8 6 -14 14 -14h229c197 0 307 143 307 332s-110 332 -307 332h-229c-8 0 -14 -6 -14 -14v-279c0 -8 6 -14 14 -14z" />
    <glyph glyph-name="thorn" unicode="&#xfe;" horiz-adv-x="743" 
d="M153 0h-23c-10 0 -18 8 -18 18v744c0 10 8 18 18 18h23c10 0 18 -8 18 -18v-89c0 -8 6 -14 14 -14h228c182 0 286 -124 286 -269c0 -142 -104 -268 -286 -268h-228c-8 0 -14 -6 -14 -14v-90c0 -10 -8 -18 -18 -18zM639 390c0 115 -83 213 -228 213h-226
c-8 0 -14 -6 -14 -14v-397c0 -8 6 -14 14 -14h226c145 0 228 101 228 212z" />
    <glyph glyph-name="minus" unicode="&#x2212;" horiz-adv-x="618" 
d="M109 393h400c10 0 18 -8 18 -18v-20c0 -10 -8 -18 -18 -18h-400c-10 0 -18 8 -18 18v20c0 10 8 18 18 18z" />
    <glyph glyph-name="breve" unicode="&#x2d8;" horiz-adv-x="353" 
d="M176 861c-75 0 -134 44 -168 103c-4 8 -1 20 7 24l10 6c9 5 19 2 25 -7c29 -48 74 -75 126 -75c53 0 98 27 127 75c6 9 16 12 25 7l10 -6c8 -4 11 -16 7 -24c-34 -59 -94 -103 -169 -103z" />
    <glyph glyph-name="dotaccent" unicode="&#x2d9;" horiz-adv-x="91" 
d="M46 868c-25 0 -46 20 -46 45s21 46 46 46s45 -21 45 -46s-20 -45 -45 -45z" />
    <glyph glyph-name="caron" unicode="&#x2c7;" horiz-adv-x="355" 
d="M341 982l-153 -113c-6 -5 -16 -4 -22 0l-151 113c-6 4 -7 13 -2 19l12 15c5 6 14 7 20 3l117 -85c9 -7 21 -7 30 -1l119 86c6 4 15 3 20 -3l12 -15c5 -6 4 -15 -2 -19z" />
    <glyph glyph-name="grave" unicode="`" horiz-adv-x="275" 
d="M44 1024l216 -131c8 -5 11 -16 6 -25l-5 -8c-5 -9 -16 -12 -25 -7l-220 120c-9 5 -12 16 -7 25l11 19c5 9 16 12 24 7z" />
    <glyph glyph-name="circumflex" unicode="&#x2c6;" horiz-adv-x="355" 
d="M191 1016l147 -107c7 -6 9 -17 3 -25l-8 -9c-6 -8 -18 -9 -26 -4l-119 86c-6 5 -16 5 -22 0l-117 -85c-8 -6 -20 -5 -26 3l-8 9c-6 8 -4 19 3 25l145 107c8 7 20 7 28 0z" />
    <glyph glyph-name="macron" unicode="&#xaf;" horiz-adv-x="327" 
d="M18 927h291c10 0 18 -8 18 -18v-13c0 -10 -8 -18 -18 -18h-291c-10 0 -18 8 -18 18v13c0 10 8 18 18 18z" />
    <glyph glyph-name="acute" unicode="&#xb4;" horiz-adv-x="275" 
d="M12 891l222 135c6 4 15 1 19 -5l15 -27c4 -6 1 -15 -5 -19l-228 -124c-6 -4 -15 -1 -19 5l-9 16c-4 6 -2 15 5 19z" />
    <glyph glyph-name="tilde" unicode="&#x2dc;" horiz-adv-x="395" 
d="M113 953c-34 0 -55 -31 -60 -72c-1 -11 -9 -18 -20 -18h-9c-9 0 -17 9 -16 18c5 57 33 123 105 123c34 0 58 -13 102 -55c24 -24 45 -44 71 -44c32 0 52 31 55 72c1 11 9 18 20 18h10c9 0 17 -9 16 -18c-4 -56 -30 -123 -101 -123c-35 0 -55 15 -99 55
c-28 25 -48 44 -74 44z" />
    <glyph glyph-name="asciitilde" unicode="~" horiz-adv-x="565" 
d="M198 349c-34 0 -55 -31 -60 -72c-1 -11 -9 -18 -20 -18h-9c-9 0 -17 9 -16 18c5 57 33 123 105 123c34 0 58 -13 102 -55c24 -24 45 -44 71 -44c32 0 52 31 55 72c1 11 9 18 20 18h10c9 0 17 -9 16 -18c-4 -56 -30 -123 -101 -123c-35 0 -55 15 -99 55
c-28 25 -48 44 -74 44z" />
    <glyph glyph-name="asciicircum" unicode="^" horiz-adv-x="610" 
d="M67 364l204 400c5 10 15 16 26 16h15c11 0 21 -6 26 -16l205 -400c4 -7 -2 -16 -10 -16h-28c-11 0 -21 6 -26 16l-168 330c-2 5 -10 5 -12 0l-168 -330c-5 -10 -15 -16 -26 -16h-28c-8 0 -14 9 -10 16z" />
    <glyph glyph-name="brokenbar" unicode="&#xa6;" horiz-adv-x="249" 
d="M96 -167v470c0 10 8 18 18 18h22c10 0 18 -8 18 -18v-470c0 -10 -8 -18 -18 -18h-22c-10 0 -18 8 -18 18zM96 478v470c0 10 8 18 18 18h22c10 0 18 -8 18 -18v-470c0 -10 -8 -18 -18 -18h-22c-10 0 -18 8 -18 18z" />
    <glyph glyph-name="cedilla" unicode="&#xb8;" horiz-adv-x="272" 
d="M88 -63l19 52c3 10 13 17 24 17h2c9 0 15 -9 12 -17l-12 -36c-3 -7 2 -14 9 -15c79 -9 113 -58 113 -102c0 -52 -44 -102 -120 -102c-42 0 -86 15 -109 25c-8 3 -12 15 -8 23l4 8c4 10 15 13 24 9c21 -9 53 -20 87 -20c55 0 81 31 81 62s-26 66 -99 64c-9 -1 -17 3 -22 9
l-1 1c-5 6 -7 15 -4 22z" />
    <glyph glyph-name="ogonek" unicode="&#x2db;" horiz-adv-x="160" 
d="M0 -157c0 72 70 132 120 172c6 4 15 3 19 -3l2 -1c4 -6 3 -15 -2 -20c-46 -39 -94 -91 -94 -139c0 -40 34 -59 89 -52c11 1 19 -5 21 -16l2 -11c2 -9 -6 -19 -15 -20c-82 -11 -142 24 -142 90z" />
    <glyph glyph-name="apple" unicode="&#xf8ff;" horiz-adv-x="744" 
d="M681 367c-13 -5 -13 -16 -3 -23l28 -20c11 -7 10 -15 -3 -18l-34 -6c-14 -2 -16 -12 -7 -22l24 -24c8 -9 6 -17 -8 -17l-35 2c-13 0 -18 -9 -10 -20l18 -30c7 -11 2 -17 -11 -15l-34 9c-12 4 -19 -5 -15 -17l11 -33c5 -12 -1 -18 -13 -12l-31 15c-11 6 -20 0 -19 -14
l5 -33c1 -14 -5 -17 -15 -9l-28 21c-10 8 -20 3 -21 -10l-2 -34c-1 -13 -9 -15 -17 -6l-23 27c-9 9 -18 8 -22 -5l-10 -33c-3 -13 -12 -13 -18 -2l-17 30c-6 12 -15 12 -23 0l-15 -30c-6 -11 -15 -11 -18 2l-10 33c-4 13 -13 14 -22 5l-23 -27c-8 -9 -15 -7 -17 6l-2 34
c-1 13 -11 18 -22 10l-26 -21c-11 -8 -19 -5 -16 9l5 33c1 14 -8 20 -20 14l-30 -15c-12 -6 -18 0 -13 12l11 33c5 12 -3 21 -15 17l-34 -9c-13 -2 -18 4 -11 15l19 30c7 11 2 20 -11 20l-35 -2c-14 0 -16 8 -8 17l25 24c8 10 6 20 -8 22l-33 6c-14 3 -15 11 -4 18l28 20
c3 2 5 5 6 6c6 5 13 2 18 -6l16 -31c6 -12 14 -10 18 2l9 34c4 12 14 14 22 4l23 -26c9 -10 16 -7 17 6l2 34c2 13 11 17 21 9l28 -21c11 -8 18 -4 15 9l-4 34c-2 13 7 19 18 13l31 -14c12 -6 18 0 14 12l-11 33c-5 12 2 20 14 16l7 -1c26 -50 49 -145 49 -205
c-8 -10 -17 -18 -46 -18h-4c0 14 -5 26 -16 35c7 -8 9 -17 9 -27v-7c-11 1 -16 8 -16 19c0 27 -18 49 -51 49c-27 0 -47 -23 -47 -54c0 -38 33 -65 92 -65c144 0 278 190 278 319c0 38 -26 67 -64 67c-30 0 -60 -24 -60 -58s21 -54 58 -58c-8 -32 -15 -60 -29 -85
c-8 62 -29 119 -58 150c29 -38 47 -97 52 -161l-14 -20c0 100 -36 197 -89 224c-3 6 2 13 12 15l34 6c12 2 14 10 3 17l-29 19c-10 9 -9 18 3 23l31 14c14 4 14 13 0 18l-31 13c-9 4 -11 8 -10 14c4 2 6 4 7 8l17 30c6 12 15 11 18 -1l10 -33c4 -13 13 -16 22 -5l23 26
c8 10 16 8 17 -5l2 -35c1 -14 11 -17 21 -9l28 21c10 8 16 3 15 -10l-5 -34c-1 -13 8 -19 19 -13l31 16c12 5 18 0 13 -14l-11 -31c-4 -13 3 -21 15 -17l34 7c13 4 18 -2 11 -14l-18 -29c-8 -11 -3 -21 10 -20l35 2c14 0 16 -8 8 -17l-24 -26c-9 -9 -7 -19 7 -21l34 -6
c13 -3 14 -10 3 -19l-28 -19c-10 -7 -10 -17 3 -22l31 -13c12 -5 12 -13 0 -18zM300 164c144 0 278 189 278 319c0 19 -7 37 -20 49c8 -12 12 -25 12 -41c0 -66 -34 -146 -85 -210c-52 -64 -122 -113 -196 -113c-19 0 -36 3 -49 9c14 -9 35 -13 60 -13z" />
    <glyph glyph-name="dotlessi" unicode="&#x131;" horiz-adv-x="282" 
d="M112 18v744c0 10 8 18 18 18h23c10 0 18 -8 18 -18v-744c0 -10 -8 -18 -18 -18h-23c-10 0 -18 8 -18 18z" />
    <glyph glyph-name="zerosuperior" unicode="&#x2070;" horiz-adv-x="520" 
d="M259 263c-132 0 -203 122 -203 264c0 141 71 263 203 263s205 -122 205 -263c0 -142 -73 -264 -205 -264zM259 744c-97 0 -156 -95 -156 -217c0 -123 59 -218 156 -218c98 0 158 95 158 218c0 122 -60 217 -158 217z" />
    <glyph glyph-name="onesuperior" unicode="&#xb9;" horiz-adv-x="255" 
d="M124 721l-71 -23c-8 -3 -17 3 -17 12v14c0 11 7 20 17 24l85 27c8 3 20 5 29 5h2c8 0 15 -7 15 -15v-474c0 -10 -8 -18 -18 -18h-11c-10 0 -18 8 -18 18v420c0 7 -7 12 -13 10z" />
    <glyph glyph-name="twosuperior" unicode="&#xb2;" horiz-adv-x="455" 
d="M143 320h240c10 0 18 -8 18 -18v-11c0 -10 -8 -18 -18 -18h-318c-9 0 -17 8 -17 17v2c0 10 5 21 13 29l196 180c52 47 93 84 93 138c0 65 -53 105 -119 105c-62 0 -124 -30 -129 -110c-1 -10 -9 -17 -20 -17h-11c-9 0 -16 8 -16 17c5 112 95 156 176 156
c89 0 166 -57 166 -151c0 -75 -57 -125 -109 -173l-149 -137c-3 -3 -1 -9 4 -9z" />
    <glyph glyph-name="threesuperior" unicode="&#xb3;" horiz-adv-x="448" 
d="M212 263c-46 0 -98 12 -150 40c-9 4 -11 16 -6 24l5 8c6 8 17 11 26 6c45 -23 86 -32 123 -32c80 0 135 44 135 101c0 59 -62 101 -167 106c-10 0 -18 8 -18 18v4c0 10 8 18 18 18c107 6 150 58 150 103c0 52 -49 87 -111 87c-54 0 -98 -25 -109 -62
c-3 -13 -10 -20 -23 -19h-7c-9 1 -18 12 -16 21c12 61 76 104 155 104c82 0 158 -48 158 -126c0 -45 -29 -94 -91 -122c-5 -2 -4 -8 0 -9c68 -24 109 -68 109 -126c0 -83 -81 -144 -181 -144z" />
    <glyph glyph-name="foursuperior" unicode="&#x2074;" horiz-adv-x="477" 
d="M367 365v-74c0 -10 -8 -18 -18 -18h-10c-10 0 -18 8 -18 18v74c0 8 -6 14 -14 14h-257c-9 0 -17 8 -17 17v2c0 9 3 22 8 30l199 336c5 10 16 16 27 16h16c8 0 13 -9 9 -16l-194 -329c-3 -5 1 -12 7 -12h202c8 0 14 6 14 14v104c0 10 8 18 18 18h10c10 0 18 -8 18 -18
v-104c0 -8 6 -14 14 -14h43c10 0 18 -8 18 -18v-8c0 -10 -8 -18 -18 -18h-43c-8 0 -14 -6 -14 -14z" />
    <glyph glyph-name="fivesuperior" unicode="&#x2075;" horiz-adv-x="470" 
d="M138 780h231c10 0 18 -8 18 -18v-11c0 -10 -8 -18 -18 -18h-200c-8 0 -15 -6 -16 -14l-27 -158c-1 -5 5 -9 9 -6c23 15 63 34 114 34c105 0 175 -72 175 -158c0 -95 -83 -168 -191 -168c-79 0 -144 39 -183 92c-5 7 -3 19 5 24l10 5c9 6 20 4 26 -5
c32 -43 81 -70 142 -70c82 0 143 53 143 122c0 61 -48 115 -132 115c-40 0 -79 -11 -120 -45c-9 -7 -21 -9 -31 -4l-6 3c-9 5 -15 15 -13 26l43 236c2 10 11 18 21 18z" />
    <glyph glyph-name="sixsuperior" unicode="&#x2076;" horiz-adv-x="459" 
d="M279 780h21c8 0 12 -8 7 -14l-115 -151c-3 -4 0 -9 5 -8c12 3 26 5 40 5c100 0 181 -73 181 -171c0 -99 -83 -178 -187 -178c-102 0 -185 80 -185 177c0 40 13 78 38 111l166 215c7 8 18 14 29 14zM230 573c-46 0 -86 -20 -111 -53c-18 -24 -27 -49 -27 -79
c0 -74 61 -132 139 -132c79 0 140 58 140 132s-61 132 -141 132z" />
    <glyph glyph-name="sevensuperior" unicode="&#x2077;" horiz-adv-x="421" 
d="M325 733h-271c-10 0 -18 8 -18 18v11c0 10 8 18 18 18h323c9 0 17 -8 17 -17v-2c0 -11 -3 -24 -8 -34l-228 -438c-5 -10 -15 -16 -26 -16h-17c-8 0 -13 9 -10 16l227 432c4 5 -1 12 -7 12z" />
    <glyph glyph-name="eightsuperior" unicode="&#x2078;" horiz-adv-x="485" 
d="M242 263c-103 0 -188 63 -188 148c0 58 36 103 91 127c5 2 5 8 0 11c-42 21 -70 59 -70 107c0 77 77 134 167 134c91 0 169 -57 169 -134c0 -48 -29 -86 -72 -107c-5 -3 -5 -9 0 -11c55 -24 92 -69 92 -127c0 -85 -87 -148 -189 -148zM242 523c-80 0 -141 -47 -141 -109
c0 -61 61 -108 141 -108s142 47 142 108s-62 109 -142 109zM242 748c-69 0 -121 -42 -121 -93c0 -53 52 -94 121 -94s122 41 122 94c0 51 -53 93 -122 93z" />
    <glyph glyph-name="ninesuperior" unicode="&#x2079;" horiz-adv-x="459" 
d="M180 273h-21c-8 0 -12 8 -7 14l115 151c3 4 0 9 -5 8c-12 -3 -26 -5 -40 -5c-100 0 -181 73 -181 171c0 99 83 178 187 178c102 0 185 -80 185 -177c0 -40 -13 -78 -38 -111l-166 -215c-7 -8 -18 -14 -29 -14zM229 480c46 0 86 20 111 53c18 24 27 49 27 79
c0 74 -61 132 -139 132c-79 0 -140 -58 -140 -132s61 -132 141 -132z" />
    <glyph glyph-name="ordmasculine" unicode="&#xba;" horiz-adv-x="469" 
d="M234 453c-95 0 -171 76 -171 171c0 94 76 171 171 171s172 -77 172 -171c0 -95 -77 -171 -172 -171zM234 748c-69 0 -123 -56 -123 -124c0 -69 54 -123 123 -123s124 54 124 123c0 68 -55 124 -124 124z" />
    <glyph glyph-name="ordfeminine" unicode="&#xaa;" horiz-adv-x="498" 
d="M388 463h-11c-10 0 -18 8 -18 18v20c0 5 -6 7 -9 3c-29 -31 -69 -51 -118 -51c-94 0 -169 76 -169 171c0 94 75 171 169 171c49 0 89 -20 118 -52c3 -4 9 -2 9 3v21c0 10 8 18 18 18h11c10 0 18 -8 18 -18v-286c0 -10 -8 -18 -18 -18zM234 748c-69 0 -123 -56 -123 -124
c0 -69 54 -123 123 -123s124 54 124 123c0 68 -55 124 -124 124z" />
    <glyph glyph-name="numbersignsuperior" unicode="&#xe909;" horiz-adv-x="527" 
d="M148 595h-54c-10 0 -18 8 -18 18v9c0 10 8 18 18 18h62c8 0 15 6 17 14l20 108c2 10 11 18 21 18h12c9 0 16 -9 15 -18l-20 -108c-2 -7 4 -14 11 -14h104c8 0 15 6 17 14l20 108c2 10 11 18 21 18h13c9 0 16 -9 15 -18l-20 -108c-2 -7 4 -14 11 -14h53c10 0 18 -8 18 -18
v-9c0 -10 -8 -18 -18 -18h-61c-8 0 -15 -6 -16 -14l-21 -110c-1 -7 5 -14 12 -14h53c10 0 18 -8 18 -18v-9c0 -10 -8 -18 -18 -18h-62c-8 0 -15 -6 -16 -14l-20 -107c-2 -10 -11 -18 -21 -18h-12c-9 0 -16 9 -15 18l20 107c1 7 -5 14 -12 14h-105c-8 0 -15 -6 -16 -14
l-20 -107c-2 -10 -11 -18 -21 -18h-12c-9 0 -16 9 -15 18l20 107c1 7 -5 14 -12 14h-53c-10 0 -18 8 -18 18v9c0 10 8 18 18 18h62c8 0 15 6 16 14l21 110c1 7 -5 14 -12 14zM328 595h-104c-8 0 -15 -6 -16 -14l-21 -110c-1 -7 5 -14 12 -14h104c8 0 15 6 16 14l21 110
c1 7 -5 14 -12 14z" />
    <glyph glyph-name="dollarsuperior" unicode="&#xf6e4;" horiz-adv-x="431" 
d="M179 315c-67 10 -117 45 -126 95c-2 10 8 21 18 20h5c14 -1 20 -6 24 -19c11 -35 55 -59 121 -59c71 0 110 30 110 68c0 50 -57 65 -122 85c-73 22 -154 51 -154 126c0 57 48 98 124 108c8 1 14 7 14 15v24c0 10 8 18 18 18h9c10 0 18 -8 18 -18v-25c0 -8 6 -14 14 -16
c65 -10 112 -44 121 -94c1 -8 -7 -19 -15 -19h-8c-14 0 -20 6 -24 19c-11 34 -54 58 -115 58c-69 0 -106 -29 -106 -69c0 -46 49 -64 117 -83c66 -20 158 -43 158 -125c0 -60 -50 -102 -128 -111c-8 -1 -14 -7 -14 -15v-23c0 -10 -8 -18 -18 -18h-9c-10 0 -18 8 -18 18v24
c0 8 -6 14 -14 16z" />
    <glyph glyph-name="percentsuperior" unicode="&#xe910;" horiz-adv-x="683" 
d="M160 546c-67 0 -121 53 -121 121s54 122 121 122c68 0 122 -54 122 -122s-54 -121 -122 -121zM160 747c-44 0 -79 -36 -79 -80s35 -79 79 -79s80 35 80 79s-36 80 -80 80zM521 265c-67 0 -121 54 -121 122c0 67 54 122 121 122c68 0 123 -55 123 -122
c0 -68 -55 -122 -123 -122zM521 467c-44 0 -79 -36 -79 -80s35 -80 79 -80c45 0 81 36 81 80s-36 80 -81 80zM548 766l-361 -479c-7 -8 -18 -14 -29 -14h-17c-8 0 -12 8 -7 14l360 479c7 8 18 14 29 14h18c8 0 12 -8 7 -14z" />
    <glyph glyph-name="centsuperior" unicode="&#xf6e0;" horiz-adv-x="437" 
d="M234 358c40 0 77 18 101 46c8 8 18 10 28 5l9 -6c8 -4 10 -15 4 -22c-27 -34 -68 -59 -112 -67c-8 -2 -14 -8 -14 -17v-22c0 -10 -8 -18 -18 -18h-9c-10 0 -18 8 -18 18v24c0 9 -5 16 -14 18c-80 19 -138 90 -138 173s58 154 138 172c9 2 14 9 14 18v25c0 10 8 18 18 18
h9c10 0 18 -8 18 -18v-23c0 -9 6 -15 14 -17c44 -7 84 -32 111 -66c6 -7 4 -18 -4 -23l-8 -4c-10 -6 -20 -4 -28 4c-25 28 -61 46 -101 46c-74 0 -134 -59 -134 -132s60 -132 134 -132z" />
    <glyph glyph-name="sterlingsuperior" unicode="&#xe911;" horiz-adv-x="428" 
d="M352 273h-279c-9 0 -17 8 -17 17v1c0 10 5 19 14 26c44 30 53 66 53 107c0 13 -1 25 -3 37c-1 8 -8 14 -16 14h-28c-10 0 -18 8 -18 18v6c0 10 8 18 18 18h17c7 0 12 7 10 13c-12 38 -25 74 -25 115c0 93 70 145 150 145c77 0 138 -46 147 -121c1 -9 -8 -18 -17 -19h-8
c-12 -1 -19 6 -21 17c-8 50 -49 78 -100 78c-56 0 -105 -34 -105 -101c0 -35 15 -71 28 -114c2 -8 10 -13 18 -13h115c10 0 18 -8 18 -18v-6c0 -10 -8 -18 -18 -18h-106c-7 0 -13 -7 -12 -14c1 -11 2 -23 2 -35c0 -30 -4 -64 -25 -95c-3 -5 0 -11 6 -11h202
c10 0 18 -8 18 -18v-11c0 -10 -8 -18 -18 -18z" />
    <glyph glyph-name="Eurosuperior" unicode="&#xe912;" horiz-adv-x="637" 
d="M361 310c72 0 136 35 176 89c6 9 17 11 26 6l9 -5c8 -5 10 -17 5 -24c-47 -68 -127 -113 -216 -113c-114 0 -211 71 -248 172c-3 8 -11 13 -20 13h-31c-9 0 -16 7 -16 16v2c0 9 7 16 16 16h24c7 0 13 6 12 14c-2 10 -2 20 -2 31c0 8 0 17 1 26c1 8 -5 14 -12 14h-22
c-9 0 -17 8 -17 17v2c0 8 8 16 17 16h29c9 0 16 5 19 13c36 102 135 175 250 175c90 0 169 -45 216 -114c5 -7 3 -19 -5 -24l-10 -5c-9 -5 -20 -3 -26 6c-39 55 -103 90 -175 90c-89 0 -164 -53 -199 -128c-2 -6 1 -13 8 -13h177c8 0 16 -8 16 -16v-2c0 -9 -8 -17 -16 -17
h-187c-7 0 -15 -7 -15 -14c-2 -9 -2 -17 -2 -26c0 -11 0 -21 2 -31c1 -7 8 -14 15 -14h160c9 0 16 -7 16 -16v-2c0 -9 -7 -16 -16 -16h-148c-7 0 -11 -7 -8 -13c35 -74 110 -125 197 -125z" />
    <glyph glyph-name="yensuperior" horiz-adv-x="565" 
d="M324 428h117c10 0 18 -8 18 -18v-7c0 -10 -8 -18 -18 -18h-117c-8 0 -14 -6 -14 -14v-80c0 -10 -8 -18 -18 -18h-15c-10 0 -18 8 -18 18v80c0 8 -6 14 -14 14h-116c-10 0 -18 8 -18 18v7c0 10 8 18 18 18h116c8 0 14 6 14 14v4c0 8 -3 18 -8 25l-17 22
c-5 7 -13 11 -22 11h-83c-10 0 -18 8 -18 18v7c0 10 8 18 18 18h52c6 0 9 7 6 11l-153 208c-5 6 -1 14 7 14h25c11 0 22 -6 29 -14l182 -246c4 -5 12 -5 16 0l182 246c7 8 18 14 29 14h25c8 0 12 -8 7 -14l-153 -208c-3 -4 0 -11 6 -11h52c10 0 18 -8 18 -18v-7
c0 -10 -8 -18 -18 -18h-84c-9 0 -17 -4 -22 -11l-17 -24c-5 -7 -8 -17 -8 -25v-2c0 -8 6 -14 14 -14z" />
    <glyph glyph-name="commaaccent" unicode="&#xf6c3;" horiz-adv-x="169" 
d="M164 -116c0 -66 -57 -129 -98 -166c-6 -5 -16 -5 -21 1l-1 2c-6 6 -5 16 1 21c20 21 51 53 67 92c3 8 0 14 -9 17c-16 4 -30 20 -30 40c0 24 20 44 44 44s47 -19 47 -51z" />
    <glyph glyph-name="Aacute" unicode="&#xc1;" horiz-adv-x="808" 
d="M22 16l342 748c5 9 15 16 26 16h28c11 0 21 -7 26 -16l342 -748c4 -7 -1 -16 -10 -16h-29c-11 0 -21 7 -25 16l-67 147c-4 8 -12 13 -20 13h-462c-8 0 -16 -5 -20 -13l-66 -147c-4 -9 -14 -16 -25 -16h-30c-9 0 -14 9 -10 16zM617 245l-207 458c-3 5 -9 5 -12 0
l-207 -458c-3 -6 1 -13 8 -13h410c7 0 11 7 8 13zM279 891l222 135c6 4 15 1 19 -5l15 -27c4 -6 1 -15 -5 -19l-228 -124c-6 -4 -15 -1 -19 5l-9 16c-4 6 -2 15 5 19z" />
    <glyph glyph-name="Abreve" unicode="&#x102;" horiz-adv-x="808" 
d="M22 16l342 748c5 9 15 16 26 16h28c11 0 21 -7 26 -16l342 -748c4 -7 -1 -16 -10 -16h-29c-11 0 -21 7 -25 16l-67 147c-4 8 -12 13 -20 13h-462c-8 0 -16 -5 -20 -13l-66 -147c-4 -9 -14 -16 -25 -16h-30c-9 0 -14 9 -10 16zM617 245l-207 458c-3 5 -9 5 -12 0
l-207 -458c-3 -6 1 -13 8 -13h410c7 0 11 7 8 13zM403 861c-75 0 -134 44 -168 103c-4 8 -1 20 7 24l10 6c9 5 19 2 25 -7c29 -48 74 -75 126 -75c53 0 98 27 127 75c6 9 16 12 25 7l10 -6c8 -4 11 -16 7 -24c-34 -59 -94 -103 -169 -103z" />
    <glyph glyph-name="Acircumflex" unicode="&#xc2;" horiz-adv-x="808" 
d="M22 16l342 748c5 9 15 16 26 16h28c11 0 21 -7 26 -16l342 -748c4 -7 -1 -16 -10 -16h-29c-11 0 -21 7 -25 16l-67 147c-4 8 -12 13 -20 13h-462c-8 0 -16 -5 -20 -13l-66 -147c-4 -9 -14 -16 -25 -16h-30c-9 0 -14 9 -10 16zM617 245l-207 458c-3 5 -9 5 -12 0
l-207 -458c-3 -6 1 -13 8 -13h410c7 0 11 7 8 13zM417 1016l147 -107c7 -6 9 -17 3 -25l-8 -9c-6 -8 -18 -9 -26 -4l-119 86c-6 5 -16 5 -22 0l-117 -85c-8 -6 -20 -5 -26 3l-8 9c-6 8 -4 19 3 25l145 107c8 7 20 7 28 0z" />
    <glyph glyph-name="Adieresis" unicode="&#xc4;" horiz-adv-x="808" 
d="M22 16l342 748c5 9 15 16 26 16h28c11 0 21 -7 26 -16l342 -748c4 -7 -1 -16 -10 -16h-29c-11 0 -21 7 -25 16l-67 147c-4 8 -12 13 -20 13h-462c-8 0 -16 -5 -20 -13l-66 -147c-4 -9 -14 -16 -25 -16h-30c-9 0 -14 9 -10 16zM617 245l-207 458c-3 5 -9 5 -12 0
l-207 -458c-3 -6 1 -13 8 -13h410c7 0 11 7 8 13zM295 878c-25 0 -46 20 -46 45s21 46 46 46s45 -21 45 -46s-20 -45 -45 -45zM513 878c-25 0 -46 20 -46 45s21 46 46 46s46 -21 46 -46s-21 -45 -46 -45z" />
    <glyph glyph-name="AEacute" unicode="&#x1fc;" horiz-adv-x="1249" 
d="M1168 0h-500c-10 0 -18 8 -18 18v144c0 8 -6 14 -14 14h-395c-9 0 -17 -4 -23 -11l-122 -151c-7 -9 -18 -14 -29 -14h-41c-7 0 -11 8 -7 14l610 752c7 9 18 14 29 14h510c10 0 18 -8 18 -18v-22c0 -10 -8 -18 -18 -18h-445c-8 0 -14 -6 -14 -14v-283c0 -8 6 -14 14 -14
h374c10 0 18 -8 18 -18v-20c0 -10 -8 -18 -18 -18h-374c-8 0 -14 -6 -14 -14v-269c0 -8 6 -14 14 -14h445c10 0 18 -8 18 -18v-22c0 -10 -8 -18 -18 -18zM641 688l-360 -445c-4 -5 -1 -11 5 -11h350c8 0 14 6 14 14v439c0 5 -6 7 -9 3zM662 891l222 135c6 4 15 1 19 -5
l15 -27c4 -6 1 -15 -5 -19l-228 -124c-6 -4 -15 -1 -19 5l-9 16c-4 6 -2 15 5 19z" />
    <glyph glyph-name="Agrave" unicode="&#xc0;" horiz-adv-x="808" 
d="M22 16l342 748c5 9 15 16 26 16h28c11 0 21 -7 26 -16l342 -748c4 -7 -1 -16 -10 -16h-29c-11 0 -21 7 -25 16l-67 147c-4 8 -12 13 -20 13h-462c-8 0 -16 -5 -20 -13l-66 -147c-4 -9 -14 -16 -25 -16h-30c-9 0 -14 9 -10 16zM617 245l-207 458c-3 5 -9 5 -12 0
l-207 -458c-3 -6 1 -13 8 -13h410c7 0 11 7 8 13zM311 1024l216 -131c8 -5 11 -16 6 -25l-5 -8c-5 -9 -16 -12 -25 -7l-220 120c-9 5 -12 16 -7 25l11 19c5 9 16 12 24 7z" />
    <glyph glyph-name="Amacron" unicode="&#x100;" horiz-adv-x="808" 
d="M22 16l342 748c5 9 15 16 26 16h28c11 0 21 -7 26 -16l342 -748c4 -7 -1 -16 -10 -16h-29c-11 0 -21 7 -25 16l-67 147c-4 8 -12 13 -20 13h-462c-8 0 -16 -5 -20 -13l-66 -147c-4 -9 -14 -16 -25 -16h-30c-9 0 -14 9 -10 16zM617 245l-207 458c-3 5 -9 5 -12 0
l-207 -458c-3 -6 1 -13 8 -13h410c7 0 11 7 8 13zM259 927h291c10 0 18 -8 18 -18v-13c0 -10 -8 -18 -18 -18h-291c-10 0 -18 8 -18 18v13c0 10 8 18 18 18z" />
    <glyph glyph-name="Aogonek" unicode="&#x104;" horiz-adv-x="807" 
d="M21 16l342 748c5 9 15 16 26 16h28c11 0 21 -7 26 -16l342 -747c5 -10 2 -22 -6 -29c-44 -38 -90 -89 -90 -136c0 -40 34 -59 89 -52c11 1 19 -5 21 -16l2 -11c2 -9 -6 -19 -15 -20c-82 -11 -142 24 -142 90c0 61 49 113 96 152c2 2 1 5 -2 5h-2c-5 0 -9 3 -11 7l-71 156
c-4 8 -12 13 -20 13h-462c-8 0 -16 -5 -20 -13l-66 -147c-4 -9 -14 -16 -25 -16h-30c-9 0 -14 9 -10 16zM616 245l-207 458c-3 5 -9 5 -12 0l-207 -458c-3 -6 1 -13 8 -13h410c7 0 11 7 8 13z" />
    <glyph glyph-name="Aring" unicode="&#xc5;" horiz-adv-x="808" 
d="M22 16l342 748c5 9 15 16 26 16h28c11 0 21 -7 26 -16l342 -748c4 -7 -1 -16 -10 -16h-29c-11 0 -21 7 -25 16l-67 147c-4 8 -12 13 -20 13h-462c-8 0 -16 -5 -20 -13l-66 -147c-4 -9 -14 -16 -25 -16h-30c-9 0 -14 9 -10 16zM617 245l-207 458c-3 5 -9 5 -12 0
l-207 -458c-3 -6 1 -13 8 -13h410c7 0 11 7 8 13zM405 841c-65 0 -115 50 -115 115c0 63 50 114 115 114c63 0 114 -50 114 -114c0 -65 -51 -115 -114 -115zM405 1027c-40 0 -72 -33 -72 -71c0 -40 32 -72 72 -72c38 0 71 32 71 72c0 38 -33 71 -71 71z" />
    <glyph glyph-name="Atilde" unicode="&#xc3;" horiz-adv-x="808" 
d="M22 16l342 748c5 9 15 16 26 16h28c11 0 21 -7 26 -16l342 -748c4 -7 -1 -16 -10 -16h-29c-11 0 -21 7 -25 16l-67 147c-4 8 -12 13 -20 13h-462c-8 0 -16 -5 -20 -13l-66 -147c-4 -9 -14 -16 -25 -16h-30c-9 0 -14 9 -10 16zM617 245l-207 458c-3 5 -9 5 -12 0
l-207 -458c-3 -6 1 -13 8 -13h410c7 0 11 7 8 13zM319 953c-34 0 -55 -31 -60 -72c-1 -11 -9 -18 -20 -18h-9c-9 0 -17 9 -16 18c5 57 33 123 105 123c34 0 58 -13 102 -55c24 -24 45 -44 71 -44c32 0 52 31 55 72c1 11 9 18 20 18h10c9 0 17 -9 16 -18
c-4 -56 -30 -123 -101 -123c-35 0 -55 15 -99 55c-28 25 -48 44 -74 44z" />
    <glyph glyph-name="Cacute" unicode="&#x106;" horiz-adv-x="859" 
d="M463 44c119 0 224 60 286 153c6 8 17 11 26 6l21 -12c9 -4 11 -16 6 -23c-72 -110 -197 -183 -339 -183c-225 0 -407 181 -407 405c0 223 182 405 407 405c141 0 266 -73 338 -183c5 -7 3 -19 -6 -23l-20 -11c-9 -5 -20 -3 -26 6c-63 92 -167 152 -286 152
c-191 0 -347 -156 -347 -346c0 -191 156 -346 347 -346zM337 891l222 135c6 4 15 1 19 -5l15 -27c4 -6 1 -15 -5 -19l-228 -124c-6 -4 -15 -1 -19 5l-9 16c-4 6 -2 15 5 19z" />
    <glyph glyph-name="Ccaron" unicode="&#x10c;" horiz-adv-x="859" 
d="M463 44c119 0 224 60 286 153c6 8 17 11 26 6l21 -12c9 -4 11 -16 6 -23c-72 -110 -197 -183 -339 -183c-225 0 -407 181 -407 405c0 223 182 405 407 405c141 0 266 -73 338 -183c5 -7 3 -19 -6 -23l-20 -11c-9 -5 -20 -3 -26 6c-63 92 -167 152 -286 152
c-191 0 -347 -156 -347 -346c0 -191 156 -346 347 -346zM627 982l-153 -113c-6 -5 -16 -4 -22 0l-151 113c-6 4 -7 13 -2 19l12 15c5 6 14 7 20 3l117 -85c9 -7 21 -7 30 -1l119 86c6 4 15 3 20 -3l12 -15c5 -6 4 -15 -2 -19z" />
    <glyph glyph-name="Ccedilla" unicode="&#xc7;" horiz-adv-x="859" 
d="M463 44c119 0 224 60 286 153c6 8 17 11 26 6l22 -12c8 -4 11 -15 5 -23c-70 -106 -189 -178 -326 -183c-8 0 -15 -5 -18 -14l-11 -31c-3 -7 2 -14 9 -15c79 -9 113 -58 113 -102c0 -52 -44 -102 -120 -102c-42 0 -86 15 -109 25c-8 3 -12 15 -8 23l4 8c4 10 15 13 24 9
c21 -9 53 -20 87 -20c55 0 81 31 81 62s-26 66 -99 64c-9 -1 -17 3 -22 9l-1 1c-5 6 -7 15 -4 22l18 50c3 6 -2 14 -9 15c-200 25 -355 194 -355 401c0 223 182 405 407 405c141 0 266 -73 338 -183c5 -7 3 -19 -6 -23l-20 -11c-9 -5 -20 -3 -26 6c-63 92 -167 152 -286 152
c-191 0 -347 -156 -347 -346c0 -191 156 -346 347 -346z" />
    <glyph glyph-name="Cdotaccent" unicode="&#x10a;" horiz-adv-x="859" 
d="M463 44c119 0 224 60 286 153c6 8 17 11 26 6l21 -12c9 -4 11 -16 6 -23c-72 -110 -197 -183 -339 -183c-225 0 -407 181 -407 405c0 223 182 405 407 405c141 0 266 -73 338 -183c5 -7 3 -19 -6 -23l-20 -11c-9 -5 -20 -3 -26 6c-63 92 -167 152 -286 152
c-191 0 -347 -156 -347 -346c0 -191 156 -346 347 -346zM463 868c-25 0 -46 20 -46 45s21 46 46 46s45 -21 45 -46s-20 -45 -45 -45z" />
    <glyph glyph-name="Dcaron" unicode="&#x10e;" horiz-adv-x="841" 
d="M417 0h-287c-10 0 -18 8 -18 18v744c0 10 8 18 18 18h287c237 0 363 -172 363 -390c0 -219 -126 -390 -363 -390zM721 390c0 189 -110 332 -307 332h-229c-8 0 -14 -6 -14 -14v-636c0 -8 6 -14 14 -14h229c197 0 307 143 307 332zM609 982l-153 -113c-6 -5 -16 -4 -22 0
l-151 113c-6 4 -7 13 -2 19l12 15c5 6 14 7 20 3l117 -85c9 -7 21 -7 30 -1l119 86c6 4 15 3 20 -3l12 -15c5 -6 4 -15 -2 -19z" />
    <glyph glyph-name="Dcroat" unicode="&#x110;" horiz-adv-x="842" 
d="M418 0h-287c-10 0 -18 8 -18 18v330c0 8 -6 14 -14 14h-56c-10 0 -18 8 -18 18v17c0 10 8 18 18 18h56c8 0 14 6 14 14v333c0 10 8 18 18 18h287c237 0 363 -172 363 -390c0 -219 -126 -390 -363 -390zM186 415h248c10 0 18 -8 18 -18v-17c0 -10 -8 -18 -18 -18h-248
c-8 0 -14 -6 -14 -14v-276c0 -8 6 -14 14 -14h229c197 0 307 143 307 332s-110 332 -307 332h-229c-8 0 -14 -6 -14 -14v-279c0 -8 6 -14 14 -14z" />
    <glyph glyph-name="Eacute" unicode="&#xc9;" horiz-adv-x="710" 
d="M630 0h-500c-10 0 -18 8 -18 18v744c0 10 8 18 18 18h500c10 0 18 -8 18 -18v-22c0 -10 -8 -18 -18 -18h-445c-8 0 -14 -6 -14 -14v-283c0 -8 6 -14 14 -14h374c10 0 18 -8 18 -18v-20c0 -10 -8 -18 -18 -18h-374c-8 0 -14 -6 -14 -14v-269c0 -8 6 -14 14 -14h445
c10 0 18 -8 18 -18v-22c0 -10 -8 -18 -18 -18zM254 891l222 135c6 4 15 1 19 -5l15 -27c4 -6 1 -15 -5 -19l-228 -124c-6 -4 -15 -1 -19 5l-9 16c-4 6 -2 15 5 19z" />
    <glyph glyph-name="Ecaron" unicode="&#x11a;" horiz-adv-x="710" 
d="M630 0h-500c-10 0 -18 8 -18 18v744c0 10 8 18 18 18h500c10 0 18 -8 18 -18v-22c0 -10 -8 -18 -18 -18h-445c-8 0 -14 -6 -14 -14v-283c0 -8 6 -14 14 -14h374c10 0 18 -8 18 -18v-20c0 -10 -8 -18 -18 -18h-374c-8 0 -14 -6 -14 -14v-269c0 -8 6 -14 14 -14h445
c10 0 18 -8 18 -18v-22c0 -10 -8 -18 -18 -18zM543 982l-153 -113c-6 -5 -16 -4 -22 0l-151 113c-6 4 -7 13 -2 19l12 15c5 6 14 7 20 3l117 -85c9 -7 21 -7 30 -1l119 86c6 4 15 3 20 -3l12 -15c5 -6 4 -15 -2 -19z" />
    <glyph glyph-name="Ecircumflex" unicode="&#xca;" horiz-adv-x="710" 
d="M630 0h-500c-10 0 -18 8 -18 18v744c0 10 8 18 18 18h500c10 0 18 -8 18 -18v-22c0 -10 -8 -18 -18 -18h-445c-8 0 -14 -6 -14 -14v-283c0 -8 6 -14 14 -14h374c10 0 18 -8 18 -18v-20c0 -10 -8 -18 -18 -18h-374c-8 0 -14 -6 -14 -14v-269c0 -8 6 -14 14 -14h445
c10 0 18 -8 18 -18v-22c0 -10 -8 -18 -18 -18zM393 1016l147 -107c7 -6 9 -17 3 -25l-8 -9c-6 -8 -18 -9 -26 -4l-119 86c-6 5 -16 5 -22 0l-117 -85c-8 -6 -20 -5 -26 3l-8 9c-6 8 -4 19 3 25l145 107c8 7 20 7 28 0z" />
    <glyph glyph-name="Edieresis" unicode="&#xcb;" horiz-adv-x="710" 
d="M630 0h-500c-10 0 -18 8 -18 18v744c0 10 8 18 18 18h500c10 0 18 -8 18 -18v-22c0 -10 -8 -18 -18 -18h-445c-8 0 -14 -6 -14 -14v-283c0 -8 6 -14 14 -14h374c10 0 18 -8 18 -18v-20c0 -10 -8 -18 -18 -18h-374c-8 0 -14 -6 -14 -14v-269c0 -8 6 -14 14 -14h445
c10 0 18 -8 18 -18v-22c0 -10 -8 -18 -18 -18zM271 878c-25 0 -46 20 -46 45s21 46 46 46s45 -21 45 -46s-20 -45 -45 -45zM489 878c-25 0 -46 20 -46 45s21 46 46 46s46 -21 46 -46s-21 -45 -46 -45z" />
    <glyph glyph-name="Edotaccent" unicode="&#x116;" horiz-adv-x="710" 
d="M630 0h-500c-10 0 -18 8 -18 18v744c0 10 8 18 18 18h500c10 0 18 -8 18 -18v-22c0 -10 -8 -18 -18 -18h-445c-8 0 -14 -6 -14 -14v-283c0 -8 6 -14 14 -14h374c10 0 18 -8 18 -18v-20c0 -10 -8 -18 -18 -18h-374c-8 0 -14 -6 -14 -14v-269c0 -8 6 -14 14 -14h445
c10 0 18 -8 18 -18v-22c0 -10 -8 -18 -18 -18zM380 868c-25 0 -46 20 -46 45s21 46 46 46s45 -21 45 -46s-20 -45 -45 -45z" />
    <glyph glyph-name="Egrave" unicode="&#xc8;" horiz-adv-x="710" 
d="M630 0h-500c-10 0 -18 8 -18 18v744c0 10 8 18 18 18h500c10 0 18 -8 18 -18v-22c0 -10 -8 -18 -18 -18h-445c-8 0 -14 -6 -14 -14v-283c0 -8 6 -14 14 -14h374c10 0 18 -8 18 -18v-20c0 -10 -8 -18 -18 -18h-374c-8 0 -14 -6 -14 -14v-269c0 -8 6 -14 14 -14h445
c10 0 18 -8 18 -18v-22c0 -10 -8 -18 -18 -18zM286 1024l216 -131c8 -5 11 -16 6 -25l-5 -8c-5 -9 -16 -12 -25 -7l-220 120c-9 5 -12 16 -7 25l11 19c5 9 16 12 24 7z" />
    <glyph glyph-name="Emacron" unicode="&#x112;" horiz-adv-x="710" 
d="M630 0h-500c-10 0 -18 8 -18 18v744c0 10 8 18 18 18h500c10 0 18 -8 18 -18v-22c0 -10 -8 -18 -18 -18h-445c-8 0 -14 -6 -14 -14v-283c0 -8 6 -14 14 -14h374c10 0 18 -8 18 -18v-20c0 -10 -8 -18 -18 -18h-374c-8 0 -14 -6 -14 -14v-269c0 -8 6 -14 14 -14h445
c10 0 18 -8 18 -18v-22c0 -10 -8 -18 -18 -18zM235 927h291c10 0 18 -8 18 -18v-13c0 -10 -8 -18 -18 -18h-291c-10 0 -18 8 -18 18v13c0 10 8 18 18 18z" />
    <glyph glyph-name="Eogonek" unicode="&#x118;" horiz-adv-x="709" 
d="M587 0h-458c-10 0 -18 8 -18 18v744c0 10 8 18 18 18h500c10 0 18 -8 18 -18v-22c0 -10 -8 -18 -18 -18h-445c-8 0 -14 -6 -14 -14v-283c0 -8 6 -14 14 -14h374c10 0 18 -8 18 -18v-20c0 -10 -8 -18 -18 -18h-374c-8 0 -14 -6 -14 -14v-269c0 -8 6 -14 14 -14h445
c10 0 18 -8 18 -18v-21c0 -11 -5 -23 -13 -30c-44 -40 -90 -90 -90 -137c0 -40 34 -59 89 -52c11 1 19 -5 21 -16l2 -11c2 -9 -6 -19 -15 -20c-82 -11 -142 24 -142 90c0 59 46 110 91 148c4 3 2 9 -3 9z" />
    <glyph glyph-name="Gbreve" unicode="&#x11e;" horiz-adv-x="884" 
d="M743 349h-253c-10 0 -18 8 -18 18v16c0 10 8 18 18 18h305c10 0 18 -8 18 -18v-365c0 -10 -8 -18 -18 -18h-14c-10 0 -18 8 -18 18v78c0 6 -1 18 -1 24l-1 2c0 4 -5 6 -8 2c-65 -86 -172 -139 -290 -139c-225 0 -407 181 -407 405c0 223 182 405 407 405
c127 0 240 -59 315 -151c6 -7 4 -19 -4 -24l-19 -13c-8 -6 -19 -5 -26 3c-64 77 -160 126 -266 126c-191 0 -347 -156 -347 -346c0 -191 156 -346 347 -346c119 0 224 61 287 155c4 7 7 17 7 25v111c0 8 -6 14 -14 14zM463 861c-75 0 -134 44 -168 103c-4 8 -1 20 7 24l10 6
c9 5 19 2 25 -7c29 -48 74 -75 126 -75c53 0 98 27 127 75c6 9 16 12 25 7l10 -6c8 -4 11 -16 7 -24c-34 -59 -94 -103 -169 -103z" />
    <glyph glyph-name="Gdotaccent" unicode="&#x120;" horiz-adv-x="884" 
d="M743 349h-253c-10 0 -18 8 -18 18v16c0 10 8 18 18 18h305c10 0 18 -8 18 -18v-365c0 -10 -8 -18 -18 -18h-14c-10 0 -18 8 -18 18v78c0 6 -1 18 -1 24l-1 2c0 4 -5 6 -8 2c-65 -86 -172 -139 -290 -139c-225 0 -407 181 -407 405c0 223 182 405 407 405
c127 0 240 -59 315 -151c6 -7 4 -19 -4 -24l-19 -13c-8 -6 -19 -5 -26 3c-64 77 -160 126 -266 126c-191 0 -347 -156 -347 -346c0 -191 156 -346 347 -346c119 0 224 61 287 155c4 7 7 17 7 25v111c0 8 -6 14 -14 14zM463 868c-25 0 -46 20 -46 45s21 46 46 46
s45 -21 45 -46s-20 -45 -45 -45z" />
    <glyph glyph-name="Gcommaaccent" unicode="&#x122;" horiz-adv-x="884" 
d="M743 349h-253c-10 0 -18 8 -18 18v16c0 10 8 18 18 18h305c10 0 18 -8 18 -18v-365c0 -10 -8 -18 -18 -18h-14c-10 0 -18 8 -18 18v78c0 6 -1 18 -1 24l-1 2c0 4 -5 6 -8 2c-65 -86 -172 -139 -290 -139c-225 0 -407 181 -407 405c0 223 182 405 407 405
c127 0 240 -59 315 -151c6 -7 4 -19 -4 -24l-19 -13c-8 -6 -19 -5 -26 3c-64 77 -160 126 -266 126c-191 0 -347 -156 -347 -346c0 -191 156 -346 347 -346c119 0 224 61 287 155c4 7 7 17 7 25v111c0 8 -6 14 -14 14zM511 -116c0 -66 -57 -129 -98 -166c-6 -5 -16 -5 -21 1
l-1 2c-6 6 -5 16 1 21c20 21 51 53 67 92c3 8 0 14 -9 17c-16 4 -30 20 -30 40c0 24 20 44 44 44s47 -19 47 -51z" />
    <glyph glyph-name="Hbar" unicode="&#x126;" horiz-adv-x="878" 
d="M707 634v128c0 10 8 18 18 18h23c10 0 18 -8 18 -18v-128c0 -8 6 -14 14 -14h42c10 0 18 -8 18 -18v-13c0 -10 -8 -18 -18 -18h-42c-8 0 -14 -6 -14 -14v-539c0 -10 -8 -18 -18 -18h-23c-10 0 -18 8 -18 18v323c0 8 -6 14 -14 14h-508c-8 0 -14 -6 -14 -14v-323
c0 -10 -8 -18 -18 -18h-23c-10 0 -18 8 -18 18v539c0 8 -6 14 -14 14h-42c-10 0 -18 8 -18 18v13c0 10 8 18 18 18h42c8 0 14 6 14 14v128c0 10 8 18 18 18h23c10 0 18 -8 18 -18v-128c0 -8 6 -14 14 -14h508c8 0 14 6 14 14zM693 571h-508c-8 0 -14 -6 -14 -14v-132
c0 -8 6 -14 14 -14h508c8 0 14 6 14 14v132c0 8 -6 14 -14 14z" />
    <glyph glyph-name="Iacute" unicode="&#xcd;" horiz-adv-x="282" 
d="M112 18v744c0 10 8 18 18 18h23c10 0 18 -8 18 -18v-744c0 -10 -8 -18 -18 -18h-23c-10 0 -18 8 -18 18zM16 891l222 135c6 4 15 1 19 -5l15 -27c4 -6 1 -15 -5 -19l-228 -124c-6 -4 -15 -1 -19 5l-9 16c-4 6 -2 15 5 19z" />
    <glyph glyph-name="Ibreve" unicode="&#x12c;" horiz-adv-x="282" 
d="M112 18v744c0 10 8 18 18 18h23c10 0 18 -8 18 -18v-744c0 -10 -8 -18 -18 -18h-23c-10 0 -18 8 -18 18zM141 861c-75 0 -134 44 -168 103c-4 8 -1 20 7 24l10 6c9 5 19 2 25 -7c29 -48 74 -75 126 -75c53 0 98 27 127 75c6 9 16 12 25 7l10 -6c8 -4 11 -16 7 -24
c-34 -59 -94 -103 -169 -103z" />
    <glyph glyph-name="Icircumflex" unicode="&#xce;" horiz-adv-x="282" 
d="M112 18v744c0 10 8 18 18 18h23c10 0 18 -8 18 -18v-744c0 -10 -8 -18 -18 -18h-23c-10 0 -18 8 -18 18zM155 1016l147 -107c7 -6 9 -17 3 -25l-8 -9c-6 -8 -18 -9 -26 -4l-119 86c-6 5 -16 5 -22 0l-117 -85c-8 -6 -20 -5 -26 3l-8 9c-6 8 -4 19 3 25l145 107
c8 7 20 7 28 0z" />
    <glyph glyph-name="Idieresis" unicode="&#xcf;" horiz-adv-x="282" 
d="M112 18v744c0 10 8 18 18 18h23c10 0 18 -8 18 -18v-744c0 -10 -8 -18 -18 -18h-23c-10 0 -18 8 -18 18zM32 878c-25 0 -46 20 -46 45s21 46 46 46s45 -21 45 -46s-20 -45 -45 -45zM250 878c-25 0 -46 20 -46 45s21 46 46 46s46 -21 46 -46s-21 -45 -46 -45z" />
    <glyph glyph-name="Idotaccent" unicode="&#x130;" horiz-adv-x="282" 
d="M112 18v744c0 10 8 18 18 18h23c10 0 18 -8 18 -18v-744c0 -10 -8 -18 -18 -18h-23c-10 0 -18 8 -18 18zM141 868c-25 0 -46 20 -46 45s21 46 46 46s45 -21 45 -46s-20 -45 -45 -45z" />
    <glyph glyph-name="Igrave" unicode="&#xcc;" horiz-adv-x="282" 
d="M112 18v744c0 10 8 18 18 18h23c10 0 18 -8 18 -18v-744c0 -10 -8 -18 -18 -18h-23c-10 0 -18 8 -18 18zM48 1024l216 -131c8 -5 11 -16 6 -25l-5 -8c-5 -9 -16 -12 -25 -7l-220 120c-9 5 -12 16 -7 25l11 19c5 9 16 12 24 7z" />
    <glyph glyph-name="IJ" unicode="&#x132;" horiz-adv-x="926" 
d="M112 18v744c0 10 8 18 18 18h23c10 0 18 -8 18 -18v-744c0 -10 -8 -18 -18 -18h-23c-10 0 -18 8 -18 18zM764 260v502c0 10 8 18 18 18h23c10 0 18 -8 18 -18v-502c0 -180 -123 -275 -266 -275s-268 95 -268 275v48c0 10 8 18 18 18h24c10 0 18 -8 18 -18v-48
c0 -147 97 -217 208 -217c109 0 207 70 207 217z" />
    <glyph glyph-name="Imacron" unicode="&#x12a;" horiz-adv-x="282" 
d="M112 18v744c0 10 8 18 18 18h23c10 0 18 -8 18 -18v-744c0 -10 -8 -18 -18 -18h-23c-10 0 -18 8 -18 18zM-4 927h291c10 0 18 -8 18 -18v-13c0 -10 -8 -18 -18 -18h-291c-10 0 -18 8 -18 18v13c0 10 8 18 18 18z" />
    <glyph glyph-name="Iogonek" unicode="&#x12e;" horiz-adv-x="283" 
d="M113 5v757c0 10 8 18 18 18h23c10 0 18 -8 18 -18v-744c0 -11 -5 -22 -14 -30c-44 -38 -90 -89 -90 -136c0 -40 34 -59 89 -52c11 1 19 -5 21 -16l2 -11c2 -9 -6 -19 -15 -20c-82 -11 -142 24 -142 90c0 62 51 115 98 154c1 1 1 3 -1 3h-2c-3 0 -5 2 -5 5z" />
    <glyph glyph-name="Itilde" unicode="&#x128;" horiz-adv-x="282" 
d="M112 18v744c0 10 8 18 18 18h23c10 0 18 -8 18 -18v-744c0 -10 -8 -18 -18 -18h-23c-10 0 -18 8 -18 18zM57 953c-34 0 -55 -31 -60 -72c-1 -11 -9 -18 -20 -18h-9c-9 0 -17 9 -16 18c5 57 33 123 105 123c34 0 58 -13 102 -55c24 -24 45 -44 71 -44c32 0 52 31 55 72
c1 11 9 18 20 18h10c9 0 17 -9 16 -18c-4 -56 -30 -123 -101 -123c-35 0 -55 15 -99 55c-28 25 -48 44 -74 44z" />
    <glyph glyph-name="Jcircumflex" unicode="&#x134;" horiz-adv-x="681" 
d="M519 260v502c0 10 8 18 18 18h23c10 0 18 -8 18 -18v-502c0 -180 -123 -275 -266 -275s-268 95 -268 275v48c0 10 8 18 18 18h24c10 0 18 -8 18 -18v-48c0 -147 97 -217 208 -217c109 0 207 70 207 217zM562 1016l147 -107c7 -6 9 -17 3 -25l-8 -9c-6 -8 -18 -9 -26 -4
l-119 86c-6 5 -16 5 -22 0l-117 -85c-8 -6 -20 -5 -26 3l-8 9c-6 8 -4 19 3 25l145 107c8 7 20 7 28 0z" />
    <glyph glyph-name="Kcommaaccent" unicode="&#x136;" horiz-adv-x="778" 
d="M153 0h-23c-10 0 -18 8 -18 18v744c0 10 8 18 18 18h23c10 0 18 -8 18 -18v-444c0 -5 6 -8 10 -4l480 454c8 7 20 12 31 12h44c7 0 10 -8 5 -12l-316 -300c-5 -6 -6 -15 -1 -21l333 -433c5 -6 0 -14 -7 -14h-39c-11 0 -22 6 -29 14l-302 391c-5 6 -14 6 -19 1l-180 -170
c-6 -6 -10 -15 -10 -24v-194c0 -10 -8 -18 -18 -18zM486 -116c0 -66 -57 -129 -98 -166c-6 -5 -16 -5 -21 1l-1 2c-6 6 -5 16 1 21c20 21 51 53 67 92c3 8 0 14 -9 17c-16 4 -30 20 -30 40c0 24 20 44 44 44s47 -19 47 -51z" />
    <glyph glyph-name="Lacute" unicode="&#x139;" horiz-adv-x="655" 
d="M604 0h-474c-10 0 -18 8 -18 18v744c0 10 8 18 18 18h23c10 0 18 -8 18 -18v-690c0 -8 6 -14 14 -14h419c10 0 18 -8 18 -18v-22c0 -10 -8 -18 -18 -18zM16 891l222 135c6 4 15 1 19 -5l15 -27c4 -6 1 -15 -5 -19l-228 -124c-6 -4 -15 -1 -19 5l-9 16c-4 6 -2 15 5 19z
" />
    <glyph glyph-name="Lcaron" unicode="&#x13d;" horiz-adv-x="655" 
d="M604 0h-474c-10 0 -18 8 -18 18v744c0 10 8 18 18 18h23c10 0 18 -8 18 -18v-690c0 -8 6 -14 14 -14h419c10 0 18 -8 18 -18v-22c0 -10 -8 -18 -18 -18zM389 739c0 -66 -57 -129 -98 -166c-6 -5 -16 -5 -21 1l-1 2c-6 6 -5 16 1 21c20 21 51 53 67 92c3 8 0 14 -9 17
c-16 4 -30 20 -30 40c0 24 20 44 44 44s47 -19 47 -51z" />
    <glyph glyph-name="Lcommaaccent" unicode="&#x13b;" horiz-adv-x="655" 
d="M604 0h-474c-10 0 -18 8 -18 18v744c0 10 8 18 18 18h23c10 0 18 -8 18 -18v-690c0 -8 6 -14 14 -14h419c10 0 18 -8 18 -18v-22c0 -10 -8 -18 -18 -18zM414 -116c0 -66 -57 -129 -98 -166c-6 -5 -16 -5 -21 1l-1 2c-6 6 -5 16 1 21c20 21 51 53 67 92c3 8 0 14 -9 17
c-16 4 -30 20 -30 40c0 24 20 44 44 44s47 -19 47 -51z" />
    <glyph glyph-name="Ldot" unicode="&#x13f;" horiz-adv-x="655" 
d="M604 0h-474c-10 0 -18 8 -18 18v744c0 10 8 18 18 18h23c10 0 18 -8 18 -18v-690c0 -8 6 -14 14 -14h419c10 0 18 -8 18 -18v-22c0 -10 -8 -18 -18 -18zM396 373c-25 0 -46 20 -46 45s21 46 46 46s45 -21 45 -46s-20 -45 -45 -45z" />
    <glyph glyph-name="Lslash" unicode="&#x141;" horiz-adv-x="655" 
d="M112 411v351c0 10 8 18 18 18h23c10 0 18 -8 18 -18v-324c0 -7 7 -11 13 -8l215 98c7 3 16 -2 16 -11v-26c0 -11 -7 -21 -16 -25l-215 -98c-8 -4 -13 -12 -13 -20v-276c0 -8 6 -14 14 -14h420c10 0 18 -8 18 -18v-22c0 -10 -8 -18 -18 -18h-475c-10 0 -18 8 -18 18v303
c0 7 -7 11 -13 8l-49 -22c-7 -3 -16 2 -16 11v26c0 11 7 21 16 25l49 22c8 4 13 12 13 20z" />
    <glyph glyph-name="Eng" unicode="&#x14a;" horiz-adv-x="874" 
d="M170 664v-646c0 -10 -8 -18 -18 -18h-23c-10 0 -18 8 -18 18v744c0 10 8 18 18 18h17c11 0 22 -6 29 -14l520 -654c3 -4 9 -2 9 3v647c0 10 8 18 18 18h23c10 0 18 -8 18 -18v-801c0 -180 -127 -275 -264 -275c-123 0 -198 77 -228 155c-3 9 2 20 10 23l22 7
c10 3 20 -1 24 -11c24 -60 82 -116 174 -116c103 0 203 69 203 217v32c0 9 -3 18 -9 25l-516 649c-3 4 -9 2 -9 -3z" />
    <glyph glyph-name="Nacute" unicode="&#x143;" horiz-adv-x="875" 
d="M171 664v-646c0 -10 -8 -18 -18 -18h-23c-10 0 -18 8 -18 18v744c0 10 8 18 18 18h17c11 0 22 -6 29 -14l520 -654c3 -4 9 -2 9 3v647c0 10 8 18 18 18h23c10 0 18 -8 18 -18v-744c0 -10 -8 -18 -18 -18h-17c-11 0 -22 5 -29 14l-520 653c-3 4 -9 2 -9 -3zM313 891
l222 135c6 4 15 1 19 -5l15 -27c4 -6 1 -15 -5 -19l-228 -124c-6 -4 -15 -1 -19 5l-9 16c-4 6 -2 15 5 19z" />
    <glyph glyph-name="Ncaron" unicode="&#x147;" horiz-adv-x="875" 
d="M171 664v-646c0 -10 -8 -18 -18 -18h-23c-10 0 -18 8 -18 18v744c0 10 8 18 18 18h17c11 0 22 -6 29 -14l520 -654c3 -4 9 -2 9 3v647c0 10 8 18 18 18h23c10 0 18 -8 18 -18v-744c0 -10 -8 -18 -18 -18h-17c-11 0 -22 5 -29 14l-520 653c-3 4 -9 2 -9 -3zM601 982
l-153 -113c-6 -5 -16 -4 -22 0l-151 113c-6 4 -7 13 -2 19l12 15c5 6 14 7 20 3l117 -85c9 -7 21 -7 30 -1l119 86c6 4 15 3 20 -3l12 -15c5 -6 4 -15 -2 -19z" />
    <glyph glyph-name="Ncommaaccent" unicode="&#x145;" horiz-adv-x="875" 
d="M171 664v-646c0 -10 -8 -18 -18 -18h-23c-10 0 -18 8 -18 18v744c0 10 8 18 18 18h17c11 0 22 -6 29 -14l520 -654c3 -4 9 -2 9 3v647c0 10 8 18 18 18h23c10 0 18 -8 18 -18v-744c0 -10 -8 -18 -18 -18h-17c-11 0 -22 5 -29 14l-520 653c-3 4 -9 2 -9 -3zM485 -116
c0 -66 -57 -129 -98 -166c-6 -5 -16 -5 -21 1l-1 2c-6 6 -5 16 1 21c20 21 51 53 67 92c3 8 0 14 -9 17c-16 4 -30 20 -30 40c0 24 20 44 44 44s47 -19 47 -51z" />
    <glyph glyph-name="Ntilde" unicode="&#xd1;" horiz-adv-x="875" 
d="M171 664v-646c0 -10 -8 -18 -18 -18h-23c-10 0 -18 8 -18 18v744c0 10 8 18 18 18h17c11 0 22 -6 29 -14l520 -654c3 -4 9 -2 9 3v647c0 10 8 18 18 18h23c10 0 18 -8 18 -18v-744c0 -10 -8 -18 -18 -18h-17c-11 0 -22 5 -29 14l-520 653c-3 4 -9 2 -9 -3zM353 953
c-34 0 -55 -31 -60 -72c-1 -11 -9 -18 -20 -18h-9c-9 0 -17 9 -16 18c5 57 33 123 105 123c34 0 58 -13 102 -55c24 -24 45 -44 71 -44c32 0 52 31 55 72c1 11 9 18 20 18h10c9 0 17 -9 16 -18c-4 -56 -30 -123 -101 -123c-35 0 -55 15 -99 55c-28 25 -48 44 -74 44z" />
    <glyph glyph-name="Oacute" unicode="&#xd3;" 
d="M463 -15c-225 0 -407 181 -407 405c0 223 182 405 407 405c224 0 406 -182 406 -405c0 -224 -182 -405 -406 -405zM463 736c-191 0 -347 -156 -347 -346c0 -191 156 -346 347 -346c190 0 346 155 346 346c0 190 -156 346 -346 346zM337 891l222 135c6 4 15 1 19 -5
l15 -27c4 -6 1 -15 -5 -19l-228 -124c-6 -4 -15 -1 -19 5l-9 16c-4 6 -2 15 5 19z" />
    <glyph glyph-name="Obreve" unicode="&#x14e;" 
d="M463 -15c-225 0 -407 181 -407 405c0 223 182 405 407 405c224 0 406 -182 406 -405c0 -224 -182 -405 -406 -405zM463 736c-191 0 -347 -156 -347 -346c0 -191 156 -346 347 -346c190 0 346 155 346 346c0 190 -156 346 -346 346zM462 861c-75 0 -134 44 -168 103
c-4 8 -1 20 7 24l10 6c9 5 19 2 25 -7c29 -48 74 -75 126 -75c53 0 98 27 127 75c6 9 16 12 25 7l10 -6c8 -4 11 -16 7 -24c-34 -59 -94 -103 -169 -103z" />
    <glyph glyph-name="Ocircumflex" unicode="&#xd4;" 
d="M463 -15c-225 0 -407 181 -407 405c0 223 182 405 407 405c224 0 406 -182 406 -405c0 -224 -182 -405 -406 -405zM463 736c-191 0 -347 -156 -347 -346c0 -191 156 -346 347 -346c190 0 346 155 346 346c0 190 -156 346 -346 346zM476 1016l147 -107c7 -6 9 -17 3 -25
l-8 -9c-6 -8 -18 -9 -26 -4l-119 86c-6 5 -16 5 -22 0l-117 -85c-8 -6 -20 -5 -26 3l-8 9c-6 8 -4 19 3 25l145 107c8 7 20 7 28 0z" />
    <glyph glyph-name="Odieresis" unicode="&#xd6;" 
d="M463 -15c-225 0 -407 181 -407 405c0 223 182 405 407 405c224 0 406 -182 406 -405c0 -224 -182 -405 -406 -405zM463 736c-191 0 -347 -156 -347 -346c0 -191 156 -346 347 -346c190 0 346 155 346 346c0 190 -156 346 -346 346zM354 878c-25 0 -46 20 -46 45
s21 46 46 46s45 -21 45 -46s-20 -45 -45 -45zM572 878c-25 0 -46 20 -46 45s21 46 46 46s46 -21 46 -46s-21 -45 -46 -45z" />
    <glyph glyph-name="Ograve" unicode="&#xd2;" 
d="M463 -15c-225 0 -407 181 -407 405c0 223 182 405 407 405c224 0 406 -182 406 -405c0 -224 -182 -405 -406 -405zM463 736c-191 0 -347 -156 -347 -346c0 -191 156 -346 347 -346c190 0 346 155 346 346c0 190 -156 346 -346 346zM369 1024l216 -131c8 -5 11 -16 6 -25
l-5 -8c-5 -9 -16 -12 -25 -7l-220 120c-9 5 -12 16 -7 25l11 19c5 9 16 12 24 7z" />
    <glyph glyph-name="Ohungarumlaut" unicode="&#x150;" 
d="M463 -15c-225 0 -407 181 -407 405c0 223 182 405 407 405c224 0 406 -182 406 -405c0 -224 -182 -405 -406 -405zM463 736c-191 0 -347 -156 -347 -346c0 -191 156 -346 347 -346c190 0 346 155 346 346c0 190 -156 346 -346 346zM493 1026l-150 -144
c-7 -6 -19 -6 -26 1l-7 7c-7 7 -7 19 -1 26l144 150c6 7 18 7 25 0l15 -15c7 -7 7 -19 0 -25zM716 1026l-150 -144c-7 -6 -19 -6 -26 1l-6 7c-7 7 -7 19 -1 26l143 150c6 7 18 7 25 0l15 -15c7 -7 7 -19 0 -25z" />
    <glyph glyph-name="Omacron" unicode="&#x14c;" 
d="M463 -15c-225 0 -407 181 -407 405c0 223 182 405 407 405c224 0 406 -182 406 -405c0 -224 -182 -405 -406 -405zM463 736c-191 0 -347 -156 -347 -346c0 -191 156 -346 347 -346c190 0 346 155 346 346c0 190 -156 346 -346 346zM318 927h291c10 0 18 -8 18 -18v-13
c0 -10 -8 -18 -18 -18h-291c-10 0 -18 8 -18 18v13c0 10 8 18 18 18z" />
    <glyph glyph-name="Oslashacute" unicode="&#x1fe;" 
d="M337 891l222 135c6 4 15 1 19 -5l15 -27c4 -6 1 -15 -5 -19l-228 -124c-6 -4 -15 -1 -19 5l-9 16c-4 6 -2 15 5 19zM161 117c-65 72 -105 168 -105 273c0 223 182 405 407 405c92 0 178 -32 246 -84c6 -5 15 -4 21 1l50 55c7 8 19 13 30 13h25c7 0 11 -8 6 -13l-78 -85
c-6 -5 -6 -14 0 -20c66 -72 106 -168 106 -272c0 -224 -183 -405 -406 -405c-93 0 -179 31 -248 83c-6 5 -15 4 -21 -1l-49 -54c-7 -8 -19 -13 -30 -13h-25c-7 0 -11 8 -6 13l77 84c6 5 6 14 0 20zM463 44c190 0 346 155 346 346c0 87 -33 167 -87 228c-4 5 -13 5 -18 0
l-450 -487c-5 -5 -4 -14 2 -19c57 -42 129 -68 207 -68zM463 736c-191 0 -347 -156 -347 -346c0 -88 32 -168 86 -229c5 -5 14 -5 19 0l450 488c5 5 4 14 -2 19c-58 42 -129 68 -206 68z" />
    <glyph glyph-name="Otilde" unicode="&#xd5;" 
d="M463 -15c-225 0 -407 181 -407 405c0 223 182 405 407 405c224 0 406 -182 406 -405c0 -224 -182 -405 -406 -405zM463 736c-191 0 -347 -156 -347 -346c0 -191 156 -346 347 -346c190 0 346 155 346 346c0 190 -156 346 -346 346zM378 953c-34 0 -55 -31 -60 -72
c-1 -11 -9 -18 -20 -18h-9c-9 0 -17 9 -16 18c5 57 33 123 105 123c34 0 58 -13 102 -55c24 -24 45 -44 71 -44c32 0 52 31 55 72c1 11 9 18 20 18h10c9 0 17 -9 16 -18c-4 -56 -30 -123 -101 -123c-35 0 -55 15 -99 55c-28 25 -48 44 -74 44z" />
    <glyph glyph-name="Racute" unicode="&#x154;" horiz-adv-x="794" 
d="M112 18v744c0 10 8 18 18 18h326c169 0 266 -116 266 -251c0 -106 -59 -199 -165 -237c-6 -2 -9 -10 -5 -16l187 -261c4 -7 0 -15 -8 -15h-36c-11 0 -22 6 -28 15l-180 253c-5 5 -10 8 -18 8h-13h-271c-8 0 -14 -6 -14 -14v-244c0 -10 -8 -18 -18 -18h-23
c-10 0 -18 8 -18 18zM664 528c0 103 -74 196 -210 196h-269c-8 0 -14 -6 -14 -14v-364c0 -8 6 -14 14 -14h269c136 0 210 92 210 196zM305 891l222 135c6 4 15 1 19 -5l15 -27c4 -6 1 -15 -5 -19l-228 -124c-6 -4 -15 -1 -19 5l-9 16c-4 6 -2 15 5 19z" />
    <glyph glyph-name="Rcaron" unicode="&#x158;" horiz-adv-x="794" 
d="M112 18v744c0 10 8 18 18 18h326c169 0 266 -116 266 -251c0 -106 -59 -199 -165 -237c-6 -2 -9 -10 -5 -16l187 -261c4 -7 0 -15 -8 -15h-36c-11 0 -22 6 -28 15l-180 253c-5 5 -10 8 -18 8h-13h-271c-8 0 -14 -6 -14 -14v-244c0 -10 -8 -18 -18 -18h-23
c-10 0 -18 8 -18 18zM664 528c0 103 -74 196 -210 196h-269c-8 0 -14 -6 -14 -14v-364c0 -8 6 -14 14 -14h269c136 0 210 92 210 196zM593 982l-153 -113c-6 -5 -16 -4 -22 0l-151 113c-6 4 -7 13 -2 19l12 15c5 6 14 7 20 3l117 -85c9 -7 21 -7 30 -1l119 86
c6 4 15 3 20 -3l12 -15c5 -6 4 -15 -2 -19z" />
    <glyph glyph-name="Rcommaaccent" unicode="&#x156;" horiz-adv-x="794" 
d="M112 18v744c0 10 8 18 18 18h326c169 0 266 -116 266 -251c0 -106 -59 -199 -165 -237c-6 -2 -9 -10 -5 -16l187 -261c4 -7 0 -15 -8 -15h-36c-11 0 -22 6 -28 15l-180 253c-5 5 -10 8 -18 8h-13h-271c-8 0 -14 -6 -14 -14v-244c0 -10 -8 -18 -18 -18h-23
c-10 0 -18 8 -18 18zM664 528c0 103 -74 196 -210 196h-269c-8 0 -14 -6 -14 -14v-364c0 -8 6 -14 14 -14h269c136 0 210 92 210 196zM476 -116c0 -66 -57 -129 -98 -166c-6 -5 -16 -5 -21 1l-1 2c-6 6 -5 16 1 21c20 21 51 53 67 92c3 8 0 14 -9 17c-16 4 -30 20 -30 40
c0 24 20 44 44 44s47 -19 47 -51z" />
    <glyph glyph-name="Sacute" unicode="&#x15a;" horiz-adv-x="704" 
d="M362 -15c-169 0 -293 76 -302 188c-1 11 9 23 20 22h17c12 -1 20 -9 21 -20c12 -79 103 -135 244 -135c145 0 223 61 223 145c0 102 -110 138 -242 178c-127 39 -278 87 -278 228c0 122 108 204 277 204c163 0 283 -77 291 -189c1 -9 -7 -22 -16 -22h-22
c-11 0 -19 9 -20 20c-11 80 -98 136 -233 136c-139 0 -215 -61 -215 -145c0 -100 106 -135 233 -175c125 -38 288 -86 288 -232c0 -123 -113 -203 -286 -203zM216 891l222 135c6 4 15 1 19 -5l15 -27c4 -6 1 -15 -5 -19l-228 -124c-6 -4 -15 -1 -19 5l-9 16c-4 6 -2 15 5 19
z" />
    <glyph glyph-name="Scaron" unicode="&#x160;" horiz-adv-x="704" 
d="M362 -15c-169 0 -293 76 -302 188c-1 11 9 23 20 22h17c12 -1 20 -9 21 -20c12 -79 103 -135 244 -135c145 0 223 61 223 145c0 102 -110 138 -242 178c-127 39 -278 87 -278 228c0 122 108 204 277 204c163 0 283 -77 291 -189c1 -9 -7 -22 -16 -22h-22
c-11 0 -19 9 -20 20c-11 80 -98 136 -233 136c-139 0 -215 -61 -215 -145c0 -100 106 -135 233 -175c125 -38 288 -86 288 -232c0 -123 -113 -203 -286 -203zM505 982l-153 -113c-6 -5 -16 -4 -22 0l-151 113c-6 4 -7 13 -2 19l12 15c5 6 14 7 20 3l117 -85
c9 -7 21 -7 30 -1l119 86c6 4 15 3 20 -3l12 -15c5 -6 4 -15 -2 -19z" />
    <glyph glyph-name="Scedilla" unicode="&#x15e;" horiz-adv-x="705" 
d="M329 -14c-152 9 -261 83 -269 187c-1 11 9 23 20 22h17c12 -1 20 -9 21 -20c12 -79 103 -135 244 -135c145 0 223 61 223 145c0 102 -110 138 -242 178c-127 39 -278 87 -278 228c0 122 108 204 277 204c163 0 283 -77 291 -189c1 -9 -7 -22 -16 -22h-22
c-11 0 -19 9 -20 20c-11 80 -98 136 -233 136c-139 0 -215 -61 -215 -145c0 -100 106 -135 233 -175c125 -38 288 -86 288 -232c0 -116 -99 -191 -253 -201c-9 -1 -16 -6 -18 -15l-11 -30c-2 -7 3 -14 10 -15c79 -9 113 -58 113 -102c0 -52 -44 -102 -120 -102
c-42 0 -86 15 -109 25c-8 3 -12 15 -8 23l4 8c4 10 15 13 24 9c21 -9 53 -20 87 -20c55 0 81 31 81 62s-26 66 -99 64c-9 -1 -17 3 -22 9l-1 1c-5 6 -7 15 -4 22l16 46c3 6 -2 13 -9 14z" />
    <glyph glyph-name="Scircumflex" unicode="&#x15c;" horiz-adv-x="704" 
d="M362 -15c-169 0 -293 76 -302 188c-1 11 9 23 20 22h17c12 -1 20 -9 21 -20c12 -79 103 -135 244 -135c145 0 223 61 223 145c0 102 -110 138 -242 178c-127 39 -278 87 -278 228c0 122 108 204 277 204c163 0 283 -77 291 -189c1 -9 -7 -22 -16 -22h-22
c-11 0 -19 9 -20 20c-11 80 -98 136 -233 136c-139 0 -215 -61 -215 -145c0 -100 106 -135 233 -175c125 -38 288 -86 288 -232c0 -123 -113 -203 -286 -203zM355 1016l147 -107c7 -6 9 -17 3 -25l-8 -9c-6 -8 -18 -9 -26 -4l-119 86c-6 5 -16 5 -22 0l-117 -85
c-8 -6 -20 -5 -26 3l-8 9c-6 8 -4 19 3 25l145 107c8 7 20 7 28 0z" />
    <glyph glyph-name="Scommaaccent" unicode="&#x218;" horiz-adv-x="704" 
d="M362 -15c-169 0 -293 76 -302 188c-1 11 9 23 20 22h17c12 -1 20 -9 21 -20c12 -79 103 -135 244 -135c145 0 223 61 223 145c0 102 -110 138 -242 178c-127 39 -278 87 -278 228c0 122 108 204 277 204c163 0 283 -77 291 -189c1 -9 -7 -22 -16 -22h-22
c-11 0 -19 9 -20 20c-11 80 -98 136 -233 136c-139 0 -215 -61 -215 -145c0 -100 106 -135 233 -175c125 -38 288 -86 288 -232c0 -123 -113 -203 -286 -203zM409 -116c0 -66 -57 -129 -98 -166c-6 -5 -16 -5 -21 1l-1 2c-6 6 -5 16 1 21c20 21 51 53 67 92c3 8 0 14 -9 17
c-16 4 -30 20 -30 40c0 24 20 44 44 44s47 -19 47 -51z" />
    <glyph glyph-name="Tbar" unicode="&#x166;" horiz-adv-x="684" 
d="M298 722h-249c-10 0 -18 8 -18 18v22c0 10 8 18 18 18h586c10 0 18 -8 18 -18v-22c0 -10 -8 -18 -18 -18h-249c-8 0 -14 -6 -14 -14v-279c0 -8 6 -14 14 -14h108c10 0 18 -8 18 -18v-12c0 -10 -8 -18 -18 -18h-108c-8 0 -14 -6 -14 -14v-335c0 -10 -8 -18 -18 -18h-24
c-10 0 -18 8 -18 18v335c0 8 -6 14 -14 14h-109c-10 0 -18 8 -18 18v12c0 10 8 18 18 18h109c8 0 14 6 14 14v279c0 8 -6 14 -14 14z" />
    <glyph glyph-name="Tcaron" unicode="&#x164;" horiz-adv-x="676" 
d="M294 722h-249c-10 0 -18 8 -18 18v22c0 10 8 18 18 18h586c10 0 18 -8 18 -18v-22c0 -10 -8 -18 -18 -18h-250c-8 0 -14 -6 -14 -14v-690c0 -10 -8 -18 -18 -18h-23c-10 0 -18 8 -18 18v690c0 8 -6 14 -14 14zM501 982l-153 -113c-6 -5 -16 -4 -22 0l-151 113
c-6 4 -7 13 -2 19l12 15c5 6 14 7 20 3l117 -85c9 -7 21 -7 30 -1l119 86c6 4 15 3 20 -3l12 -15c5 -6 4 -15 -2 -19z" />
    <glyph glyph-name="Tcommaaccent" unicode="&#x162;" horiz-adv-x="676" 
d="M294 722h-249c-10 0 -18 8 -18 18v22c0 10 8 18 18 18h586c10 0 18 -8 18 -18v-22c0 -10 -8 -18 -18 -18h-250c-8 0 -14 -6 -14 -14v-690c0 -10 -8 -18 -18 -18h-23c-10 0 -18 8 -18 18v690c0 8 -6 14 -14 14zM384 -116c0 -66 -57 -129 -98 -166c-6 -5 -16 -5 -21 1l-1 2
c-6 6 -5 16 1 21c20 21 51 53 67 92c3 8 0 14 -9 17c-16 4 -30 20 -30 40c0 24 20 44 44 44s47 -19 47 -51z" />
    <glyph glyph-name="Uacute" unicode="&#xda;" horiz-adv-x="856" 
d="M696 297v465c0 10 8 18 18 18h23c10 0 18 -8 18 -18v-467c0 -175 -114 -310 -327 -310s-327 135 -327 310v467c0 10 8 18 18 18h23c10 0 18 -8 18 -18v-465c0 -147 94 -254 268 -254c175 0 268 107 268 254zM302 891l222 135c6 4 15 1 19 -5l15 -27c4 -6 1 -15 -5 -19
l-228 -124c-6 -4 -15 -1 -19 5l-9 16c-4 6 -2 15 5 19z" />
    <glyph glyph-name="Ubreve" unicode="&#x16c;" horiz-adv-x="856" 
d="M696 297v465c0 10 8 18 18 18h23c10 0 18 -8 18 -18v-467c0 -175 -114 -310 -327 -310s-327 135 -327 310v467c0 10 8 18 18 18h23c10 0 18 -8 18 -18v-465c0 -147 94 -254 268 -254c175 0 268 107 268 254zM427 861c-75 0 -134 44 -168 103c-4 8 -1 20 7 24l10 6
c9 5 19 2 25 -7c29 -48 74 -75 126 -75c53 0 98 27 127 75c6 9 16 12 25 7l10 -6c8 -4 11 -16 7 -24c-34 -59 -94 -103 -169 -103z" />
    <glyph glyph-name="Ucircumflex" unicode="&#xdb;" horiz-adv-x="853" 
d="M694 297v465c0 10 8 18 18 18h23c10 0 18 -8 18 -18v-467c0 -175 -114 -310 -327 -310s-327 135 -327 310v467c0 10 8 18 18 18h23c10 0 18 -8 18 -18v-465c0 -147 94 -254 268 -254c175 0 268 107 268 254zM439 1016l147 -107c7 -6 9 -17 3 -25l-8 -9
c-6 -8 -18 -9 -26 -4l-119 86c-6 5 -16 5 -22 0l-117 -85c-8 -6 -20 -5 -26 3l-8 9c-6 8 -4 19 3 25l145 107c8 7 20 7 28 0z" />
    <glyph glyph-name="Udieresis" unicode="&#xdc;" horiz-adv-x="856" 
d="M696 297v465c0 10 8 18 18 18h23c10 0 18 -8 18 -18v-467c0 -175 -114 -310 -327 -310s-327 135 -327 310v467c0 10 8 18 18 18h23c10 0 18 -8 18 -18v-465c0 -147 94 -254 268 -254c175 0 268 107 268 254zM319 878c-25 0 -46 20 -46 45s21 46 46 46s45 -21 45 -46
s-20 -45 -45 -45zM537 878c-25 0 -46 20 -46 45s21 46 46 46s46 -21 46 -46s-21 -45 -46 -45z" />
    <glyph glyph-name="Ugrave" unicode="&#xd9;" horiz-adv-x="856" 
d="M696 297v465c0 10 8 18 18 18h23c10 0 18 -8 18 -18v-467c0 -175 -114 -310 -327 -310s-327 135 -327 310v467c0 10 8 18 18 18h23c10 0 18 -8 18 -18v-465c0 -147 94 -254 268 -254c175 0 268 107 268 254zM334 1024l216 -131c8 -5 11 -16 6 -25l-5 -8
c-5 -9 -16 -12 -25 -7l-220 120c-9 5 -12 16 -7 25l11 19c5 9 16 12 24 7z" />
    <glyph glyph-name="Uhungarumlaut" unicode="&#x170;" horiz-adv-x="856" 
d="M696 297v465c0 10 8 18 18 18h23c10 0 18 -8 18 -18v-467c0 -175 -114 -310 -327 -310s-327 135 -327 310v467c0 10 8 18 18 18h23c10 0 18 -8 18 -18v-465c0 -147 94 -254 268 -254c175 0 268 107 268 254zM457 1026l-150 -144c-7 -6 -19 -6 -26 1l-7 7
c-7 7 -7 19 -1 26l144 150c6 7 18 7 25 0l15 -15c7 -7 7 -19 0 -25zM680 1026l-150 -144c-7 -6 -19 -6 -26 1l-6 7c-7 7 -7 19 -1 26l143 150c6 7 18 7 25 0l15 -15c7 -7 7 -19 0 -25z" />
    <glyph glyph-name="Umacron" unicode="&#x16a;" horiz-adv-x="856" 
d="M696 297v465c0 10 8 18 18 18h23c10 0 18 -8 18 -18v-467c0 -175 -114 -310 -327 -310s-327 135 -327 310v467c0 10 8 18 18 18h23c10 0 18 -8 18 -18v-465c0 -147 94 -254 268 -254c175 0 268 107 268 254zM283 927h291c10 0 18 -8 18 -18v-13c0 -10 -8 -18 -18 -18
h-291c-10 0 -18 8 -18 18v13c0 10 8 18 18 18z" />
    <glyph glyph-name="Uogonek" unicode="&#x172;" horiz-adv-x="852" 
d="M694 297v465c0 10 8 18 18 18h23c10 0 18 -8 18 -18v-467c0 -140 -73 -254 -210 -294c-8 -2 -17 -7 -23 -12c-45 -39 -90 -90 -90 -137c0 -40 34 -59 89 -52c11 1 19 -5 21 -16l2 -11c2 -9 -6 -19 -15 -20c-82 -11 -142 24 -142 90c0 52 36 98 76 135c3 3 1 8 -4 8
c-10 -1 -20 -1 -31 -1c-213 0 -327 135 -327 310v467c0 10 8 18 18 18h23c10 0 18 -8 18 -18v-465c0 -147 94 -254 268 -254c175 0 268 107 268 254z" />
    <glyph glyph-name="Uring" unicode="&#x16e;" horiz-adv-x="856" 
d="M696 297v465c0 10 8 18 18 18h23c10 0 18 -8 18 -18v-467c0 -175 -114 -310 -327 -310s-327 135 -327 310v467c0 10 8 18 18 18h23c10 0 18 -8 18 -18v-465c0 -147 94 -254 268 -254c175 0 268 107 268 254zM428 841c-65 0 -115 50 -115 115c0 63 50 114 115 114
c63 0 114 -50 114 -114c0 -65 -51 -115 -114 -115zM428 1027c-40 0 -72 -33 -72 -71c0 -40 32 -72 72 -72c38 0 71 32 71 72c0 38 -33 71 -71 71z" />
    <glyph glyph-name="Utilde" unicode="&#x168;" horiz-adv-x="853" 
d="M694 297v465c0 10 8 18 18 18h23c10 0 18 -8 18 -18v-467c0 -175 -114 -310 -327 -310s-327 135 -327 310v467c0 10 8 18 18 18h23c10 0 18 -8 18 -18v-465c0 -147 94 -254 268 -254c175 0 268 107 268 254zM341 953c-34 0 -55 -31 -60 -72c-1 -11 -9 -18 -20 -18h-9
c-9 0 -17 9 -16 18c5 57 33 123 105 123c34 0 58 -13 102 -55c24 -24 45 -44 71 -44c32 0 52 31 55 72c1 11 9 18 20 18h10c9 0 17 -9 16 -18c-4 -56 -30 -123 -101 -123c-35 0 -55 15 -99 55c-28 25 -48 44 -74 44z" />
    <glyph glyph-name="Wacute" unicode="&#x1e82;" horiz-adv-x="1133" 
d="M562 672l-216 -655c-4 -10 -13 -17 -24 -17h-29c-11 0 -20 7 -24 17l-239 746c-3 8 3 17 12 17h28c11 0 20 -7 23 -17l211 -662c1 -4 7 -4 8 0l219 662c4 10 13 17 24 17h22c11 0 20 -7 24 -17l219 -662c1 -4 7 -4 8 0l212 662c3 10 12 17 23 17h28c9 0 15 -9 12 -17
l-239 -746c-4 -10 -13 -17 -24 -17h-29c-11 0 -20 7 -24 17l-217 655c-1 4 -7 4 -8 0zM441 891l222 135c6 4 15 1 19 -5l15 -27c4 -6 1 -15 -5 -19l-228 -124c-6 -4 -15 -1 -19 5l-9 16c-4 6 -2 15 5 19z" />
    <glyph glyph-name="Wcircumflex" unicode="&#x174;" horiz-adv-x="1133" 
d="M562 672l-216 -655c-4 -10 -13 -17 -24 -17h-29c-11 0 -20 7 -24 17l-239 746c-3 8 3 17 12 17h28c11 0 20 -7 23 -17l211 -662c1 -4 7 -4 8 0l219 662c4 10 13 17 24 17h22c11 0 20 -7 24 -17l219 -662c1 -4 7 -4 8 0l212 662c3 10 12 17 23 17h28c9 0 15 -9 12 -17
l-239 -746c-4 -10 -13 -17 -24 -17h-29c-11 0 -20 7 -24 17l-217 655c-1 4 -7 4 -8 0zM580 1016l147 -107c7 -6 9 -17 3 -25l-8 -9c-6 -8 -18 -9 -26 -4l-119 86c-6 5 -16 5 -22 0l-117 -85c-8 -6 -20 -5 -26 3l-8 9c-6 8 -4 19 3 25l145 107c8 7 20 7 28 0z" />
    <glyph glyph-name="Wdieresis" unicode="&#x1e84;" horiz-adv-x="1133" 
d="M562 672l-216 -655c-4 -10 -13 -17 -24 -17h-29c-11 0 -20 7 -24 17l-239 746c-3 8 3 17 12 17h28c11 0 20 -7 23 -17l211 -662c1 -4 7 -4 8 0l219 662c4 10 13 17 24 17h22c11 0 20 -7 24 -17l219 -662c1 -4 7 -4 8 0l212 662c3 10 12 17 23 17h28c9 0 15 -9 12 -17
l-239 -746c-4 -10 -13 -17 -24 -17h-29c-11 0 -20 7 -24 17l-217 655c-1 4 -7 4 -8 0zM458 878c-25 0 -46 20 -46 45s21 46 46 46s45 -21 45 -46s-20 -45 -45 -45zM676 878c-25 0 -46 20 -46 45s21 46 46 46s46 -21 46 -46s-21 -45 -46 -45z" />
    <glyph glyph-name="Wgrave" unicode="&#x1e80;" horiz-adv-x="1133" 
d="M562 672l-216 -655c-4 -10 -13 -17 -24 -17h-29c-11 0 -20 7 -24 17l-239 746c-3 8 3 17 12 17h28c11 0 20 -7 23 -17l211 -662c1 -4 7 -4 8 0l219 662c4 10 13 17 24 17h22c11 0 20 -7 24 -17l219 -662c1 -4 7 -4 8 0l212 662c3 10 12 17 23 17h28c9 0 15 -9 12 -17
l-239 -746c-4 -10 -13 -17 -24 -17h-29c-11 0 -20 7 -24 17l-217 655c-1 4 -7 4 -8 0zM473 1024l216 -131c8 -5 11 -16 6 -25l-5 -8c-5 -9 -16 -12 -25 -7l-220 120c-9 5 -12 16 -7 25l11 19c5 9 16 12 24 7z" />
    <glyph glyph-name="Yacute" unicode="&#xdd;" horiz-adv-x="793" 
d="M32 780h35c11 0 22 -6 28 -15l293 -409c4 -5 12 -5 16 0l294 409c6 9 17 15 28 15h35c8 0 12 -8 8 -15l-335 -468c-5 -7 -8 -17 -8 -25v-254c0 -10 -8 -18 -18 -18h-23c-10 0 -18 8 -18 18v253c0 8 -3 18 -8 25l-335 469c-4 7 0 15 8 15zM271 891l222 135c6 4 15 1 19 -5
l15 -27c4 -6 1 -15 -5 -19l-228 -124c-6 -4 -15 -1 -19 5l-9 16c-4 6 -2 15 5 19z" />
    <glyph glyph-name="ycircumflex" unicode="&#x177;" horiz-adv-x="793" 
d="M32 780h35c11 0 22 -6 28 -15l293 -409c4 -5 12 -5 16 0l294 409c6 9 17 15 28 15h35c8 0 12 -8 8 -15l-335 -468c-5 -7 -8 -17 -8 -25v-254c0 -10 -8 -18 -18 -18h-23c-10 0 -18 8 -18 18v253c0 8 -3 18 -8 25l-335 469c-4 7 0 15 8 15zM410 1016l147 -107
c7 -6 9 -17 3 -25l-8 -9c-6 -8 -18 -9 -26 -4l-119 86c-6 5 -16 5 -22 0l-117 -85c-8 -6 -20 -5 -26 3l-8 9c-6 8 -4 19 3 25l145 107c8 7 20 7 28 0z" />
    <glyph glyph-name="Ydieresis" unicode="&#x178;" horiz-adv-x="793" 
d="M32 780h35c11 0 22 -6 28 -15l293 -409c4 -5 12 -5 16 0l294 409c6 9 17 15 28 15h35c8 0 12 -8 8 -15l-335 -468c-5 -7 -8 -17 -8 -25v-254c0 -10 -8 -18 -18 -18h-23c-10 0 -18 8 -18 18v253c0 8 -3 18 -8 25l-335 469c-4 7 0 15 8 15zM287 878c-25 0 -46 20 -46 45
s21 46 46 46s45 -21 45 -46s-20 -45 -45 -45zM505 878c-25 0 -46 20 -46 45s21 46 46 46s46 -21 46 -46s-21 -45 -46 -45z" />
    <glyph glyph-name="Ygrave" unicode="&#x1ef2;" horiz-adv-x="793" 
d="M32 780h35c11 0 22 -6 28 -15l293 -409c4 -5 12 -5 16 0l294 409c6 9 17 15 28 15h35c8 0 12 -8 8 -15l-335 -468c-5 -7 -8 -17 -8 -25v-254c0 -10 -8 -18 -18 -18h-23c-10 0 -18 8 -18 18v253c0 8 -3 18 -8 25l-335 469c-4 7 0 15 8 15zM303 1024l216 -131
c8 -5 11 -16 6 -25l-5 -8c-5 -9 -16 -12 -25 -7l-220 120c-9 5 -12 16 -7 25l11 19c5 9 16 12 24 7z" />
    <glyph glyph-name="Zacute" unicode="&#x179;" horiz-adv-x="680" 
d="M541 722h-473c-10 0 -18 8 -18 18v22c0 10 8 18 18 18h554c10 0 18 -8 18 -18v-9c0 -11 -4 -24 -11 -32l-503 -652c-4 -5 -1 -11 5 -11h489c10 0 18 -8 18 -18v-22c0 -10 -8 -18 -18 -18h-569c-10 0 -18 8 -18 18v9c0 11 4 24 11 32l502 652c4 5 1 11 -5 11zM211 891
l222 135c6 4 15 1 19 -5l15 -27c4 -6 1 -15 -5 -19l-228 -124c-6 -4 -15 -1 -19 5l-9 16c-4 6 -2 15 5 19z" />
    <glyph glyph-name="Zcaron" unicode="&#x17d;" horiz-adv-x="679" 
d="M541 722h-473c-10 0 -18 8 -18 18v22c0 10 8 18 18 18h554c10 0 18 -8 18 -18v-9c0 -11 -4 -24 -11 -32l-503 -652c-4 -5 -1 -11 5 -11h489c10 0 18 -8 18 -18v-22c0 -10 -8 -18 -18 -18h-569c-10 0 -18 8 -18 18v9c0 11 4 24 11 32l502 652c4 5 1 11 -5 11zM500 982
l-153 -113c-6 -5 -16 -4 -22 0l-151 113c-6 4 -7 13 -2 19l12 15c5 6 14 7 20 3l117 -85c9 -7 21 -7 30 -1l119 86c6 4 15 3 20 -3l12 -15c5 -6 4 -15 -2 -19z" />
    <glyph glyph-name="Zdotaccent" unicode="&#x17b;" horiz-adv-x="680" 
d="M541 722h-473c-10 0 -18 8 -18 18v22c0 10 8 18 18 18h554c10 0 18 -8 18 -18v-9c0 -11 -4 -24 -11 -32l-503 -652c-4 -5 -1 -11 5 -11h489c10 0 18 -8 18 -18v-22c0 -10 -8 -18 -18 -18h-569c-10 0 -18 8 -18 18v9c0 11 4 24 11 32l502 652c4 5 1 11 -5 11zM337 868
c-25 0 -46 20 -46 45s21 46 46 46s45 -21 45 -46s-20 -45 -45 -45z" />
    <glyph glyph-name="aacute" unicode="&#xe1;" horiz-adv-x="808" 
d="M22 16l342 748c5 9 15 16 26 16h28c11 0 21 -7 26 -16l342 -748c4 -7 -1 -16 -10 -16h-29c-11 0 -21 7 -25 16l-67 147c-4 8 -12 13 -20 13h-462c-8 0 -16 -5 -20 -13l-66 -147c-4 -9 -14 -16 -25 -16h-30c-9 0 -14 9 -10 16zM617 245l-207 458c-3 5 -9 5 -12 0
l-207 -458c-3 -6 1 -13 8 -13h410c7 0 11 7 8 13zM279 891l222 135c6 4 15 1 19 -5l15 -27c4 -6 1 -15 -5 -19l-228 -124c-6 -4 -15 -1 -19 5l-9 16c-4 6 -2 15 5 19z" />
    <glyph glyph-name="abreve" unicode="&#x103;" horiz-adv-x="808" 
d="M22 16l342 748c5 9 15 16 26 16h28c11 0 21 -7 26 -16l342 -748c4 -7 -1 -16 -10 -16h-29c-11 0 -21 7 -25 16l-67 147c-4 8 -12 13 -20 13h-462c-8 0 -16 -5 -20 -13l-66 -147c-4 -9 -14 -16 -25 -16h-30c-9 0 -14 9 -10 16zM617 245l-207 458c-3 5 -9 5 -12 0
l-207 -458c-3 -6 1 -13 8 -13h410c7 0 11 7 8 13zM403 861c-75 0 -134 44 -168 103c-4 8 -1 20 7 24l10 6c9 5 19 2 25 -7c29 -48 74 -75 126 -75c53 0 98 27 127 75c6 9 16 12 25 7l10 -6c8 -4 11 -16 7 -24c-34 -59 -94 -103 -169 -103z" />
    <glyph glyph-name="acircumflex" unicode="&#xe2;" horiz-adv-x="808" 
d="M22 16l342 748c5 9 15 16 26 16h28c11 0 21 -7 26 -16l342 -748c4 -7 -1 -16 -10 -16h-29c-11 0 -21 7 -25 16l-67 147c-4 8 -12 13 -20 13h-462c-8 0 -16 -5 -20 -13l-66 -147c-4 -9 -14 -16 -25 -16h-30c-9 0 -14 9 -10 16zM617 245l-207 458c-3 5 -9 5 -12 0
l-207 -458c-3 -6 1 -13 8 -13h410c7 0 11 7 8 13zM417 1016l147 -107c7 -6 9 -17 3 -25l-8 -9c-6 -8 -18 -9 -26 -4l-119 86c-6 5 -16 5 -22 0l-117 -85c-8 -6 -20 -5 -26 3l-8 9c-6 8 -4 19 3 25l145 107c8 7 20 7 28 0z" />
    <glyph glyph-name="adieresis" unicode="&#xe4;" horiz-adv-x="808" 
d="M22 16l342 748c5 9 15 16 26 16h28c11 0 21 -7 26 -16l342 -748c4 -7 -1 -16 -10 -16h-29c-11 0 -21 7 -25 16l-67 147c-4 8 -12 13 -20 13h-462c-8 0 -16 -5 -20 -13l-66 -147c-4 -9 -14 -16 -25 -16h-30c-9 0 -14 9 -10 16zM617 245l-207 458c-3 5 -9 5 -12 0
l-207 -458c-3 -6 1 -13 8 -13h410c7 0 11 7 8 13zM295 878c-25 0 -46 20 -46 45s21 46 46 46s45 -21 45 -46s-20 -45 -45 -45zM513 878c-25 0 -46 20 -46 45s21 46 46 46s46 -21 46 -46s-21 -45 -46 -45z" />
    <glyph glyph-name="aeacute" unicode="&#x1fd;" horiz-adv-x="1248" 
d="M1168 0h-500c-10 0 -18 8 -18 18v144c0 8 -6 14 -14 14h-395c-9 0 -17 -4 -23 -11l-122 -151c-7 -9 -18 -14 -29 -14h-41c-7 0 -11 8 -7 14l610 752c7 9 18 14 29 14h510c10 0 18 -8 18 -18v-22c0 -10 -8 -18 -18 -18h-445c-8 0 -14 -6 -14 -14v-283c0 -8 6 -14 14 -14
h374c10 0 18 -8 18 -18v-20c0 -10 -8 -18 -18 -18h-374c-8 0 -14 -6 -14 -14v-269c0 -8 6 -14 14 -14h445c10 0 18 -8 18 -18v-22c0 -10 -8 -18 -18 -18zM641 688l-360 -445c-4 -5 -1 -11 5 -11h350c8 0 14 6 14 14v439c0 5 -6 7 -9 3zM662 891l222 135c6 4 15 1 19 -5
l15 -27c4 -6 1 -15 -5 -19l-228 -124c-6 -4 -15 -1 -19 5l-9 16c-4 6 -2 15 5 19z" />
    <glyph glyph-name="agrave" unicode="&#xe0;" horiz-adv-x="808" 
d="M22 16l342 748c5 9 15 16 26 16h28c11 0 21 -7 26 -16l342 -748c4 -7 -1 -16 -10 -16h-29c-11 0 -21 7 -25 16l-67 147c-4 8 -12 13 -20 13h-462c-8 0 -16 -5 -20 -13l-66 -147c-4 -9 -14 -16 -25 -16h-30c-9 0 -14 9 -10 16zM617 245l-207 458c-3 5 -9 5 -12 0
l-207 -458c-3 -6 1 -13 8 -13h410c7 0 11 7 8 13zM311 1024l216 -131c8 -5 11 -16 6 -25l-5 -8c-5 -9 -16 -12 -25 -7l-220 120c-9 5 -12 16 -7 25l11 19c5 9 16 12 24 7z" />
    <glyph glyph-name="amacron" unicode="&#x101;" horiz-adv-x="808" 
d="M22 16l342 748c5 9 15 16 26 16h28c11 0 21 -7 26 -16l342 -748c4 -7 -1 -16 -10 -16h-29c-11 0 -21 7 -25 16l-67 147c-4 8 -12 13 -20 13h-462c-8 0 -16 -5 -20 -13l-66 -147c-4 -9 -14 -16 -25 -16h-30c-9 0 -14 9 -10 16zM617 245l-207 458c-3 5 -9 5 -12 0
l-207 -458c-3 -6 1 -13 8 -13h410c7 0 11 7 8 13zM259 927h291c10 0 18 -8 18 -18v-13c0 -10 -8 -18 -18 -18h-291c-10 0 -18 8 -18 18v13c0 10 8 18 18 18z" />
    <glyph glyph-name="aogonek" unicode="&#x105;" horiz-adv-x="807" 
d="M21 16l342 748c5 9 15 16 26 16h28c11 0 21 -7 26 -16l342 -747c5 -10 2 -22 -6 -29c-44 -38 -90 -89 -90 -136c0 -40 34 -59 89 -52c11 1 19 -5 21 -16l2 -11c2 -9 -6 -19 -15 -20c-82 -11 -142 24 -142 90c0 61 49 113 96 152c2 2 1 5 -2 5h-2c-5 0 -9 3 -11 7l-71 156
c-4 8 -12 13 -20 13h-462c-8 0 -16 -5 -20 -13l-66 -147c-4 -9 -14 -16 -25 -16h-30c-9 0 -14 9 -10 16zM616 245l-207 458c-3 5 -9 5 -12 0l-207 -458c-3 -6 1 -13 8 -13h410c7 0 11 7 8 13z" />
    <glyph glyph-name="aring" unicode="&#xe5;" horiz-adv-x="808" 
d="M22 16l342 748c5 9 15 16 26 16h28c11 0 21 -7 26 -16l342 -748c4 -7 -1 -16 -10 -16h-29c-11 0 -21 7 -25 16l-67 147c-4 8 -12 13 -20 13h-462c-8 0 -16 -5 -20 -13l-66 -147c-4 -9 -14 -16 -25 -16h-30c-9 0 -14 9 -10 16zM617 245l-207 458c-3 5 -9 5 -12 0
l-207 -458c-3 -6 1 -13 8 -13h410c7 0 11 7 8 13zM405 841c-65 0 -115 50 -115 115c0 63 50 114 115 114c63 0 114 -50 114 -114c0 -65 -51 -115 -114 -115zM405 1027c-40 0 -72 -33 -72 -71c0 -40 32 -72 72 -72c38 0 71 32 71 72c0 38 -33 71 -71 71z" />
    <glyph glyph-name="atilde" unicode="&#xe3;" horiz-adv-x="808" 
d="M22 16l342 748c5 9 15 16 26 16h28c11 0 21 -7 26 -16l342 -748c4 -7 -1 -16 -10 -16h-29c-11 0 -21 7 -25 16l-67 147c-4 8 -12 13 -20 13h-462c-8 0 -16 -5 -20 -13l-66 -147c-4 -9 -14 -16 -25 -16h-30c-9 0 -14 9 -10 16zM617 245l-207 458c-3 5 -9 5 -12 0
l-207 -458c-3 -6 1 -13 8 -13h410c7 0 11 7 8 13zM319 953c-34 0 -55 -31 -60 -72c-1 -11 -9 -18 -20 -18h-9c-9 0 -17 9 -16 18c5 57 33 123 105 123c34 0 58 -13 102 -55c24 -24 45 -44 71 -44c32 0 52 31 55 72c1 11 9 18 20 18h10c9 0 17 -9 16 -18
c-4 -56 -30 -123 -101 -123c-35 0 -55 15 -99 55c-28 25 -48 44 -74 44z" />
    <glyph glyph-name="cacute" unicode="&#x107;" horiz-adv-x="859" 
d="M463 44c119 0 224 60 286 153c6 8 17 11 26 6l21 -12c9 -4 11 -16 6 -23c-72 -110 -197 -183 -339 -183c-225 0 -407 181 -407 405c0 223 182 405 407 405c141 0 266 -73 338 -183c5 -7 3 -19 -6 -23l-20 -11c-9 -5 -20 -3 -26 6c-63 92 -167 152 -286 152
c-191 0 -347 -156 -347 -346c0 -191 156 -346 347 -346zM337 891l222 135c6 4 15 1 19 -5l15 -27c4 -6 1 -15 -5 -19l-228 -124c-6 -4 -15 -1 -19 5l-9 16c-4 6 -2 15 5 19z" />
    <glyph glyph-name="ccaron" unicode="&#x10d;" horiz-adv-x="859" 
d="M463 44c119 0 224 60 286 153c6 8 17 11 26 6l21 -12c9 -4 11 -16 6 -23c-72 -110 -197 -183 -339 -183c-225 0 -407 181 -407 405c0 223 182 405 407 405c141 0 266 -73 338 -183c5 -7 3 -19 -6 -23l-20 -11c-9 -5 -20 -3 -26 6c-63 92 -167 152 -286 152
c-191 0 -347 -156 -347 -346c0 -191 156 -346 347 -346zM627 982l-153 -113c-6 -5 -16 -4 -22 0l-151 113c-6 4 -7 13 -2 19l12 15c5 6 14 7 20 3l117 -85c9 -7 21 -7 30 -1l119 86c6 4 15 3 20 -3l12 -15c5 -6 4 -15 -2 -19z" />
    <glyph glyph-name="ccedilla" unicode="&#xe7;" horiz-adv-x="859" 
d="M463 44c119 0 224 60 286 153c6 8 17 11 26 6l22 -12c8 -4 11 -15 5 -23c-70 -106 -189 -178 -326 -183c-8 0 -15 -5 -18 -14l-11 -31c-3 -7 2 -14 9 -15c79 -9 113 -58 113 -102c0 -52 -44 -102 -120 -102c-42 0 -86 15 -109 25c-8 3 -12 15 -8 23l4 8c4 10 15 13 24 9
c21 -9 53 -20 87 -20c55 0 81 31 81 62s-26 66 -99 64c-9 -1 -17 3 -22 9l-1 1c-5 6 -7 15 -4 22l18 50c3 6 -2 14 -9 15c-200 25 -355 194 -355 401c0 223 182 405 407 405c141 0 266 -73 338 -183c5 -7 3 -19 -6 -23l-20 -11c-9 -5 -20 -3 -26 6c-63 92 -167 152 -286 152
c-191 0 -347 -156 -347 -346c0 -191 156 -346 347 -346z" />
    <glyph glyph-name="cdotaccent" unicode="&#x10b;" horiz-adv-x="859" 
d="M463 44c119 0 224 60 286 153c6 8 17 11 26 6l21 -12c9 -4 11 -16 6 -23c-72 -110 -197 -183 -339 -183c-225 0 -407 181 -407 405c0 223 182 405 407 405c141 0 266 -73 338 -183c5 -7 3 -19 -6 -23l-20 -11c-9 -5 -20 -3 -26 6c-63 92 -167 152 -286 152
c-191 0 -347 -156 -347 -346c0 -191 156 -346 347 -346zM463 868c-25 0 -46 20 -46 45s21 46 46 46s45 -21 45 -46s-20 -45 -45 -45z" />
    <glyph glyph-name="dcaron" unicode="&#x10f;" horiz-adv-x="841" 
d="M417 0h-287c-10 0 -18 8 -18 18v744c0 10 8 18 18 18h287c237 0 363 -172 363 -390c0 -219 -126 -390 -363 -390zM721 390c0 189 -110 332 -307 332h-229c-8 0 -14 -6 -14 -14v-636c0 -8 6 -14 14 -14h229c197 0 307 143 307 332zM609 982l-153 -113c-6 -5 -16 -4 -22 0
l-151 113c-6 4 -7 13 -2 19l12 15c5 6 14 7 20 3l117 -85c9 -7 21 -7 30 -1l119 86c6 4 15 3 20 -3l12 -15c5 -6 4 -15 -2 -19z" />
    <glyph glyph-name="dcroat" unicode="&#x111;" horiz-adv-x="842" 
d="M418 0h-287c-10 0 -18 8 -18 18v330c0 8 -6 14 -14 14h-56c-10 0 -18 8 -18 18v17c0 10 8 18 18 18h56c8 0 14 6 14 14v333c0 10 8 18 18 18h287c237 0 363 -172 363 -390c0 -219 -126 -390 -363 -390zM186 415h248c10 0 18 -8 18 -18v-17c0 -10 -8 -18 -18 -18h-248
c-8 0 -14 -6 -14 -14v-276c0 -8 6 -14 14 -14h229c197 0 307 143 307 332s-110 332 -307 332h-229c-8 0 -14 -6 -14 -14v-279c0 -8 6 -14 14 -14z" />
    <glyph glyph-name="eacute" unicode="&#xe9;" horiz-adv-x="710" 
d="M630 0h-500c-10 0 -18 8 -18 18v744c0 10 8 18 18 18h500c10 0 18 -8 18 -18v-22c0 -10 -8 -18 -18 -18h-445c-8 0 -14 -6 -14 -14v-283c0 -8 6 -14 14 -14h374c10 0 18 -8 18 -18v-20c0 -10 -8 -18 -18 -18h-374c-8 0 -14 -6 -14 -14v-269c0 -8 6 -14 14 -14h445
c10 0 18 -8 18 -18v-22c0 -10 -8 -18 -18 -18zM254 891l222 135c6 4 15 1 19 -5l15 -27c4 -6 1 -15 -5 -19l-228 -124c-6 -4 -15 -1 -19 5l-9 16c-4 6 -2 15 5 19z" />
    <glyph glyph-name="ecaron" unicode="&#x11b;" horiz-adv-x="710" 
d="M630 0h-500c-10 0 -18 8 -18 18v744c0 10 8 18 18 18h500c10 0 18 -8 18 -18v-22c0 -10 -8 -18 -18 -18h-445c-8 0 -14 -6 -14 -14v-283c0 -8 6 -14 14 -14h374c10 0 18 -8 18 -18v-20c0 -10 -8 -18 -18 -18h-374c-8 0 -14 -6 -14 -14v-269c0 -8 6 -14 14 -14h445
c10 0 18 -8 18 -18v-22c0 -10 -8 -18 -18 -18zM543 982l-153 -113c-6 -5 -16 -4 -22 0l-151 113c-6 4 -7 13 -2 19l12 15c5 6 14 7 20 3l117 -85c9 -7 21 -7 30 -1l119 86c6 4 15 3 20 -3l12 -15c5 -6 4 -15 -2 -19z" />
    <glyph glyph-name="ecircumflex" unicode="&#xea;" horiz-adv-x="710" 
d="M630 0h-500c-10 0 -18 8 -18 18v744c0 10 8 18 18 18h500c10 0 18 -8 18 -18v-22c0 -10 -8 -18 -18 -18h-445c-8 0 -14 -6 -14 -14v-283c0 -8 6 -14 14 -14h374c10 0 18 -8 18 -18v-20c0 -10 -8 -18 -18 -18h-374c-8 0 -14 -6 -14 -14v-269c0 -8 6 -14 14 -14h445
c10 0 18 -8 18 -18v-22c0 -10 -8 -18 -18 -18zM393 1016l147 -107c7 -6 9 -17 3 -25l-8 -9c-6 -8 -18 -9 -26 -4l-119 86c-6 5 -16 5 -22 0l-117 -85c-8 -6 -20 -5 -26 3l-8 9c-6 8 -4 19 3 25l145 107c8 7 20 7 28 0z" />
    <glyph glyph-name="edieresis" unicode="&#xeb;" horiz-adv-x="710" 
d="M630 0h-500c-10 0 -18 8 -18 18v744c0 10 8 18 18 18h500c10 0 18 -8 18 -18v-22c0 -10 -8 -18 -18 -18h-445c-8 0 -14 -6 -14 -14v-283c0 -8 6 -14 14 -14h374c10 0 18 -8 18 -18v-20c0 -10 -8 -18 -18 -18h-374c-8 0 -14 -6 -14 -14v-269c0 -8 6 -14 14 -14h445
c10 0 18 -8 18 -18v-22c0 -10 -8 -18 -18 -18zM271 878c-25 0 -46 20 -46 45s21 46 46 46s45 -21 45 -46s-20 -45 -45 -45zM489 878c-25 0 -46 20 -46 45s21 46 46 46s46 -21 46 -46s-21 -45 -46 -45z" />
    <glyph glyph-name="edotaccent" unicode="&#x117;" horiz-adv-x="710" 
d="M630 0h-500c-10 0 -18 8 -18 18v744c0 10 8 18 18 18h500c10 0 18 -8 18 -18v-22c0 -10 -8 -18 -18 -18h-445c-8 0 -14 -6 -14 -14v-283c0 -8 6 -14 14 -14h374c10 0 18 -8 18 -18v-20c0 -10 -8 -18 -18 -18h-374c-8 0 -14 -6 -14 -14v-269c0 -8 6 -14 14 -14h445
c10 0 18 -8 18 -18v-22c0 -10 -8 -18 -18 -18zM380 868c-25 0 -46 20 -46 45s21 46 46 46s45 -21 45 -46s-20 -45 -45 -45z" />
    <glyph glyph-name="egrave" unicode="&#xe8;" horiz-adv-x="710" 
d="M630 0h-500c-10 0 -18 8 -18 18v744c0 10 8 18 18 18h500c10 0 18 -8 18 -18v-22c0 -10 -8 -18 -18 -18h-445c-8 0 -14 -6 -14 -14v-283c0 -8 6 -14 14 -14h374c10 0 18 -8 18 -18v-20c0 -10 -8 -18 -18 -18h-374c-8 0 -14 -6 -14 -14v-269c0 -8 6 -14 14 -14h445
c10 0 18 -8 18 -18v-22c0 -10 -8 -18 -18 -18zM286 1024l216 -131c8 -5 11 -16 6 -25l-5 -8c-5 -9 -16 -12 -25 -7l-220 120c-9 5 -12 16 -7 25l11 19c5 9 16 12 24 7z" />
    <glyph glyph-name="emacron" unicode="&#x113;" horiz-adv-x="710" 
d="M630 0h-500c-10 0 -18 8 -18 18v744c0 10 8 18 18 18h500c10 0 18 -8 18 -18v-22c0 -10 -8 -18 -18 -18h-445c-8 0 -14 -6 -14 -14v-283c0 -8 6 -14 14 -14h374c10 0 18 -8 18 -18v-20c0 -10 -8 -18 -18 -18h-374c-8 0 -14 -6 -14 -14v-269c0 -8 6 -14 14 -14h445
c10 0 18 -8 18 -18v-22c0 -10 -8 -18 -18 -18zM235 927h291c10 0 18 -8 18 -18v-13c0 -10 -8 -18 -18 -18h-291c-10 0 -18 8 -18 18v13c0 10 8 18 18 18z" />
    <glyph glyph-name="eogonek" unicode="&#x119;" horiz-adv-x="709" 
d="M587 0h-458c-10 0 -18 8 -18 18v744c0 10 8 18 18 18h500c10 0 18 -8 18 -18v-22c0 -10 -8 -18 -18 -18h-445c-8 0 -14 -6 -14 -14v-283c0 -8 6 -14 14 -14h374c10 0 18 -8 18 -18v-20c0 -10 -8 -18 -18 -18h-374c-8 0 -14 -6 -14 -14v-269c0 -8 6 -14 14 -14h445
c10 0 18 -8 18 -18v-21c0 -11 -5 -23 -13 -30c-44 -40 -90 -90 -90 -137c0 -40 34 -59 89 -52c11 1 19 -5 21 -16l2 -11c2 -9 -6 -19 -15 -20c-82 -11 -142 24 -142 90c0 59 46 110 91 148c4 3 2 9 -3 9z" />
    <glyph glyph-name="gbreve" unicode="&#x11f;" horiz-adv-x="884" 
d="M743 349h-253c-10 0 -18 8 -18 18v16c0 10 8 18 18 18h305c10 0 18 -8 18 -18v-365c0 -10 -8 -18 -18 -18h-14c-10 0 -18 8 -18 18v78c0 6 -1 18 -1 24l-1 2c0 4 -5 6 -8 2c-65 -86 -172 -139 -290 -139c-225 0 -407 181 -407 405c0 223 182 405 407 405
c127 0 240 -59 315 -151c6 -7 4 -19 -4 -24l-19 -13c-8 -6 -19 -5 -26 3c-64 77 -160 126 -266 126c-191 0 -347 -156 -347 -346c0 -191 156 -346 347 -346c119 0 224 61 287 155c4 7 7 17 7 25v111c0 8 -6 14 -14 14zM463 861c-75 0 -134 44 -168 103c-4 8 -1 20 7 24l10 6
c9 5 19 2 25 -7c29 -48 74 -75 126 -75c53 0 98 27 127 75c6 9 16 12 25 7l10 -6c8 -4 11 -16 7 -24c-34 -59 -94 -103 -169 -103z" />
    <glyph glyph-name="gdotaccent" unicode="&#x121;" horiz-adv-x="884" 
d="M743 349h-253c-10 0 -18 8 -18 18v16c0 10 8 18 18 18h305c10 0 18 -8 18 -18v-365c0 -10 -8 -18 -18 -18h-14c-10 0 -18 8 -18 18v78c0 6 -1 18 -1 24l-1 2c0 4 -5 6 -8 2c-65 -86 -172 -139 -290 -139c-225 0 -407 181 -407 405c0 223 182 405 407 405
c127 0 240 -59 315 -151c6 -7 4 -19 -4 -24l-19 -13c-8 -6 -19 -5 -26 3c-64 77 -160 126 -266 126c-191 0 -347 -156 -347 -346c0 -191 156 -346 347 -346c119 0 224 61 287 155c4 7 7 17 7 25v111c0 8 -6 14 -14 14zM463 868c-25 0 -46 20 -46 45s21 46 46 46
s45 -21 45 -46s-20 -45 -45 -45z" />
    <glyph glyph-name="gcommaaccent" unicode="&#x123;" horiz-adv-x="884" 
d="M743 349h-253c-10 0 -18 8 -18 18v16c0 10 8 18 18 18h305c10 0 18 -8 18 -18v-365c0 -10 -8 -18 -18 -18h-14c-10 0 -18 8 -18 18v78c0 6 -1 18 -1 24l-1 2c0 4 -5 6 -8 2c-65 -86 -172 -139 -290 -139c-225 0 -407 181 -407 405c0 223 182 405 407 405
c127 0 240 -59 315 -151c6 -7 4 -19 -4 -24l-19 -13c-8 -6 -19 -5 -26 3c-64 77 -160 126 -266 126c-191 0 -347 -156 -347 -346c0 -191 156 -346 347 -346c119 0 224 61 287 155c4 7 7 17 7 25v111c0 8 -6 14 -14 14zM511 -116c0 -66 -57 -129 -98 -166c-6 -5 -16 -5 -21 1
l-1 2c-6 6 -5 16 1 21c20 21 51 53 67 92c3 8 0 14 -9 17c-16 4 -30 20 -30 40c0 24 20 44 44 44s47 -19 47 -51z" />
    <glyph glyph-name="hbar" unicode="&#x127;" horiz-adv-x="878" 
d="M707 634v128c0 10 8 18 18 18h23c10 0 18 -8 18 -18v-128c0 -8 6 -14 14 -14h42c10 0 18 -8 18 -18v-13c0 -10 -8 -18 -18 -18h-42c-8 0 -14 -6 -14 -14v-539c0 -10 -8 -18 -18 -18h-23c-10 0 -18 8 -18 18v323c0 8 -6 14 -14 14h-508c-8 0 -14 -6 -14 -14v-323
c0 -10 -8 -18 -18 -18h-23c-10 0 -18 8 -18 18v539c0 8 -6 14 -14 14h-42c-10 0 -18 8 -18 18v13c0 10 8 18 18 18h42c8 0 14 6 14 14v128c0 10 8 18 18 18h23c10 0 18 -8 18 -18v-128c0 -8 6 -14 14 -14h508c8 0 14 6 14 14zM693 571h-508c-8 0 -14 -6 -14 -14v-132
c0 -8 6 -14 14 -14h508c8 0 14 6 14 14v132c0 8 -6 14 -14 14z" />
    <glyph glyph-name="iacute" unicode="&#xed;" horiz-adv-x="282" 
d="M112 18v744c0 10 8 18 18 18h23c10 0 18 -8 18 -18v-744c0 -10 -8 -18 -18 -18h-23c-10 0 -18 8 -18 18zM16 891l222 135c6 4 15 1 19 -5l15 -27c4 -6 1 -15 -5 -19l-228 -124c-6 -4 -15 -1 -19 5l-9 16c-4 6 -2 15 5 19z" />
    <glyph glyph-name="ibreve" unicode="&#x12d;" horiz-adv-x="282" 
d="M112 18v744c0 10 8 18 18 18h23c10 0 18 -8 18 -18v-744c0 -10 -8 -18 -18 -18h-23c-10 0 -18 8 -18 18zM141 861c-75 0 -134 44 -168 103c-4 8 -1 20 7 24l10 6c9 5 19 2 25 -7c29 -48 74 -75 126 -75c53 0 98 27 127 75c6 9 16 12 25 7l10 -6c8 -4 11 -16 7 -24
c-34 -59 -94 -103 -169 -103z" />
    <glyph glyph-name="icircumflex" unicode="&#xee;" horiz-adv-x="282" 
d="M112 18v744c0 10 8 18 18 18h23c10 0 18 -8 18 -18v-744c0 -10 -8 -18 -18 -18h-23c-10 0 -18 8 -18 18zM155 1016l147 -107c7 -6 9 -17 3 -25l-8 -9c-6 -8 -18 -9 -26 -4l-119 86c-6 5 -16 5 -22 0l-117 -85c-8 -6 -20 -5 -26 3l-8 9c-6 8 -4 19 3 25l145 107
c8 7 20 7 28 0z" />
    <glyph glyph-name="idieresis" unicode="&#xef;" horiz-adv-x="282" 
d="M112 18v744c0 10 8 18 18 18h23c10 0 18 -8 18 -18v-744c0 -10 -8 -18 -18 -18h-23c-10 0 -18 8 -18 18zM32 878c-25 0 -46 20 -46 45s21 46 46 46s45 -21 45 -46s-20 -45 -45 -45zM250 878c-25 0 -46 20 -46 45s21 46 46 46s46 -21 46 -46s-21 -45 -46 -45z" />
    <glyph glyph-name="igrave" unicode="&#xec;" horiz-adv-x="282" 
d="M112 18v744c0 10 8 18 18 18h23c10 0 18 -8 18 -18v-744c0 -10 -8 -18 -18 -18h-23c-10 0 -18 8 -18 18zM48 1024l216 -131c8 -5 11 -16 6 -25l-5 -8c-5 -9 -16 -12 -25 -7l-220 120c-9 5 -12 16 -7 25l11 19c5 9 16 12 24 7z" />
    <glyph glyph-name="ij" unicode="&#x133;" horiz-adv-x="926" 
d="M112 18v744c0 10 8 18 18 18h23c10 0 18 -8 18 -18v-744c0 -10 -8 -18 -18 -18h-23c-10 0 -18 8 -18 18zM764 260v502c0 10 8 18 18 18h23c10 0 18 -8 18 -18v-502c0 -180 -123 -275 -266 -275s-268 95 -268 275v48c0 10 8 18 18 18h24c10 0 18 -8 18 -18v-48
c0 -147 97 -217 208 -217c109 0 207 70 207 217z" />
    <glyph glyph-name="imacron" unicode="&#x12b;" horiz-adv-x="282" 
d="M112 18v744c0 10 8 18 18 18h23c10 0 18 -8 18 -18v-744c0 -10 -8 -18 -18 -18h-23c-10 0 -18 8 -18 18zM-4 927h291c10 0 18 -8 18 -18v-13c0 -10 -8 -18 -18 -18h-291c-10 0 -18 8 -18 18v13c0 10 8 18 18 18z" />
    <glyph glyph-name="iogonek" unicode="&#x12f;" horiz-adv-x="283" 
d="M113 5v757c0 10 8 18 18 18h23c10 0 18 -8 18 -18v-744c0 -11 -5 -22 -14 -30c-44 -38 -90 -89 -90 -136c0 -40 34 -59 89 -52c11 1 19 -5 21 -16l2 -11c2 -9 -6 -19 -15 -20c-82 -11 -142 24 -142 90c0 62 51 115 98 154c1 1 1 3 -1 3h-2c-3 0 -5 2 -5 5z" />
    <glyph glyph-name="itilde" unicode="&#x129;" horiz-adv-x="282" 
d="M112 18v744c0 10 8 18 18 18h23c10 0 18 -8 18 -18v-744c0 -10 -8 -18 -18 -18h-23c-10 0 -18 8 -18 18zM57 953c-34 0 -55 -31 -60 -72c-1 -11 -9 -18 -20 -18h-9c-9 0 -17 9 -16 18c5 57 33 123 105 123c34 0 58 -13 102 -55c24 -24 45 -44 71 -44c32 0 52 31 55 72
c1 11 9 18 20 18h10c9 0 17 -9 16 -18c-4 -56 -30 -123 -101 -123c-35 0 -55 15 -99 55c-28 25 -48 44 -74 44z" />
    <glyph glyph-name="jcircumflex" unicode="&#x135;" horiz-adv-x="681" 
d="M519 260v502c0 10 8 18 18 18h23c10 0 18 -8 18 -18v-502c0 -180 -123 -275 -266 -275s-268 95 -268 275v48c0 10 8 18 18 18h24c10 0 18 -8 18 -18v-48c0 -147 97 -217 208 -217c109 0 207 70 207 217zM562 1016l147 -107c7 -6 9 -17 3 -25l-8 -9c-6 -8 -18 -9 -26 -4
l-119 86c-6 5 -16 5 -22 0l-117 -85c-8 -6 -20 -5 -26 3l-8 9c-6 8 -4 19 3 25l145 107c8 7 20 7 28 0z" />
    <glyph glyph-name="kcommaaccent" unicode="&#x137;" horiz-adv-x="778" 
d="M153 0h-23c-10 0 -18 8 -18 18v744c0 10 8 18 18 18h23c10 0 18 -8 18 -18v-444c0 -5 6 -8 10 -4l480 454c8 7 20 12 31 12h44c7 0 10 -8 5 -12l-316 -300c-5 -6 -6 -15 -1 -21l333 -433c5 -6 0 -14 -7 -14h-39c-11 0 -22 6 -29 14l-302 391c-5 6 -14 6 -19 1l-180 -170
c-6 -6 -10 -15 -10 -24v-194c0 -10 -8 -18 -18 -18zM486 -116c0 -66 -57 -129 -98 -166c-6 -5 -16 -5 -21 1l-1 2c-6 6 -5 16 1 21c20 21 51 53 67 92c3 8 0 14 -9 17c-16 4 -30 20 -30 40c0 24 20 44 44 44s47 -19 47 -51z" />
    <glyph glyph-name="lacute" unicode="&#x13a;" horiz-adv-x="655" 
d="M604 0h-474c-10 0 -18 8 -18 18v744c0 10 8 18 18 18h23c10 0 18 -8 18 -18v-690c0 -8 6 -14 14 -14h419c10 0 18 -8 18 -18v-22c0 -10 -8 -18 -18 -18zM16 891l222 135c6 4 15 1 19 -5l15 -27c4 -6 1 -15 -5 -19l-228 -124c-6 -4 -15 -1 -19 5l-9 16c-4 6 -2 15 5 19z
" />
    <glyph glyph-name="lcaron" unicode="&#x13e;" horiz-adv-x="655" 
d="M604 0h-474c-10 0 -18 8 -18 18v744c0 10 8 18 18 18h23c10 0 18 -8 18 -18v-690c0 -8 6 -14 14 -14h419c10 0 18 -8 18 -18v-22c0 -10 -8 -18 -18 -18zM389 739c0 -66 -57 -129 -98 -166c-6 -5 -16 -5 -21 1l-1 2c-6 6 -5 16 1 21c20 21 51 53 67 92c3 8 0 14 -9 17
c-16 4 -30 20 -30 40c0 24 20 44 44 44s47 -19 47 -51z" />
    <glyph glyph-name="lcommaaccent" unicode="&#x13c;" horiz-adv-x="655" 
d="M604 0h-474c-10 0 -18 8 -18 18v744c0 10 8 18 18 18h23c10 0 18 -8 18 -18v-690c0 -8 6 -14 14 -14h419c10 0 18 -8 18 -18v-22c0 -10 -8 -18 -18 -18zM414 -116c0 -66 -57 -129 -98 -166c-6 -5 -16 -5 -21 1l-1 2c-6 6 -5 16 1 21c20 21 51 53 67 92c3 8 0 14 -9 17
c-16 4 -30 20 -30 40c0 24 20 44 44 44s47 -19 47 -51z" />
    <glyph glyph-name="ldot" unicode="&#x140;" horiz-adv-x="655" 
d="M604 0h-474c-10 0 -18 8 -18 18v744c0 10 8 18 18 18h23c10 0 18 -8 18 -18v-690c0 -8 6 -14 14 -14h419c10 0 18 -8 18 -18v-22c0 -10 -8 -18 -18 -18zM396 373c-25 0 -46 20 -46 45s21 46 46 46s45 -21 45 -46s-20 -45 -45 -45z" />
    <glyph glyph-name="lslash" unicode="&#x142;" horiz-adv-x="655" 
d="M112 411v351c0 10 8 18 18 18h23c10 0 18 -8 18 -18v-324c0 -7 7 -11 13 -8l215 98c7 3 16 -2 16 -11v-26c0 -11 -7 -21 -16 -25l-215 -98c-8 -4 -13 -12 -13 -20v-276c0 -8 6 -14 14 -14h420c10 0 18 -8 18 -18v-22c0 -10 -8 -18 -18 -18h-475c-10 0 -18 8 -18 18v303
c0 7 -7 11 -13 8l-49 -22c-7 -3 -16 2 -16 11v26c0 11 7 21 16 25l49 22c8 4 13 12 13 20z" />
    <glyph glyph-name="eng" unicode="&#x14b;" horiz-adv-x="874" 
d="M170 664v-646c0 -10 -8 -18 -18 -18h-23c-10 0 -18 8 -18 18v744c0 10 8 18 18 18h17c11 0 22 -6 29 -14l520 -654c3 -4 9 -2 9 3v647c0 10 8 18 18 18h23c10 0 18 -8 18 -18v-801c0 -180 -127 -275 -264 -275c-123 0 -198 77 -228 155c-3 9 2 20 10 23l22 7
c10 3 20 -1 24 -11c24 -60 82 -116 174 -116c103 0 203 69 203 217v32c0 9 -3 18 -9 25l-516 649c-3 4 -9 2 -9 -3z" />
    <glyph glyph-name="nacute" unicode="&#x144;" horiz-adv-x="877" 
d="M171 665v-647c0 -10 -8 -18 -18 -18h-23c-10 0 -18 8 -18 18v744c0 10 8 18 18 18h17c11 0 22 -5 29 -14l520 -653c3 -4 9 -2 9 3v646c0 10 8 18 18 18h24c10 0 18 -8 18 -18v-744c0 -10 -8 -18 -18 -18h-18c-11 0 -22 6 -29 14l-520 654c-3 4 -9 2 -9 -3zM313 891
l222 135c6 4 15 1 19 -5l15 -27c4 -6 1 -15 -5 -19l-228 -124c-6 -4 -15 -1 -19 5l-9 16c-4 6 -2 15 5 19z" />
    <glyph glyph-name="ncaron" unicode="&#x148;" horiz-adv-x="877" 
d="M171 665v-647c0 -10 -8 -18 -18 -18h-23c-10 0 -18 8 -18 18v744c0 10 8 18 18 18h17c11 0 22 -5 29 -14l520 -653c3 -4 9 -2 9 3v646c0 10 8 18 18 18h24c10 0 18 -8 18 -18v-744c0 -10 -8 -18 -18 -18h-18c-11 0 -22 6 -29 14l-520 654c-3 4 -9 2 -9 -3zM602 982
l-153 -113c-6 -5 -16 -4 -22 0l-151 113c-6 4 -7 13 -2 19l12 15c5 6 14 7 20 3l117 -85c9 -7 21 -7 30 -1l119 86c6 4 15 3 20 -3l12 -15c5 -6 4 -15 -2 -19z" />
    <glyph glyph-name="ncommaaccent" unicode="&#x146;" horiz-adv-x="877" 
d="M171 665v-647c0 -10 -8 -18 -18 -18h-23c-10 0 -18 8 -18 18v744c0 10 8 18 18 18h17c11 0 22 -5 29 -14l520 -653c3 -4 9 -2 9 3v646c0 10 8 18 18 18h24c10 0 18 -8 18 -18v-744c0 -10 -8 -18 -18 -18h-18c-11 0 -22 6 -29 14l-520 654c-3 4 -9 2 -9 -3zM485 -116
c0 -66 -57 -129 -98 -166c-6 -5 -16 -5 -21 1l-1 2c-6 6 -5 16 1 21c20 21 51 53 67 92c3 8 0 14 -9 17c-16 4 -30 20 -30 40c0 24 20 44 44 44s47 -19 47 -51z" />
    <glyph glyph-name="ntilde" unicode="&#xf1;" horiz-adv-x="877" 
d="M171 665v-647c0 -10 -8 -18 -18 -18h-23c-10 0 -18 8 -18 18v744c0 10 8 18 18 18h17c11 0 22 -5 29 -14l520 -653c3 -4 9 -2 9 3v646c0 10 8 18 18 18h24c10 0 18 -8 18 -18v-744c0 -10 -8 -18 -18 -18h-18c-11 0 -22 6 -29 14l-520 654c-3 4 -9 2 -9 -3zM354 953
c-34 0 -55 -31 -60 -72c-1 -11 -9 -18 -20 -18h-9c-9 0 -17 9 -16 18c5 57 33 123 105 123c34 0 58 -13 102 -55c24 -24 45 -44 71 -44c32 0 52 31 55 72c1 11 9 18 20 18h10c9 0 17 -9 16 -18c-4 -56 -30 -123 -101 -123c-35 0 -55 15 -99 55c-28 25 -48 44 -74 44z" />
    <glyph glyph-name="oacute" unicode="&#xf3;" 
d="M463 -15c-225 0 -407 181 -407 405c0 223 182 405 407 405c224 0 406 -182 406 -405c0 -224 -182 -405 -406 -405zM463 736c-191 0 -347 -156 -347 -346c0 -191 156 -346 347 -346c190 0 346 155 346 346c0 190 -156 346 -346 346zM337 891l222 135c6 4 15 1 19 -5
l15 -27c4 -6 1 -15 -5 -19l-228 -124c-6 -4 -15 -1 -19 5l-9 16c-4 6 -2 15 5 19z" />
    <glyph glyph-name="obreve" unicode="&#x14f;" 
d="M463 -15c-225 0 -407 181 -407 405c0 223 182 405 407 405c224 0 406 -182 406 -405c0 -224 -182 -405 -406 -405zM463 736c-191 0 -347 -156 -347 -346c0 -191 156 -346 347 -346c190 0 346 155 346 346c0 190 -156 346 -346 346zM462 861c-75 0 -134 44 -168 103
c-4 8 -1 20 7 24l10 6c9 5 19 2 25 -7c29 -48 74 -75 126 -75c53 0 98 27 127 75c6 9 16 12 25 7l10 -6c8 -4 11 -16 7 -24c-34 -59 -94 -103 -169 -103z" />
    <glyph glyph-name="ocircumflex" unicode="&#xf4;" 
d="M463 -15c-225 0 -407 181 -407 405c0 223 182 405 407 405c224 0 406 -182 406 -405c0 -224 -182 -405 -406 -405zM463 736c-191 0 -347 -156 -347 -346c0 -191 156 -346 347 -346c190 0 346 155 346 346c0 190 -156 346 -346 346zM476 1016l147 -107c7 -6 9 -17 3 -25
l-8 -9c-6 -8 -18 -9 -26 -4l-119 86c-6 5 -16 5 -22 0l-117 -85c-8 -6 -20 -5 -26 3l-8 9c-6 8 -4 19 3 25l145 107c8 7 20 7 28 0z" />
    <glyph glyph-name="odieresis" unicode="&#xf6;" 
d="M463 -15c-225 0 -407 181 -407 405c0 223 182 405 407 405c224 0 406 -182 406 -405c0 -224 -182 -405 -406 -405zM463 736c-191 0 -347 -156 -347 -346c0 -191 156 -346 347 -346c190 0 346 155 346 346c0 190 -156 346 -346 346zM354 878c-25 0 -46 20 -46 45
s21 46 46 46s45 -21 45 -46s-20 -45 -45 -45zM572 878c-25 0 -46 20 -46 45s21 46 46 46s46 -21 46 -46s-21 -45 -46 -45z" />
    <glyph glyph-name="ograve" unicode="&#xf2;" 
d="M463 -15c-225 0 -407 181 -407 405c0 223 182 405 407 405c224 0 406 -182 406 -405c0 -224 -182 -405 -406 -405zM463 736c-191 0 -347 -156 -347 -346c0 -191 156 -346 347 -346c190 0 346 155 346 346c0 190 -156 346 -346 346zM369 1024l216 -131c8 -5 11 -16 6 -25
l-5 -8c-5 -9 -16 -12 -25 -7l-220 120c-9 5 -12 16 -7 25l11 19c5 9 16 12 24 7z" />
    <glyph glyph-name="ohungarumlaut" unicode="&#x151;" 
d="M463 -15c-225 0 -407 181 -407 405c0 223 182 405 407 405c224 0 406 -182 406 -405c0 -224 -182 -405 -406 -405zM463 736c-191 0 -347 -156 -347 -346c0 -191 156 -346 347 -346c190 0 346 155 346 346c0 190 -156 346 -346 346zM493 1026l-150 -144
c-7 -6 -19 -6 -26 1l-7 7c-7 7 -7 19 -1 26l144 150c6 7 18 7 25 0l15 -15c7 -7 7 -19 0 -25zM716 1026l-150 -144c-7 -6 -19 -6 -26 1l-6 7c-7 7 -7 19 -1 26l143 150c6 7 18 7 25 0l15 -15c7 -7 7 -19 0 -25z" />
    <glyph glyph-name="omacron" unicode="&#x14d;" 
d="M463 -15c-225 0 -407 181 -407 405c0 223 182 405 407 405c224 0 406 -182 406 -405c0 -224 -182 -405 -406 -405zM463 736c-191 0 -347 -156 -347 -346c0 -191 156 -346 347 -346c190 0 346 155 346 346c0 190 -156 346 -346 346zM318 927h291c10 0 18 -8 18 -18v-13
c0 -10 -8 -18 -18 -18h-291c-10 0 -18 8 -18 18v13c0 10 8 18 18 18z" />
    <glyph glyph-name="oslashacute" unicode="&#x1ff;" 
d="M337 891l222 135c6 4 15 1 19 -5l15 -27c4 -6 1 -15 -5 -19l-228 -124c-6 -4 -15 -1 -19 5l-9 16c-4 6 -2 15 5 19zM161 117c-65 72 -105 168 -105 273c0 223 182 405 407 405c92 0 178 -32 246 -84c6 -5 15 -4 21 1l50 55c7 8 19 13 30 13h25c7 0 11 -8 6 -13l-78 -85
c-6 -5 -6 -14 0 -20c66 -72 106 -168 106 -272c0 -224 -183 -405 -406 -405c-93 0 -179 31 -248 83c-6 5 -15 4 -21 -1l-49 -54c-7 -8 -19 -13 -30 -13h-25c-7 0 -11 8 -6 13l77 84c6 5 6 14 0 20zM463 44c190 0 346 155 346 346c0 87 -33 167 -87 228c-4 5 -13 5 -18 0
l-450 -487c-5 -5 -4 -14 2 -19c57 -42 129 -68 207 -68zM463 736c-191 0 -347 -156 -347 -346c0 -88 32 -168 86 -229c5 -5 14 -5 19 0l450 488c5 5 4 14 -2 19c-58 42 -129 68 -206 68z" />
    <glyph glyph-name="otilde" unicode="&#xf5;" 
d="M463 -15c-225 0 -407 181 -407 405c0 223 182 405 407 405c224 0 406 -182 406 -405c0 -224 -182 -405 -406 -405zM463 736c-191 0 -347 -156 -347 -346c0 -191 156 -346 347 -346c190 0 346 155 346 346c0 190 -156 346 -346 346zM378 953c-34 0 -55 -31 -60 -72
c-1 -11 -9 -18 -20 -18h-9c-9 0 -17 9 -16 18c5 57 33 123 105 123c34 0 58 -13 102 -55c24 -24 45 -44 71 -44c32 0 52 31 55 72c1 11 9 18 20 18h10c9 0 17 -9 16 -18c-4 -56 -30 -123 -101 -123c-35 0 -55 15 -99 55c-28 25 -48 44 -74 44z" />
    <glyph glyph-name="racute" unicode="&#x155;" horiz-adv-x="794" 
d="M112 18v744c0 10 8 18 18 18h326c169 0 266 -116 266 -251c0 -106 -59 -199 -165 -237c-6 -2 -9 -10 -5 -16l187 -261c4 -7 0 -15 -8 -15h-36c-11 0 -22 6 -28 15l-180 253c-5 5 -10 8 -18 8h-13h-271c-8 0 -14 -6 -14 -14v-244c0 -10 -8 -18 -18 -18h-23
c-10 0 -18 8 -18 18zM664 528c0 103 -74 196 -210 196h-269c-8 0 -14 -6 -14 -14v-364c0 -8 6 -14 14 -14h269c136 0 210 92 210 196zM305 891l222 135c6 4 15 1 19 -5l15 -27c4 -6 1 -15 -5 -19l-228 -124c-6 -4 -15 -1 -19 5l-9 16c-4 6 -2 15 5 19z" />
    <glyph glyph-name="rcaron" unicode="&#x159;" horiz-adv-x="794" 
d="M112 18v744c0 10 8 18 18 18h326c169 0 266 -116 266 -251c0 -106 -59 -199 -165 -237c-6 -2 -9 -10 -5 -16l187 -261c4 -7 0 -15 -8 -15h-36c-11 0 -22 6 -28 15l-180 253c-5 5 -10 8 -18 8h-13h-271c-8 0 -14 -6 -14 -14v-244c0 -10 -8 -18 -18 -18h-23
c-10 0 -18 8 -18 18zM664 528c0 103 -74 196 -210 196h-269c-8 0 -14 -6 -14 -14v-364c0 -8 6 -14 14 -14h269c136 0 210 92 210 196zM593 982l-153 -113c-6 -5 -16 -4 -22 0l-151 113c-6 4 -7 13 -2 19l12 15c5 6 14 7 20 3l117 -85c9 -7 21 -7 30 -1l119 86
c6 4 15 3 20 -3l12 -15c5 -6 4 -15 -2 -19z" />
    <glyph glyph-name="rcommaaccent" unicode="&#x157;" horiz-adv-x="794" 
d="M112 18v744c0 10 8 18 18 18h326c169 0 266 -116 266 -251c0 -106 -59 -199 -165 -237c-6 -2 -9 -10 -5 -16l187 -261c4 -7 0 -15 -8 -15h-36c-11 0 -22 6 -28 15l-180 253c-5 5 -10 8 -18 8h-13h-271c-8 0 -14 -6 -14 -14v-244c0 -10 -8 -18 -18 -18h-23
c-10 0 -18 8 -18 18zM664 528c0 103 -74 196 -210 196h-269c-8 0 -14 -6 -14 -14v-364c0 -8 6 -14 14 -14h269c136 0 210 92 210 196zM476 -116c0 -66 -57 -129 -98 -166c-6 -5 -16 -5 -21 1l-1 2c-6 6 -5 16 1 21c20 21 51 53 67 92c3 8 0 14 -9 17c-16 4 -30 20 -30 40
c0 24 20 44 44 44s47 -19 47 -51z" />
    <glyph glyph-name="sacute" unicode="&#x15b;" horiz-adv-x="704" 
d="M362 -15c-169 0 -293 76 -302 188c-1 11 9 23 20 22h17c12 -1 20 -9 21 -20c12 -79 103 -135 244 -135c145 0 223 61 223 145c0 102 -110 138 -242 178c-127 39 -278 87 -278 228c0 122 108 204 277 204c163 0 283 -77 291 -189c1 -9 -7 -22 -16 -22h-22
c-11 0 -19 9 -20 20c-11 80 -98 136 -233 136c-139 0 -215 -61 -215 -145c0 -100 106 -135 233 -175c125 -38 288 -86 288 -232c0 -123 -113 -203 -286 -203zM216 891l222 135c6 4 15 1 19 -5l15 -27c4 -6 1 -15 -5 -19l-228 -124c-6 -4 -15 -1 -19 5l-9 16c-4 6 -2 15 5 19
z" />
    <glyph glyph-name="scaron" unicode="&#x161;" horiz-adv-x="704" 
d="M362 -15c-169 0 -293 76 -302 188c-1 11 9 23 20 22h17c12 -1 20 -9 21 -20c12 -79 103 -135 244 -135c145 0 223 61 223 145c0 102 -110 138 -242 178c-127 39 -278 87 -278 228c0 122 108 204 277 204c163 0 283 -77 291 -189c1 -9 -7 -22 -16 -22h-22
c-11 0 -19 9 -20 20c-11 80 -98 136 -233 136c-139 0 -215 -61 -215 -145c0 -100 106 -135 233 -175c125 -38 288 -86 288 -232c0 -123 -113 -203 -286 -203zM505 982l-153 -113c-6 -5 -16 -4 -22 0l-151 113c-6 4 -7 13 -2 19l12 15c5 6 14 7 20 3l117 -85
c9 -7 21 -7 30 -1l119 86c6 4 15 3 20 -3l12 -15c5 -6 4 -15 -2 -19z" />
    <glyph glyph-name="scedilla" unicode="&#x15f;" horiz-adv-x="705" 
d="M329 -14c-152 9 -261 83 -269 187c-1 11 9 23 20 22h17c12 -1 20 -9 21 -20c12 -79 103 -135 244 -135c145 0 223 61 223 145c0 102 -110 138 -242 178c-127 39 -278 87 -278 228c0 122 108 204 277 204c163 0 283 -77 291 -189c1 -9 -7 -22 -16 -22h-22
c-11 0 -19 9 -20 20c-11 80 -98 136 -233 136c-139 0 -215 -61 -215 -145c0 -100 106 -135 233 -175c125 -38 288 -86 288 -232c0 -116 -99 -191 -253 -201c-9 -1 -16 -6 -18 -15l-11 -30c-2 -7 3 -14 10 -15c79 -9 113 -58 113 -102c0 -52 -44 -102 -120 -102
c-42 0 -86 15 -109 25c-8 3 -12 15 -8 23l4 8c4 10 15 13 24 9c21 -9 53 -20 87 -20c55 0 81 31 81 62s-26 66 -99 64c-9 -1 -17 3 -22 9l-1 1c-5 6 -7 15 -4 22l16 46c3 6 -2 13 -9 14z" />
    <glyph glyph-name="scircumflex" unicode="&#x15d;" horiz-adv-x="704" 
d="M362 -15c-169 0 -293 76 -302 188c-1 11 9 23 20 22h17c12 -1 20 -9 21 -20c12 -79 103 -135 244 -135c145 0 223 61 223 145c0 102 -110 138 -242 178c-127 39 -278 87 -278 228c0 122 108 204 277 204c163 0 283 -77 291 -189c1 -9 -7 -22 -16 -22h-22
c-11 0 -19 9 -20 20c-11 80 -98 136 -233 136c-139 0 -215 -61 -215 -145c0 -100 106 -135 233 -175c125 -38 288 -86 288 -232c0 -123 -113 -203 -286 -203zM355 1016l147 -107c7 -6 9 -17 3 -25l-8 -9c-6 -8 -18 -9 -26 -4l-119 86c-6 5 -16 5 -22 0l-117 -85
c-8 -6 -20 -5 -26 3l-8 9c-6 8 -4 19 3 25l145 107c8 7 20 7 28 0z" />
    <glyph glyph-name="scommaaccent" unicode="&#x219;" horiz-adv-x="704" 
d="M362 -15c-169 0 -293 76 -302 188c-1 11 9 23 20 22h17c12 -1 20 -9 21 -20c12 -79 103 -135 244 -135c145 0 223 61 223 145c0 102 -110 138 -242 178c-127 39 -278 87 -278 228c0 122 108 204 277 204c163 0 283 -77 291 -189c1 -9 -7 -22 -16 -22h-22
c-11 0 -19 9 -20 20c-11 80 -98 136 -233 136c-139 0 -215 -61 -215 -145c0 -100 106 -135 233 -175c125 -38 288 -86 288 -232c0 -123 -113 -203 -286 -203zM409 -116c0 -66 -57 -129 -98 -166c-6 -5 -16 -5 -21 1l-1 2c-6 6 -5 16 1 21c20 21 51 53 67 92c3 8 0 14 -9 17
c-16 4 -30 20 -30 40c0 24 20 44 44 44s47 -19 47 -51z" />
    <glyph glyph-name="tbar" unicode="&#x167;" horiz-adv-x="684" 
d="M298 722h-249c-10 0 -18 8 -18 18v22c0 10 8 18 18 18h586c10 0 18 -8 18 -18v-22c0 -10 -8 -18 -18 -18h-249c-8 0 -14 -6 -14 -14v-279c0 -8 6 -14 14 -14h108c10 0 18 -8 18 -18v-12c0 -10 -8 -18 -18 -18h-108c-8 0 -14 -6 -14 -14v-335c0 -10 -8 -18 -18 -18h-24
c-10 0 -18 8 -18 18v335c0 8 -6 14 -14 14h-109c-10 0 -18 8 -18 18v12c0 10 8 18 18 18h109c8 0 14 6 14 14v279c0 8 -6 14 -14 14z" />
    <glyph glyph-name="tcaron" unicode="&#x165;" horiz-adv-x="676" 
d="M294 722h-249c-10 0 -18 8 -18 18v22c0 10 8 18 18 18h586c10 0 18 -8 18 -18v-22c0 -10 -8 -18 -18 -18h-250c-8 0 -14 -6 -14 -14v-690c0 -10 -8 -18 -18 -18h-23c-10 0 -18 8 -18 18v690c0 8 -6 14 -14 14zM501 982l-153 -113c-6 -5 -16 -4 -22 0l-151 113
c-6 4 -7 13 -2 19l12 15c5 6 14 7 20 3l117 -85c9 -7 21 -7 30 -1l119 86c6 4 15 3 20 -3l12 -15c5 -6 4 -15 -2 -19z" />
    <glyph glyph-name="tcommaaccent" unicode="&#x163;" horiz-adv-x="676" 
d="M294 722h-249c-10 0 -18 8 -18 18v22c0 10 8 18 18 18h586c10 0 18 -8 18 -18v-22c0 -10 -8 -18 -18 -18h-250c-8 0 -14 -6 -14 -14v-690c0 -10 -8 -18 -18 -18h-23c-10 0 -18 8 -18 18v690c0 8 -6 14 -14 14zM384 -116c0 -66 -57 -129 -98 -166c-6 -5 -16 -5 -21 1l-1 2
c-6 6 -5 16 1 21c20 21 51 53 67 92c3 8 0 14 -9 17c-16 4 -30 20 -30 40c0 24 20 44 44 44s47 -19 47 -51z" />
    <glyph glyph-name="uacute" unicode="&#xfa;" horiz-adv-x="856" 
d="M696 297v465c0 10 8 18 18 18h23c10 0 18 -8 18 -18v-467c0 -175 -114 -310 -327 -310s-327 135 -327 310v467c0 10 8 18 18 18h23c10 0 18 -8 18 -18v-465c0 -147 94 -254 268 -254c175 0 268 107 268 254zM302 891l222 135c6 4 15 1 19 -5l15 -27c4 -6 1 -15 -5 -19
l-228 -124c-6 -4 -15 -1 -19 5l-9 16c-4 6 -2 15 5 19z" />
    <glyph glyph-name="ubreve" unicode="&#x16d;" horiz-adv-x="856" 
d="M696 297v465c0 10 8 18 18 18h23c10 0 18 -8 18 -18v-467c0 -175 -114 -310 -327 -310s-327 135 -327 310v467c0 10 8 18 18 18h23c10 0 18 -8 18 -18v-465c0 -147 94 -254 268 -254c175 0 268 107 268 254zM427 861c-75 0 -134 44 -168 103c-4 8 -1 20 7 24l10 6
c9 5 19 2 25 -7c29 -48 74 -75 126 -75c53 0 98 27 127 75c6 9 16 12 25 7l10 -6c8 -4 11 -16 7 -24c-34 -59 -94 -103 -169 -103z" />
    <glyph glyph-name="ucircumflex" unicode="&#xfb;" horiz-adv-x="853" 
d="M694 297v465c0 10 8 18 18 18h23c10 0 18 -8 18 -18v-467c0 -175 -114 -310 -327 -310s-327 135 -327 310v467c0 10 8 18 18 18h23c10 0 18 -8 18 -18v-465c0 -147 94 -254 268 -254c175 0 268 107 268 254zM439 1016l147 -107c7 -6 9 -17 3 -25l-8 -9
c-6 -8 -18 -9 -26 -4l-119 86c-6 5 -16 5 -22 0l-117 -85c-8 -6 -20 -5 -26 3l-8 9c-6 8 -4 19 3 25l145 107c8 7 20 7 28 0z" />
    <glyph glyph-name="udieresis" unicode="&#xfc;" horiz-adv-x="856" 
d="M696 297v465c0 10 8 18 18 18h23c10 0 18 -8 18 -18v-467c0 -175 -114 -310 -327 -310s-327 135 -327 310v467c0 10 8 18 18 18h23c10 0 18 -8 18 -18v-465c0 -147 94 -254 268 -254c175 0 268 107 268 254zM319 878c-25 0 -46 20 -46 45s21 46 46 46s45 -21 45 -46
s-20 -45 -45 -45zM537 878c-25 0 -46 20 -46 45s21 46 46 46s46 -21 46 -46s-21 -45 -46 -45z" />
    <glyph glyph-name="ugrave" unicode="&#xf9;" horiz-adv-x="856" 
d="M696 297v465c0 10 8 18 18 18h23c10 0 18 -8 18 -18v-467c0 -175 -114 -310 -327 -310s-327 135 -327 310v467c0 10 8 18 18 18h23c10 0 18 -8 18 -18v-465c0 -147 94 -254 268 -254c175 0 268 107 268 254zM334 1024l216 -131c8 -5 11 -16 6 -25l-5 -8
c-5 -9 -16 -12 -25 -7l-220 120c-9 5 -12 16 -7 25l11 19c5 9 16 12 24 7z" />
    <glyph glyph-name="uhungarumlaut" unicode="&#x171;" horiz-adv-x="856" 
d="M696 297v465c0 10 8 18 18 18h23c10 0 18 -8 18 -18v-467c0 -175 -114 -310 -327 -310s-327 135 -327 310v467c0 10 8 18 18 18h23c10 0 18 -8 18 -18v-465c0 -147 94 -254 268 -254c175 0 268 107 268 254zM457 1026l-150 -144c-7 -6 -19 -6 -26 1l-7 7
c-7 7 -7 19 -1 26l144 150c6 7 18 7 25 0l15 -15c7 -7 7 -19 0 -25zM680 1026l-150 -144c-7 -6 -19 -6 -26 1l-6 7c-7 7 -7 19 -1 26l143 150c6 7 18 7 25 0l15 -15c7 -7 7 -19 0 -25z" />
    <glyph glyph-name="umacron" unicode="&#x16b;" horiz-adv-x="856" 
d="M696 297v465c0 10 8 18 18 18h23c10 0 18 -8 18 -18v-467c0 -175 -114 -310 -327 -310s-327 135 -327 310v467c0 10 8 18 18 18h23c10 0 18 -8 18 -18v-465c0 -147 94 -254 268 -254c175 0 268 107 268 254zM283 927h291c10 0 18 -8 18 -18v-13c0 -10 -8 -18 -18 -18
h-291c-10 0 -18 8 -18 18v13c0 10 8 18 18 18z" />
    <glyph glyph-name="uogonek" unicode="&#x173;" horiz-adv-x="852" 
d="M694 297v465c0 10 8 18 18 18h23c10 0 18 -8 18 -18v-467c0 -140 -73 -254 -210 -294c-8 -2 -17 -7 -23 -12c-45 -39 -90 -90 -90 -137c0 -40 34 -59 89 -52c11 1 19 -5 21 -16l2 -11c2 -9 -6 -19 -15 -20c-82 -11 -142 24 -142 90c0 52 36 98 76 135c3 3 1 8 -4 8
c-10 -1 -20 -1 -31 -1c-213 0 -327 135 -327 310v467c0 10 8 18 18 18h23c10 0 18 -8 18 -18v-465c0 -147 94 -254 268 -254c175 0 268 107 268 254z" />
    <glyph glyph-name="uring" unicode="&#x16f;" horiz-adv-x="856" 
d="M696 297v465c0 10 8 18 18 18h23c10 0 18 -8 18 -18v-467c0 -175 -114 -310 -327 -310s-327 135 -327 310v467c0 10 8 18 18 18h23c10 0 18 -8 18 -18v-465c0 -147 94 -254 268 -254c175 0 268 107 268 254zM429 841c-65 0 -115 50 -115 115c0 63 50 114 115 114
c63 0 114 -50 114 -114c0 -65 -51 -115 -114 -115zM429 1027c-40 0 -72 -33 -72 -71c0 -40 32 -72 72 -72c38 0 71 32 71 72c0 38 -33 71 -71 71z" />
    <glyph glyph-name="utilde" unicode="&#x169;" horiz-adv-x="853" 
d="M694 297v465c0 10 8 18 18 18h23c10 0 18 -8 18 -18v-467c0 -175 -114 -310 -327 -310s-327 135 -327 310v467c0 10 8 18 18 18h23c10 0 18 -8 18 -18v-465c0 -147 94 -254 268 -254c175 0 268 107 268 254zM341 953c-34 0 -55 -31 -60 -72c-1 -11 -9 -18 -20 -18h-9
c-9 0 -17 9 -16 18c5 57 33 123 105 123c34 0 58 -13 102 -55c24 -24 45 -44 71 -44c32 0 52 31 55 72c1 11 9 18 20 18h10c9 0 17 -9 16 -18c-4 -56 -30 -123 -101 -123c-35 0 -55 15 -99 55c-28 25 -48 44 -74 44z" />
    <glyph glyph-name="wacute" unicode="&#x1e83;" horiz-adv-x="1133" 
d="M562 672l-216 -655c-4 -10 -13 -17 -24 -17h-29c-11 0 -20 7 -24 17l-239 746c-3 8 3 17 12 17h28c11 0 20 -7 23 -17l211 -662c1 -4 7 -4 8 0l219 662c4 10 13 17 24 17h22c11 0 20 -7 24 -17l219 -662c1 -4 7 -4 8 0l212 662c3 10 12 17 23 17h28c9 0 15 -9 12 -17
l-239 -746c-4 -10 -13 -17 -24 -17h-29c-11 0 -20 7 -24 17l-217 655c-1 4 -7 4 -8 0zM441 891l222 135c6 4 15 1 19 -5l15 -27c4 -6 1 -15 -5 -19l-228 -124c-6 -4 -15 -1 -19 5l-9 16c-4 6 -2 15 5 19z" />
    <glyph glyph-name="wcircumflex" unicode="&#x175;" horiz-adv-x="1133" 
d="M562 672l-216 -655c-4 -10 -13 -17 -24 -17h-29c-11 0 -20 7 -24 17l-239 746c-3 8 3 17 12 17h28c11 0 20 -7 23 -17l211 -662c1 -4 7 -4 8 0l219 662c4 10 13 17 24 17h22c11 0 20 -7 24 -17l219 -662c1 -4 7 -4 8 0l212 662c3 10 12 17 23 17h28c9 0 15 -9 12 -17
l-239 -746c-4 -10 -13 -17 -24 -17h-29c-11 0 -20 7 -24 17l-217 655c-1 4 -7 4 -8 0zM580 1016l147 -107c7 -6 9 -17 3 -25l-8 -9c-6 -8 -18 -9 -26 -4l-119 86c-6 5 -16 5 -22 0l-117 -85c-8 -6 -20 -5 -26 3l-8 9c-6 8 -4 19 3 25l145 107c8 7 20 7 28 0z" />
    <glyph glyph-name="wdieresis" unicode="&#x1e85;" horiz-adv-x="1133" 
d="M562 672l-216 -655c-4 -10 -13 -17 -24 -17h-29c-11 0 -20 7 -24 17l-239 746c-3 8 3 17 12 17h28c11 0 20 -7 23 -17l211 -662c1 -4 7 -4 8 0l219 662c4 10 13 17 24 17h22c11 0 20 -7 24 -17l219 -662c1 -4 7 -4 8 0l212 662c3 10 12 17 23 17h28c9 0 15 -9 12 -17
l-239 -746c-4 -10 -13 -17 -24 -17h-29c-11 0 -20 7 -24 17l-217 655c-1 4 -7 4 -8 0zM458 878c-25 0 -46 20 -46 45s21 46 46 46s45 -21 45 -46s-20 -45 -45 -45zM676 878c-25 0 -46 20 -46 45s21 46 46 46s46 -21 46 -46s-21 -45 -46 -45z" />
    <glyph glyph-name="wgrave" unicode="&#x1e81;" horiz-adv-x="1133" 
d="M562 672l-216 -655c-4 -10 -13 -17 -24 -17h-29c-11 0 -20 7 -24 17l-239 746c-3 8 3 17 12 17h28c11 0 20 -7 23 -17l211 -662c1 -4 7 -4 8 0l219 662c4 10 13 17 24 17h22c11 0 20 -7 24 -17l219 -662c1 -4 7 -4 8 0l212 662c3 10 12 17 23 17h28c9 0 15 -9 12 -17
l-239 -746c-4 -10 -13 -17 -24 -17h-29c-11 0 -20 7 -24 17l-217 655c-1 4 -7 4 -8 0zM473 1024l216 -131c8 -5 11 -16 6 -25l-5 -8c-5 -9 -16 -12 -25 -7l-220 120c-9 5 -12 16 -7 25l11 19c5 9 16 12 24 7z" />
    <glyph glyph-name="yacute" unicode="&#xfd;" horiz-adv-x="793" 
d="M32 780h35c11 0 22 -6 28 -15l293 -409c4 -5 12 -5 16 0l294 409c6 9 17 15 28 15h35c8 0 12 -8 8 -15l-335 -468c-5 -7 -8 -17 -8 -25v-254c0 -10 -8 -18 -18 -18h-23c-10 0 -18 8 -18 18v253c0 8 -3 18 -8 25l-335 469c-4 7 0 15 8 15zM271 891l222 135c6 4 15 1 19 -5
l15 -27c4 -6 1 -15 -5 -19l-228 -124c-6 -4 -15 -1 -19 5l-9 16c-4 6 -2 15 5 19z" />
    <glyph glyph-name="ydieresis" unicode="&#xff;" horiz-adv-x="793" 
d="M32 780h35c11 0 22 -6 28 -15l293 -409c4 -5 12 -5 16 0l294 409c6 9 17 15 28 15h35c8 0 12 -8 8 -15l-335 -468c-5 -7 -8 -17 -8 -25v-254c0 -10 -8 -18 -18 -18h-23c-10 0 -18 8 -18 18v253c0 8 -3 18 -8 25l-335 469c-4 7 0 15 8 15zM287 878c-25 0 -46 20 -46 45
s21 46 46 46s45 -21 45 -46s-20 -45 -45 -45zM505 878c-25 0 -46 20 -46 45s21 46 46 46s46 -21 46 -46s-21 -45 -46 -45z" />
    <glyph glyph-name="ygrave" unicode="&#x1ef3;" horiz-adv-x="793" 
d="M32 780h35c11 0 22 -6 28 -15l293 -409c4 -5 12 -5 16 0l294 409c6 9 17 15 28 15h35c8 0 12 -8 8 -15l-335 -468c-5 -7 -8 -17 -8 -25v-254c0 -10 -8 -18 -18 -18h-23c-10 0 -18 8 -18 18v253c0 8 -3 18 -8 25l-335 469c-4 7 0 15 8 15zM303 1024l216 -131
c8 -5 11 -16 6 -25l-5 -8c-5 -9 -16 -12 -25 -7l-220 120c-9 5 -12 16 -7 25l11 19c5 9 16 12 24 7z" />
    <glyph glyph-name="zacute" unicode="&#x17a;" horiz-adv-x="680" 
d="M541 722h-473c-10 0 -18 8 -18 18v22c0 10 8 18 18 18h554c10 0 18 -8 18 -18v-9c0 -11 -4 -24 -11 -32l-503 -652c-4 -5 -1 -11 5 -11h489c10 0 18 -8 18 -18v-22c0 -10 -8 -18 -18 -18h-569c-10 0 -18 8 -18 18v9c0 11 4 24 11 32l502 652c4 5 1 11 -5 11zM211 891
l222 135c6 4 15 1 19 -5l15 -27c4 -6 1 -15 -5 -19l-228 -124c-6 -4 -15 -1 -19 5l-9 16c-4 6 -2 15 5 19z" />
    <glyph glyph-name="zcaron" unicode="&#x17e;" horiz-adv-x="680" 
d="M541 722h-473c-10 0 -18 8 -18 18v22c0 10 8 18 18 18h554c10 0 18 -8 18 -18v-9c0 -11 -4 -24 -11 -32l-503 -652c-4 -5 -1 -11 5 -11h489c10 0 18 -8 18 -18v-22c0 -10 -8 -18 -18 -18h-569c-10 0 -18 8 -18 18v9c0 11 4 24 11 32l502 652c4 5 1 11 -5 11zM500 982
l-153 -113c-6 -5 -16 -4 -22 0l-151 113c-6 4 -7 13 -2 19l12 15c5 6 14 7 20 3l117 -85c9 -7 21 -7 30 -1l119 86c6 4 15 3 20 -3l12 -15c5 -6 4 -15 -2 -19z" />
    <glyph glyph-name="zdotaccent" unicode="&#x17c;" horiz-adv-x="680" 
d="M541 722h-473c-10 0 -18 8 -18 18v22c0 10 8 18 18 18h554c10 0 18 -8 18 -18v-9c0 -11 -4 -24 -11 -32l-503 -652c-4 -5 -1 -11 5 -11h489c10 0 18 -8 18 -18v-22c0 -10 -8 -18 -18 -18h-569c-10 0 -18 8 -18 18v9c0 11 4 24 11 32l502 652c4 5 1 11 -5 11zM337 868
c-25 0 -46 20 -46 45s21 46 46 46s45 -21 45 -46s-20 -45 -45 -45z" />
    <glyph glyph-name="onequarter" unicode="&#xbc;" horiz-adv-x="946" 
d="M131 721l-71 -23c-8 -3 -17 3 -17 12v14c0 11 7 20 17 24l85 27c8 3 20 5 29 5h2c8 0 15 -7 15 -15v-474c0 -10 -8 -18 -18 -18h-11c-10 0 -18 8 -18 18v420c0 7 -7 12 -13 10zM830 92v-74c0 -10 -8 -18 -18 -18h-10c-10 0 -18 8 -18 18v74c0 8 -6 14 -14 14h-257
c-9 0 -17 8 -17 17v2c0 9 3 22 8 30l199 336c5 10 16 16 27 16h16c8 0 13 -9 9 -16l-194 -329c-3 -5 1 -12 7 -12h202c8 0 14 6 14 14v104c0 10 8 18 18 18h10c10 0 18 -8 18 -18v-104c0 -8 6 -14 14 -14h43c10 0 18 -8 18 -18v-8c0 -10 -8 -18 -18 -18h-43
c-8 0 -14 -6 -14 -14zM680 765l-444 -750c-5 -9 -16 -15 -27 -15h-17c-8 0 -13 9 -9 15l444 750c5 9 16 15 27 15h17c8 0 13 -9 9 -15z" />
    <glyph glyph-name="onehalf" unicode="&#xbd;" horiz-adv-x="1015" 
d="M130 721l-71 -23c-8 -3 -17 3 -17 12v14c0 11 7 20 17 24l85 27c8 3 20 5 29 5h2c8 0 15 -7 15 -15v-474c0 -10 -8 -18 -18 -18h-11c-10 0 -18 8 -18 18v420c0 7 -7 12 -13 10zM698 47h240c10 0 18 -8 18 -18v-11c0 -10 -8 -18 -18 -18h-318c-9 0 -17 8 -17 17v2
c0 10 5 21 13 29l196 180c52 47 93 84 93 138c0 65 -53 105 -119 105c-62 0 -124 -30 -129 -110c-1 -10 -9 -17 -20 -17h-11c-9 0 -16 8 -16 17c5 112 95 156 176 156c89 0 166 -57 166 -151c0 -75 -57 -125 -109 -173l-149 -137c-3 -3 -1 -9 4 -9zM679 765l-444 -750
c-5 -9 -16 -15 -27 -15h-17c-8 0 -13 9 -9 15l444 750c5 9 16 15 27 15h17c8 0 13 -9 9 -15z" />
    <glyph glyph-name="threequarters" unicode="&#xbe;" horiz-adv-x="1068" 
d="M952 92v-74c0 -10 -8 -18 -18 -18h-10c-10 0 -18 8 -18 18v74c0 8 -6 14 -14 14h-257c-9 0 -17 8 -17 17v2c0 9 3 22 8 30l199 336c5 10 16 16 27 16h16c8 0 13 -9 9 -16l-194 -329c-3 -5 1 -12 7 -12h202c8 0 14 6 14 14v104c0 10 8 18 18 18h10c10 0 18 -8 18 -18v-104
c0 -8 6 -14 14 -14h43c10 0 18 -8 18 -18v-8c0 -10 -8 -18 -18 -18h-43c-8 0 -14 -6 -14 -14zM802 765l-444 -750c-5 -9 -16 -15 -27 -15h-17c-8 0 -13 9 -9 15l444 750c5 9 16 15 27 15h17c8 0 13 -9 9 -15zM228 263c-46 0 -98 12 -150 40c-9 4 -11 16 -6 24l5 8
c6 8 17 11 26 6c45 -23 86 -32 123 -32c80 0 135 44 135 101c0 59 -62 101 -167 106c-10 0 -18 8 -18 18v4c0 10 8 18 18 18c107 6 150 58 150 103c0 52 -49 87 -111 87c-54 0 -98 -25 -109 -62c-3 -13 -10 -20 -23 -19h-7c-9 1 -18 12 -16 21c12 61 76 104 155 104
c82 0 158 -48 158 -126c0 -45 -29 -94 -91 -122c-5 -2 -4 -8 0 -9c68 -24 109 -68 109 -126c0 -83 -81 -144 -181 -144z" />
    <glyph glyph-name="oslash" unicode="&#xf8;" 
d="M161 117c-65 72 -105 168 -105 273c0 223 182 405 407 405c92 0 178 -32 246 -84c6 -5 15 -4 21 1l50 55c7 8 19 13 30 13h25c7 0 11 -8 6 -13l-78 -85c-6 -5 -6 -14 0 -20c66 -72 106 -168 106 -272c0 -224 -183 -405 -406 -405c-93 0 -179 31 -248 83
c-6 5 -15 4 -21 -1l-49 -54c-7 -8 -19 -13 -30 -13h-25c-7 0 -11 8 -6 13l77 84c6 5 6 14 0 20zM463 44c190 0 346 155 346 346c0 87 -33 167 -87 228c-4 5 -13 5 -18 0l-450 -487c-5 -5 -4 -14 2 -19c57 -42 129 -68 207 -68zM463 736c-191 0 -347 -156 -347 -346
c0 -88 32 -168 86 -229c5 -5 14 -5 19 0l450 488c5 5 4 14 -2 19c-58 42 -129 68 -206 68z" />
    <glyph glyph-name="Oslash" unicode="&#xd8;" 
d="M161 117c-65 72 -105 168 -105 273c0 223 182 405 407 405c92 0 178 -32 246 -84c6 -5 15 -4 21 1l50 55c7 8 19 13 30 13h25c7 0 11 -8 6 -13l-78 -85c-6 -5 -6 -14 0 -20c66 -72 106 -168 106 -272c0 -224 -183 -405 -406 -405c-93 0 -179 31 -248 83
c-6 5 -15 4 -21 -1l-49 -54c-7 -8 -19 -13 -30 -13h-25c-7 0 -11 8 -6 13l77 84c6 5 6 14 0 20zM463 44c190 0 346 155 346 346c0 87 -33 167 -87 228c-4 5 -13 5 -18 0l-450 -487c-5 -5 -4 -14 2 -19c57 -42 129 -68 207 -68zM463 736c-191 0 -347 -156 -347 -346
c0 -88 32 -168 86 -229c5 -5 14 -5 19 0l450 488c5 5 4 14 -2 19c-58 42 -129 68 -206 68z" />
    <glyph glyph-name="fraction.alt" unicode="&#xe999;" horiz-adv-x="533" 
d="M515 765l-444 -750c-5 -9 -16 -15 -27 -15h-17c-8 0 -13 9 -9 15l444 750c5 9 16 15 27 15h17c8 0 13 -9 9 -15z" />
    <glyph glyph-name="quotedbl" unicode="&#x22;" horiz-adv-x="448" 
d="M144 762l-6 -281c0 -10 -8 -18 -18 -18h-10c-10 0 -18 8 -18 18l-6 281c0 10 8 18 18 18h22c10 0 18 -8 18 -18zM360 762l-6 -281c0 -10 -8 -18 -18 -18h-10c-10 0 -18 8 -18 18l-6 281c0 10 8 18 18 18h22c10 0 18 -8 18 -18z" />
    <glyph glyph-name="leftspur" unicode="&#xe001;" horiz-adv-x="65" 
d="M13 402l52 46v-115l-51 45c-8 6 -8 18 -1 24z" />
    <glyph glyph-name="rightspur" unicode="&#xe002;" horiz-adv-x="65" 
d="M0 448l52 -46c7 -6 7 -18 -1 -24l-51 -45v115z" />
    <glyph glyph-name="leftspurA" unicode="&#xe003;" horiz-adv-x="82" 
d="M17 422l65 21l-47 -105l-28 62c-4 8 1 19 10 22z" />
    <glyph glyph-name="rightspurA" unicode="&#xe004;" horiz-adv-x="82" 
d="M0 443l65 -21c9 -3 14 -14 10 -22l-28 -62z" />
    <glyph glyph-name="leftspurS" unicode="&#xe005;" horiz-adv-x="110" 
d="M29 330l-29 63l110 -36l-58 -34c-9 -5 -19 -1 -23 7z" />
    <glyph glyph-name="rightspurS" unicode="&#xe006;" horiz-adv-x="110" 
d="M81 448l29 -63l-110 36l58 34c9 5 19 1 23 -7z" />
    <glyph glyph-name="leftspurV" unicode="&#xe007;" horiz-adv-x="82" 
d="M7 378l28 64l47 -104l-65 19c-9 3 -14 13 -10 21z" />
    <glyph glyph-name="rightspurV" unicode="&#xe008;" horiz-adv-x="82" 
d="M47 442l28 -64c4 -8 -1 -18 -10 -21l-65 -19z" />
    <glyph glyph-name="leftspurW" unicode="&#xe009;" horiz-adv-x="78" 
d="M9 386l36 59l33 -110l-62 28c-8 4 -12 15 -7 23z" />
    <glyph glyph-name="rightspurW" unicode="&#xe010;" horiz-adv-x="78" 
d="M34 445l35 -59c5 -8 1 -19 -7 -23l-62 -28z" />
    <glyph glyph-name="leftspurZ" unicode="&#xe012;" horiz-adv-x="86" 
d="M17 445l69 5l-71 -90l-12 67c-2 9 5 17 14 18z" />
    <glyph glyph-name="rightspurZ" unicode="&#xe013;" horiz-adv-x="86" 
d="M69 335l-69 -5l71 91l12 -67c2 -9 -5 -18 -14 -19z" />
    <glyph glyph-name="uni00A0" unicode="&#xa0;" horiz-adv-x="346" 
 />
    </font>
</defs>
</svg>
